<?xml version="1.0" encoding="UTF-8"?>
<svg xmlns="http://www.w3.org/2000/svg" width="1120" height="450" viewBox="0 0 1120 450">
  <rect x="0" y="0" width="1120" height="450" fill="white"/>
  <text x="560" y="24" text-anchor="middle" font-family="system-ui, -apple-system" font-size="16">Duration by page size (raw runs)</text>
  <line x1="70" y1="390" x2="900" y2="390" stroke="#111" stroke-width="1"/>
  <line x1="70" y1="50" x2="70" y2="390" stroke="#111" stroke-width="1"/>
  <line x1="66" y1="50.0" x2="70" y2="50.0" stroke="#111" stroke-width="1"/>
  <text x="62" y="54.0" text-anchor="end" font-family="system-ui, -apple-system" font-size="11">0.043</text>
  <line x1="66" y1="135.0" x2="70" y2="135.0" stroke="#111" stroke-width="1"/>
  <text x="62" y="139.0" text-anchor="end" font-family="system-ui, -apple-system" font-size="11">0.032</text>
  <line x1="70" y1="135.0" x2="900" y2="135.0" stroke="#eee" stroke-width="1"/>
  <line x1="66" y1="220.0" x2="70" y2="220.0" stroke="#111" stroke-width="1"/>
  <text x="62" y="224.0" text-anchor="end" font-family="system-ui, -apple-system" font-size="11">0.021</text>
  <line x1="70" y1="220.0" x2="900" y2="220.0" stroke="#eee" stroke-width="1"/>
  <line x1="66" y1="305.0" x2="70" y2="305.0" stroke="#111" stroke-width="1"/>
  <text x="62" y="309.0" text-anchor="end" font-family="system-ui, -apple-system" font-size="11">0.011</text>
  <line x1="70" y1="305.0" x2="900" y2="305.0" stroke="#eee" stroke-width="1"/>
  <line x1="66" y1="390.0" x2="70" y2="390.0" stroke="#111" stroke-width="1"/>
  <text x="62" y="394.0" text-anchor="end" font-family="system-ui, -apple-system" font-size="11">0.0000</text>
  <text x="485" y="432" text-anchor="middle" font-family="system-ui, -apple-system" font-size="12">per_page</text>
  <text x="18" y="220" text-anchor="middle" font-family="system-ui, -apple-system" font-size="12" transform="rotate(-90 18 220)">Duration (seconds)</text>
  <text x="111.5" y="410" text-anchor="middle" font-family="system-ui, -apple-system" font-size="11">1</text>
  <text x="194.5" y="410" text-anchor="middle" font-family="system-ui, -apple-system" font-size="11">10</text>
  <text x="277.5" y="410" text-anchor="middle" font-family="system-ui, -apple-system" font-size="11">25</text>
  <text x="360.5" y="410" text-anchor="middle" font-family="system-ui, -apple-system" font-size="11">50</text>
  <text x="443.5" y="410" text-anchor="middle" font-family="system-ui, -apple-system" font-size="11">100</text>
  <text x="526.5" y="410" text-anchor="middle" font-family="system-ui, -apple-system" font-size="11">250</text>
  <text x="609.5" y="410" text-anchor="middle" font-family="system-ui, -apple-system" font-size="11">500</text>
  <text x="692.5" y="410" text-anchor="middle" font-family="system-ui, -apple-system" font-size="11">1000</text>
  <text x="775.5" y="410" text-anchor="middle" font-family="system-ui, -apple-system" font-size="11">10000</text>
  <text x="858.5" y="410" text-anchor="middle" font-family="system-ui, -apple-system" font-size="11">100000</text>
  <line x1="85.77" y1="389.944244014431" x2="85.77" y2="389.9681394368177" stroke="#1f77b4" stroke-width="1"/>
  <line x1="82.865" y1="389.944244014431" x2="88.675" y2="389.944244014431" stroke="#1f77b4" stroke-width="1"/>
  <line x1="82.865" y1="389.9681394368177" x2="88.675" y2="389.9681394368177" stroke="#1f77b4" stroke-width="1"/>
  <rect x="78.3" y="389.9522091552265" width="14.939999999999998" height="0.007965140795647585" fill="#1f77b4" fill-opacity="0.35" stroke="#1f77b4" stroke-width="1"/>
  <line x1="78.3" y1="389.9522091552265" x2="93.24" y2="389.9522091552265" stroke="#1f77b4" stroke-width="2"/>
  <line x1="168.77" y1="389.9283137328398" x2="168.77" y2="389.9681394368177" stroke="#1f77b4" stroke-width="1"/>
  <line x1="165.865" y1="389.9283137328398" x2="171.675" y2="389.9283137328398" stroke="#1f77b4" stroke-width="1"/>
  <line x1="165.865" y1="389.9681394368177" x2="171.675" y2="389.9681394368177" stroke="#1f77b4" stroke-width="1"/>
  <rect x="161.3" y="389.944244014431" width="14.939999999999998" height="0.015930281591181483" fill="#1f77b4" fill-opacity="0.35" stroke="#1f77b4" stroke-width="1"/>
  <line x1="161.3" y1="389.9522091552265" x2="176.24" y2="389.9522091552265" stroke="#1f77b4" stroke-width="2"/>
  <line x1="251.77" y1="389.8725577472707" x2="251.77" y2="389.96017429602216" stroke="#1f77b4" stroke-width="1"/>
  <line x1="248.865" y1="389.8725577472707" x2="254.675" y2="389.8725577472707" stroke="#1f77b4" stroke-width="1"/>
  <line x1="248.865" y1="389.96017429602216" x2="254.675" y2="389.96017429602216" stroke="#1f77b4" stroke-width="1"/>
  <rect x="244.3" y="389.9044183104531" width="14.939999999999998" height="0.03186056318230612" fill="#1f77b4" fill-opacity="0.35" stroke="#1f77b4" stroke-width="1"/>
  <line x1="244.3" y1="389.9283137328398" x2="259.24" y2="389.9283137328398" stroke="#1f77b4" stroke-width="2"/>
  <line x1="334.77" y1="389.8645926064752" x2="334.77" y2="389.9362788736354" stroke="#1f77b4" stroke-width="1"/>
  <line x1="331.865" y1="389.8645926064752" x2="337.67499999999995" y2="389.8645926064752" stroke="#1f77b4" stroke-width="1"/>
  <line x1="331.865" y1="389.9362788736354" x2="337.67499999999995" y2="389.9362788736354" stroke="#1f77b4" stroke-width="1"/>
  <rect x="327.3" y="389.8964531696575" width="14.939999999999998" height="0.02389542238671538" fill="#1f77b4" fill-opacity="0.35" stroke="#1f77b4" stroke-width="1"/>
  <line x1="327.3" y1="389.9044183104531" x2="342.24" y2="389.9044183104531" stroke="#1f77b4" stroke-width="2"/>
  <line x1="417.77" y1="389.74511549454155" x2="417.77" y2="389.8725577472707" stroke="#1f77b4" stroke-width="1"/>
  <line x1="414.865" y1="389.74511549454155" x2="420.67499999999995" y2="389.74511549454155" stroke="#1f77b4" stroke-width="1"/>
  <line x1="414.865" y1="389.8725577472707" x2="420.67499999999995" y2="389.8725577472707" stroke="#1f77b4" stroke-width="1"/>
  <rect x="410.3" y="389.80684533570724" width="14.939999999999998" height="0.055755985569021504" fill="#1f77b4" fill-opacity="0.35" stroke="#1f77b4" stroke-width="1"/>
  <line x1="410.3" y1="389.85662746567965" x2="425.24" y2="389.85662746567965" stroke="#1f77b4" stroke-width="2"/>
  <line x1="500.77" y1="389.66546408658576" x2="500.77" y2="389.7132549313592" stroke="#1f77b4" stroke-width="1"/>
  <line x1="497.865" y1="389.66546408658576" x2="503.67499999999995" y2="389.66546408658576" stroke="#1f77b4" stroke-width="1"/>
  <line x1="497.865" y1="389.7132549313592" x2="503.67499999999995" y2="389.7132549313592" stroke="#1f77b4" stroke-width="1"/>
  <rect x="493.3" y="389.6754205125802" width="14.939999999999998" height="0.027877992784510752" fill="#1f77b4" fill-opacity="0.35" stroke="#1f77b4" stroke-width="1"/>
  <line x1="493.3" y1="389.6893595089725" x2="508.24" y2="389.6893595089725" stroke="#1f77b4" stroke-width="2"/>
  <line x1="583.77" y1="389.30703275078486" x2="583.77" y2="389.434475003514" stroke="#1f77b4" stroke-width="1"/>
  <line x1="580.865" y1="389.30703275078486" x2="586.675" y2="389.30703275078486" stroke="#1f77b4" stroke-width="1"/>
  <line x1="580.865" y1="389.434475003514" x2="586.675" y2="389.434475003514" stroke="#1f77b4" stroke-width="1"/>
  <rect x="576.3" y="389.3548235955583" width="14.940000000000055" height="0.04779084477343076" fill="#1f77b4" fill-opacity="0.35" stroke="#1f77b4" stroke-width="1"/>
  <line x1="576.3" y1="389.3946492995362" x2="591.24" y2="389.3946492995362" stroke="#1f77b4" stroke-width="2"/>
  <line x1="666.77" y1="388.38307641849786" x2="666.77" y2="388.7972637398679" stroke="#1f77b4" stroke-width="1"/>
  <line x1="663.865" y1="388.38307641849786" x2="669.675" y2="388.38307641849786" stroke="#1f77b4" stroke-width="1"/>
  <line x1="663.865" y1="388.7972637398679" x2="669.675" y2="388.7972637398679" stroke="#1f77b4" stroke-width="1"/>
  <rect x="659.3" y="388.606100360774" width="14.940000000000055" height="0.16726795670712136" fill="#1f77b4" fill-opacity="0.35" stroke="#1f77b4" stroke-width="1"/>
  <line x1="659.3" y1="388.7454903246967" x2="674.24" y2="388.7454903246967" stroke="#1f77b4" stroke-width="2"/>
  <line x1="749.77" y1="374.62727826453636" x2="749.77" y2="375.84594480625964" stroke="#1f77b4" stroke-width="1"/>
  <line x1="746.865" y1="374.62727826453636" x2="752.675" y2="374.62727826453636" stroke="#1f77b4" stroke-width="1"/>
  <line x1="746.865" y1="375.84594480625964" x2="752.675" y2="375.84594480625964" stroke="#1f77b4" stroke-width="1"/>
  <rect x="742.3" y="374.9578316075528" width="14.940000000000055" height="0.4181698917678318" fill="#1f77b4" fill-opacity="0.35" stroke="#1f77b4" stroke-width="1"/>
  <line x1="742.3" y1="375.18882069062454" x2="757.24" y2="375.18882069062454" stroke="#1f77b4" stroke-width="2"/>
  <line x1="832.77" y1="208.93641943494356" x2="832.77" y2="218.6140655015696" stroke="#1f77b4" stroke-width="1"/>
  <line x1="829.865" y1="208.93641943494356" x2="835.675" y2="208.93641943494356" stroke="#1f77b4" stroke-width="1"/>
  <line x1="829.865" y1="218.6140655015696" x2="835.675" y2="218.6140655015696" stroke="#1f77b4" stroke-width="1"/>
  <rect x="825.3" y="212.4530290961908" width="14.940000000000055" height="4.337019163191684" fill="#1f77b4" fill-opacity="0.35" stroke="#1f77b4" stroke-width="1"/>
  <line x1="825.3" y1="215.0456824251511" x2="840.24" y2="215.0456824251511" stroke="#1f77b4" stroke-width="2"/>
  <line x1="102.37" y1="390.0" x2="102.37" y2="390.0" stroke="#ff7f0e" stroke-width="1"/>
  <line x1="99.465" y1="390.0" x2="105.275" y2="390.0" stroke="#ff7f0e" stroke-width="1"/>
  <line x1="99.465" y1="390.0" x2="105.275" y2="390.0" stroke="#ff7f0e" stroke-width="1"/>
  <rect x="94.9" y="390.0" width="14.939999999999998" height="0.0" fill="#ff7f0e" fill-opacity="0.35" stroke="#ff7f0e" stroke-width="1"/>
  <line x1="94.9" y1="390.0" x2="109.84" y2="390.0" stroke="#ff7f0e" stroke-width="2"/>
  <line x1="185.37" y1="389.9920348592044" x2="185.37" y2="390.0" stroke="#ff7f0e" stroke-width="1"/>
  <line x1="182.465" y1="389.9920348592044" x2="188.275" y2="389.9920348592044" stroke="#ff7f0e" stroke-width="1"/>
  <line x1="182.465" y1="390.0" x2="188.275" y2="390.0" stroke="#ff7f0e" stroke-width="1"/>
  <rect x="177.9" y="389.9920348592044" width="14.939999999999998" height="0.007965140795590742" fill="#ff7f0e" fill-opacity="0.35" stroke="#ff7f0e" stroke-width="1"/>
  <line x1="177.9" y1="390.0" x2="192.84" y2="390.0" stroke="#ff7f0e" stroke-width="2"/>
  <line x1="268.37" y1="389.9920348592044" x2="268.37" y2="389.9920348592044" stroke="#ff7f0e" stroke-width="1"/>
  <line x1="265.46500000000003" y1="389.9920348592044" x2="271.275" y2="389.9920348592044" stroke="#ff7f0e" stroke-width="1"/>
  <line x1="265.46500000000003" y1="389.9920348592044" x2="271.275" y2="389.9920348592044" stroke="#ff7f0e" stroke-width="1"/>
  <rect x="260.90000000000003" y="389.9920348592044" width="14.939999999999998" height="0.0" fill="#ff7f0e" fill-opacity="0.35" stroke="#ff7f0e" stroke-width="1"/>
  <line x1="260.90000000000003" y1="389.9920348592044" x2="275.84000000000003" y2="389.9920348592044" stroke="#ff7f0e" stroke-width="2"/>
  <line x1="351.37" y1="389.9840697184088" x2="351.37" y2="389.9840697184088" stroke="#ff7f0e" stroke-width="1"/>
  <line x1="348.46500000000003" y1="389.9840697184088" x2="354.275" y2="389.9840697184088" stroke="#ff7f0e" stroke-width="1"/>
  <line x1="348.46500000000003" y1="389.9840697184088" x2="354.275" y2="389.9840697184088" stroke="#ff7f0e" stroke-width="1"/>
  <rect x="343.90000000000003" y="389.9840697184088" width="14.939999999999998" height="0.0" fill="#ff7f0e" fill-opacity="0.35" stroke="#ff7f0e" stroke-width="1"/>
  <line x1="343.90000000000003" y1="389.9840697184088" x2="358.84000000000003" y2="389.9840697184088" stroke="#ff7f0e" stroke-width="2"/>
  <line x1="434.37" y1="389.96017429602216" x2="434.37" y2="389.9761045776132" stroke="#ff7f0e" stroke-width="1"/>
  <line x1="431.46500000000003" y1="389.96017429602216" x2="437.275" y2="389.96017429602216" stroke="#ff7f0e" stroke-width="1"/>
  <line x1="431.46500000000003" y1="389.9761045776132" x2="437.275" y2="389.9761045776132" stroke="#ff7f0e" stroke-width="1"/>
  <rect x="426.90000000000003" y="389.9681394368177" width="14.939999999999998" height="0.0059738555966646345" fill="#ff7f0e" fill-opacity="0.35" stroke="#ff7f0e" stroke-width="1"/>
  <line x1="426.90000000000003" y1="389.9681394368177" x2="441.84000000000003" y2="389.9681394368177" stroke="#ff7f0e" stroke-width="2"/>
  <line x1="517.37" y1="389.9203485920442" x2="517.37" y2="389.9203485920442" stroke="#ff7f0e" stroke-width="1"/>
  <line x1="514.465" y1="389.9203485920442" x2="520.275" y2="389.9203485920442" stroke="#ff7f0e" stroke-width="1"/>
  <line x1="514.465" y1="389.9203485920442" x2="520.275" y2="389.9203485920442" stroke="#ff7f0e" stroke-width="1"/>
  <rect x="509.90000000000003" y="389.9203485920442" width="14.939999999999998" height="0.0" fill="#ff7f0e" fill-opacity="0.35" stroke="#ff7f0e" stroke-width="1"/>
  <line x1="509.90000000000003" y1="389.9203485920442" x2="524.84" y2="389.9203485920442" stroke="#ff7f0e" stroke-width="2"/>
  <line x1="600.37" y1="389.76901091692827" x2="600.37" y2="389.88052288806637" stroke="#ff7f0e" stroke-width="1"/>
  <line x1="597.465" y1="389.76901091692827" x2="603.275" y2="389.76901091692827" stroke="#ff7f0e" stroke-width="1"/>
  <line x1="597.465" y1="389.88052288806637" x2="603.275" y2="389.88052288806637" stroke="#ff7f0e" stroke-width="1"/>
  <rect x="592.9" y="389.8088366209061" width="14.940000000000055" height="0.031860563182362966" fill="#ff7f0e" fill-opacity="0.35" stroke="#ff7f0e" stroke-width="1"/>
  <line x1="592.9" y1="389.8247669024973" x2="607.84" y2="389.8247669024973" stroke="#ff7f0e" stroke-width="2"/>
  <line x1="683.37" y1="389.5061612706742" x2="683.37" y2="389.65749894579017" stroke="#ff7f0e" stroke-width="1"/>
  <line x1="680.465" y1="389.5061612706742" x2="686.275" y2="389.5061612706742" stroke="#ff7f0e" stroke-width="1"/>
  <line x1="680.465" y1="389.65749894579017" x2="686.275" y2="389.65749894579017" stroke="#ff7f0e" stroke-width="1"/>
  <rect x="675.9" y="389.5878039638289" width="14.940000000000055" height="0.059738555966816875" fill="#ff7f0e" fill-opacity="0.35" stroke="#ff7f0e" stroke-width="1"/>
  <line x1="675.9" y1="389.6176732418123" x2="690.84" y2="389.6176732418123" stroke="#ff7f0e" stroke-width="2"/>
  <line x1="766.37" y1="384.9978915803777" x2="766.37" y2="385.47580002811225" stroke="#ff7f0e" stroke-width="1"/>
  <line x1="763.465" y1="384.9978915803777" x2="769.275" y2="384.9978915803777" stroke="#ff7f0e" stroke-width="1"/>
  <line x1="763.465" y1="385.47580002811225" x2="769.275" y2="385.47580002811225" stroke="#ff7f0e" stroke-width="1"/>
  <rect x="758.9" y="385.1213512627091" width="14.940000000000055" height="0.1851895234971721" fill="#ff7f0e" fill-opacity="0.35" stroke="#ff7f0e" stroke-width="1"/>
  <line x1="758.9" y1="385.21693295225606" x2="773.84" y2="385.21693295225606" stroke="#ff7f0e" stroke-width="2"/>
  <line x1="849.37" y1="329.23394087054305" x2="849.37" y2="334.05285105186715" stroke="#ff7f0e" stroke-width="1"/>
  <line x1="846.465" y1="329.23394087054305" x2="852.275" y2="329.23394087054305" stroke="#ff7f0e" stroke-width="1"/>
  <line x1="846.465" y1="334.05285105186715" x2="852.275" y2="334.05285105186715" stroke="#ff7f0e" stroke-width="1"/>
  <rect x="841.9" y="331.362624748161" width="14.940000000000055" height="1.9056599353418164" fill="#ff7f0e" fill-opacity="0.35" stroke="#ff7f0e" stroke-width="1"/>
  <line x1="841.9" y1="332.6031954270721" x2="856.84" y2="332.6031954270721" stroke="#ff7f0e" stroke-width="2"/>
  <line x1="118.97" y1="389.8884880288619" x2="118.97" y2="389.9362788736354" stroke="#2ca02c" stroke-width="1"/>
  <line x1="116.065" y1="389.8884880288619" x2="121.875" y2="389.8884880288619" stroke="#2ca02c" stroke-width="1"/>
  <line x1="116.065" y1="389.9362788736354" x2="121.875" y2="389.9362788736354" stroke="#2ca02c" stroke-width="1"/>
  <rect x="111.5" y="389.906409595652" width="14.939999999999998" height="0.013938996392198533" fill="#2ca02c" fill-opacity="0.35" stroke="#2ca02c" stroke-width="1"/>
  <line x1="111.5" y1="389.9203485920442" x2="126.44" y2="389.9203485920442" stroke="#2ca02c" stroke-width="2"/>
  <line x1="201.97" y1="389.8645926064752" x2="201.97" y2="389.9123834512487" stroke="#2ca02c" stroke-width="1"/>
  <line x1="199.065" y1="389.8645926064752" x2="204.875" y2="389.8645926064752" stroke="#2ca02c" stroke-width="1"/>
  <line x1="199.065" y1="389.9123834512487" x2="204.875" y2="389.9123834512487" stroke="#2ca02c" stroke-width="1"/>
  <rect x="194.5" y="389.88251417326524" width="14.939999999999998" height="0.013938996392255376" fill="#2ca02c" fill-opacity="0.35" stroke="#2ca02c" stroke-width="1"/>
  <line x1="194.5" y1="389.8884880288619" x2="209.44" y2="389.8884880288619" stroke="#2ca02c" stroke-width="2"/>
  <line x1="284.97" y1="389.85662746567965" x2="284.97" y2="389.8884880288619" stroke="#2ca02c" stroke-width="1"/>
  <line x1="282.06500000000005" y1="389.85662746567965" x2="287.875" y2="389.85662746567965" stroke="#2ca02c" stroke-width="1"/>
  <line x1="282.06500000000005" y1="389.8884880288619" x2="287.875" y2="389.8884880288619" stroke="#2ca02c" stroke-width="1"/>
  <rect x="277.5" y="389.8645926064752" width="14.939999999999998" height="0.015930281591181483" fill="#2ca02c" fill-opacity="0.35" stroke="#2ca02c" stroke-width="1"/>
  <line x1="277.5" y1="389.8725577472707" x2="292.44" y2="389.8725577472707" stroke="#2ca02c" stroke-width="2"/>
  <line x1="367.97" y1="389.80087148011063" x2="367.97" y2="389.8964531696575" stroke="#2ca02c" stroke-width="1"/>
  <line x1="365.06500000000005" y1="389.80087148011063" x2="370.875" y2="389.80087148011063" stroke="#2ca02c" stroke-width="1"/>
  <line x1="365.06500000000005" y1="389.8964531696575" x2="370.875" y2="389.8964531696575" stroke="#2ca02c" stroke-width="1"/>
  <rect x="360.5" y="389.8426884692874" width="14.939999999999998" height="0.029869277983323173" fill="#2ca02c" fill-opacity="0.35" stroke="#2ca02c" stroke-width="1"/>
  <line x1="360.5" y1="389.8645926064752" x2="375.44" y2="389.8645926064752" stroke="#2ca02c" stroke-width="2"/>
  <line x1="450.97" y1="389.73715035374596" x2="450.97" y2="389.8327320432929" stroke="#2ca02c" stroke-width="1"/>
  <line x1="448.06500000000005" y1="389.73715035374596" x2="453.875" y2="389.73715035374596" stroke="#2ca02c" stroke-width="1"/>
  <line x1="448.06500000000005" y1="389.8327320432929" x2="453.875" y2="389.8327320432929" stroke="#2ca02c" stroke-width="1"/>
  <rect x="443.5" y="389.7630370613316" width="14.939999999999998" height="0.0378344187790276" fill="#2ca02c" fill-opacity="0.35" stroke="#2ca02c" stroke-width="1"/>
  <line x1="443.5" y1="389.78494119851945" x2="458.44" y2="389.78494119851945" stroke="#2ca02c" stroke-width="2"/>
  <line x1="533.97" y1="389.5061612706742" x2="533.97" y2="389.65749894579017" stroke="#2ca02c" stroke-width="1"/>
  <line x1="531.065" y1="389.5061612706742" x2="536.875" y2="389.5061612706742" stroke="#2ca02c" stroke-width="1"/>
  <line x1="531.065" y1="389.65749894579017" x2="536.875" y2="389.65749894579017" stroke="#2ca02c" stroke-width="1"/>
  <rect x="526.5" y="389.5499695450499" width="14.940000000000055" height="0.06571241156348151" fill="#2ca02c" fill-opacity="0.35" stroke="#2ca02c" stroke-width="1"/>
  <line x1="526.5" y1="389.5818301082322" x2="541.44" y2="389.5818301082322" stroke="#2ca02c" stroke-width="2"/>
  <line x1="616.97" y1="389.00435740055286" x2="616.97" y2="389.378719017945" stroke="#2ca02c" stroke-width="1"/>
  <line x1="614.065" y1="389.00435740055286" x2="619.875" y2="389.00435740055286" stroke="#2ca02c" stroke-width="1"/>
  <line x1="614.065" y1="389.378719017945" x2="619.875" y2="389.378719017945" stroke="#2ca02c" stroke-width="1"/>
  <rect x="609.5" y="389.17162535726" width="14.940000000000055" height="0.13938996392255376" fill="#2ca02c" fill-opacity="0.35" stroke="#2ca02c" stroke-width="1"/>
  <line x1="609.5" y1="389.2313639132268" x2="624.44" y2="389.2313639132268" stroke="#2ca02c" stroke-width="2"/>
  <line x1="699.97" y1="388.1042964906527" x2="699.97" y2="388.7972637398679" stroke="#2ca02c" stroke-width="1"/>
  <line x1="697.065" y1="388.1042964906527" x2="702.875" y2="388.1042964906527" stroke="#2ca02c" stroke-width="1"/>
  <line x1="697.065" y1="388.7972637398679" x2="702.875" y2="388.7972637398679" stroke="#2ca02c" stroke-width="1"/>
  <rect x="692.5" y="388.4507801152603" width="14.940000000000055" height="0.24293679426511972" fill="#2ca02c" fill-opacity="0.35" stroke="#2ca02c" stroke-width="1"/>
  <line x1="692.5" y1="388.5224663824205" x2="707.44" y2="388.5224663824205" stroke="#2ca02c" stroke-width="2"/>
  <line x1="782.97" y1="371.95099095722253" x2="782.97" y2="376.4194349435412" stroke="#2ca02c" stroke-width="1"/>
  <line x1="780.065" y1="371.95099095722253" x2="785.875" y2="371.95099095722253" stroke="#2ca02c" stroke-width="1"/>
  <line x1="780.065" y1="376.4194349435412" x2="785.875" y2="376.4194349435412" stroke="#2ca02c" stroke-width="1"/>
  <rect x="775.5" y="373.64557466148153" width="14.940000000000055" height="1.9634072061097072" fill="#2ca02c" fill-opacity="0.35" stroke="#2ca02c" stroke-width="1"/>
  <line x1="775.5" y1="374.4002717518624" x2="790.44" y2="374.4002717518624" stroke="#2ca02c" stroke-width="2"/>
  <line x1="865.97" y1="139.99016070842902" x2="865.97" y2="230.09183338799608" stroke="#2ca02c" stroke-width="1"/>
  <line x1="863.065" y1="139.99016070842902" x2="868.875" y2="139.99016070842902" stroke="#2ca02c" stroke-width="1"/>
  <line x1="863.065" y1="230.09183338799608" x2="868.875" y2="230.09183338799608" stroke="#2ca02c" stroke-width="1"/>
  <rect x="858.5" y="158.8595792531509" width="14.940000000000055" height="47.78686220306426" fill="#2ca02c" fill-opacity="0.35" stroke="#2ca02c" stroke-width="1"/>
  <line x1="858.5" y1="190.78784613222138" x2="873.44" y2="190.78784613222138" stroke="#2ca02c" stroke-width="2"/>
  <line x1="135.57" y1="389.9203485920442" x2="135.57" y2="389.9840697184088" stroke="#d62728" stroke-width="1"/>
  <line x1="132.665" y1="389.9203485920442" x2="138.475" y2="389.9203485920442" stroke="#d62728" stroke-width="1"/>
  <line x1="132.665" y1="389.9840697184088" x2="138.475" y2="389.9840697184088" stroke="#d62728" stroke-width="1"/>
  <rect x="128.1" y="389.9522091552265" width="14.939999999999998" height="0.02389542238671538" fill="#d62728" fill-opacity="0.35" stroke="#d62728" stroke-width="1"/>
  <line x1="128.1" y1="389.9641568664199" x2="143.04" y2="389.9641568664199" stroke="#d62728" stroke-width="2"/>
  <line x1="218.57000000000002" y1="389.9203485920442" x2="218.57000000000002" y2="389.9761045776132" stroke="#d62728" stroke-width="1"/>
  <line x1="215.66500000000002" y1="389.9203485920442" x2="221.47500000000002" y2="389.9203485920442" stroke="#d62728" stroke-width="1"/>
  <line x1="215.66500000000002" y1="389.9761045776132" x2="221.47500000000002" y2="389.9761045776132" stroke="#d62728" stroke-width="1"/>
  <rect x="211.10000000000002" y="389.9402614440332" width="14.939999999999998" height="0.027877992784510752" fill="#d62728" fill-opacity="0.35" stroke="#d62728" stroke-width="1"/>
  <line x1="211.10000000000002" y1="389.9681394368177" x2="226.04000000000002" y2="389.9681394368177" stroke="#d62728" stroke-width="2"/>
  <line x1="301.57000000000005" y1="389.9283137328398" x2="301.57000000000005" y2="389.96017429602216" stroke="#d62728" stroke-width="1"/>
  <line x1="298.6650000000001" y1="389.9283137328398" x2="304.475" y2="389.9283137328398" stroke="#d62728" stroke-width="1"/>
  <line x1="298.6650000000001" y1="389.96017429602216" x2="304.475" y2="389.96017429602216" stroke="#d62728" stroke-width="1"/>
  <rect x="294.1" y="389.944244014431" width="14.939999999999998" height="0.015930281591181483" fill="#d62728" fill-opacity="0.35" stroke="#d62728" stroke-width="1"/>
  <line x1="294.1" y1="389.9522091552265" x2="309.04" y2="389.9522091552265" stroke="#d62728" stroke-width="2"/>
  <line x1="384.57000000000005" y1="389.9123834512487" x2="384.57000000000005" y2="389.9362788736354" stroke="#d62728" stroke-width="1"/>
  <line x1="381.6650000000001" y1="389.9123834512487" x2="387.475" y2="389.9123834512487" stroke="#d62728" stroke-width="1"/>
  <line x1="381.6650000000001" y1="389.9362788736354" x2="387.475" y2="389.9362788736354" stroke="#d62728" stroke-width="1"/>
  <rect x="377.1" y="389.9203485920442" width="14.939999999999998" height="0.007965140795590742" fill="#d62728" fill-opacity="0.35" stroke="#d62728" stroke-width="1"/>
  <line x1="377.1" y1="389.924331162442" x2="392.04" y2="389.924331162442" stroke="#d62728" stroke-width="2"/>
  <line x1="467.57000000000005" y1="389.8645926064752" x2="467.57000000000005" y2="389.8884880288619" stroke="#d62728" stroke-width="1"/>
  <line x1="464.6650000000001" y1="389.8645926064752" x2="470.475" y2="389.8645926064752" stroke="#d62728" stroke-width="1"/>
  <line x1="464.6650000000001" y1="389.8884880288619" x2="470.475" y2="389.8884880288619" stroke="#d62728" stroke-width="1"/>
  <rect x="460.1" y="389.8725577472707" width="14.939999999999998" height="0.015930281591181483" fill="#d62728" fill-opacity="0.35" stroke="#d62728" stroke-width="1"/>
  <line x1="460.1" y1="389.88052288806637" x2="475.04" y2="389.88052288806637" stroke="#d62728" stroke-width="2"/>
  <line x1="550.57" y1="389.5061612706742" x2="550.57" y2="389.7132549313592" stroke="#d62728" stroke-width="1"/>
  <line x1="547.6650000000001" y1="389.5061612706742" x2="553.475" y2="389.5061612706742" stroke="#d62728" stroke-width="1"/>
  <line x1="547.6650000000001" y1="389.7132549313592" x2="553.475" y2="389.7132549313592" stroke="#d62728" stroke-width="1"/>
  <rect x="543.1" y="389.6196645270112" width="14.940000000000055" height="0.07766012275686762" fill="#d62728" fill-opacity="0.35" stroke="#d62728" stroke-width="1"/>
  <line x1="543.1" y1="389.67342922738135" x2="558.0400000000001" y2="389.67342922738135" stroke="#d62728" stroke-width="2"/>
  <line x1="633.5699999999999" y1="388.8211591622546" x2="633.5699999999999" y2="389.38668415874054" stroke="#d62728" stroke-width="1"/>
  <line x1="630.665" y1="388.8211591622546" x2="636.4749999999999" y2="388.8211591622546" stroke="#d62728" stroke-width="1"/>
  <line x1="630.665" y1="389.38668415874054" x2="636.4749999999999" y2="389.38668415874054" stroke="#d62728" stroke-width="1"/>
  <rect x="626.0999999999999" y="389.13179965328214" width="14.940000000000055" height="0.22103265707721675" fill="#d62728" fill-opacity="0.35" stroke="#d62728" stroke-width="1"/>
  <line x1="626.0999999999999" y1="389.29508503959147" x2="641.04" y2="389.29508503959147" stroke="#d62728" stroke-width="2"/>
  <line x1="716.5699999999999" y1="387.52284121257554" x2="716.5699999999999" y2="388.65389120554744" stroke="#d62728" stroke-width="1"/>
  <line x1="713.665" y1="387.52284121257554" x2="719.4749999999999" y2="387.52284121257554" stroke="#d62728" stroke-width="1"/>
  <line x1="713.665" y1="388.65389120554744" x2="719.4749999999999" y2="388.65389120554744" stroke="#d62728" stroke-width="1"/>
  <rect x="709.0999999999999" y="388.0764184978682" width="14.940000000000055" height="0.5276905777068919" fill="#d62728" fill-opacity="0.35" stroke="#d62728" stroke-width="1"/>
  <line x1="709.0999999999999" y1="388.5583095160006" x2="724.04" y2="388.5583095160006" stroke="#d62728" stroke-width="2"/>
  <line x1="799.5699999999999" y1="352.6355245279483" x2="799.5699999999999" y2="373.36878601883524" stroke="#d62728" stroke-width="1"/>
  <line x1="796.665" y1="352.6355245279483" x2="802.4749999999999" y2="352.6355245279483" stroke="#d62728" stroke-width="1"/>
  <line x1="796.665" y1="373.36878601883524" x2="802.4749999999999" y2="373.36878601883524" stroke="#d62728" stroke-width="1"/>
  <rect x="792.0999999999999" y="360.72810757625456" width="14.940000000000055" height="11.764512955067175" fill="#d62728" fill-opacity="0.35" stroke="#d62728" stroke-width="1"/>
  <line x1="792.0999999999999" y1="369.89996720236144" x2="807.04" y2="369.89996720236144" stroke="#d62728" stroke-width="2"/>
  <line x1="882.5699999999999" y1="50.0" x2="882.5699999999999" y2="110.5111746239985" stroke="#d62728" stroke-width="1"/>
  <line x1="879.665" y1="50.0" x2="885.4749999999999" y2="50.0" stroke="#d62728" stroke-width="1"/>
  <line x1="879.665" y1="110.5111746239985" x2="885.4749999999999" y2="110.5111746239985" stroke="#d62728" stroke-width="1"/>
  <rect x="875.0999999999999" y="78.772079838823" width="14.940000000000055" height="21.810546783488775" fill="#d62728" fill-opacity="0.35" stroke="#d62728" stroke-width="1"/>
  <line x1="875.0999999999999" y1="95.64025675865622" x2="890.04" y2="95.64025675865622" stroke="#d62728" stroke-width="2"/>
  <text x="918" y="62" font-family="system-ui, -apple-system" font-size="12" font-weight="600">handlers</text>
  <line x1="918" y1="76" x2="936" y2="76" stroke="#1f77b4" stroke-width="6" stroke-linecap="round" opacity="0.6"/>
  <text x="944" y="80" font-family="system-ui, -apple-system" font-size="12">ruby</text>
  <line x1="918" y1="94" x2="936" y2="94" stroke="#ff7f0e" stroke-width="6" stroke-linecap="round" opacity="0.6"/>
  <text x="944" y="98" font-family="system-ui, -apple-system" font-size="12">go</text>
  <line x1="918" y1="112" x2="936" y2="112" stroke="#2ca02c" stroke-width="6" stroke-linecap="round" opacity="0.6"/>
  <text x="944" y="116" font-family="system-ui, -apple-system" font-size="12">python</text>
  <line x1="918" y1="130" x2="936" y2="130" stroke="#d62728" stroke-width="6" stroke-linecap="round" opacity="0.6"/>
  <text x="944" y="134" font-family="system-ui, -apple-system" font-size="12">node</text>
</svg>
