<?xml version="1.0" encoding="UTF-8"?>
<svg xmlns="http://www.w3.org/2000/svg" width="1120" height="450" viewBox="0 0 1120 450">
  <rect x="0" y="0" width="1120" height="450" fill="white"/>
  <text x="560" y="24" text-anchor="middle" font-family="system-ui, -apple-system" font-size="16">Memory by page size (raw runs)</text>
  <line x1="70" y1="390" x2="900" y2="390" stroke="#111" stroke-width="1"/>
  <line x1="70" y1="50" x2="70" y2="390" stroke="#111" stroke-width="1"/>
  <line x1="66" y1="50.0" x2="70" y2="50.0" stroke="#111" stroke-width="1"/>
  <text x="62" y="54.0" text-anchor="end" font-family="system-ui, -apple-system" font-size="11">1.75e+08</text>
  <line x1="66" y1="135.0" x2="70" y2="135.0" stroke="#111" stroke-width="1"/>
  <text x="62" y="139.0" text-anchor="end" font-family="system-ui, -apple-system" font-size="11">1.34e+08</text>
  <line x1="70" y1="135.0" x2="900" y2="135.0" stroke="#eee" stroke-width="1"/>
  <line x1="66" y1="220.0" x2="70" y2="220.0" stroke="#111" stroke-width="1"/>
  <text x="62" y="224.0" text-anchor="end" font-family="system-ui, -apple-system" font-size="11">9.27e+07</text>
  <line x1="70" y1="220.0" x2="900" y2="220.0" stroke="#eee" stroke-width="1"/>
  <line x1="66" y1="305.0" x2="70" y2="305.0" stroke="#111" stroke-width="1"/>
  <text x="62" y="309.0" text-anchor="end" font-family="system-ui, -apple-system" font-size="11">5.16e+07</text>
  <line x1="70" y1="305.0" x2="900" y2="305.0" stroke="#eee" stroke-width="1"/>
  <line x1="66" y1="390.0" x2="70" y2="390.0" stroke="#111" stroke-width="1"/>
  <text x="62" y="394.0" text-anchor="end" font-family="system-ui, -apple-system" font-size="11">1.05e+07</text>
  <text x="485" y="432" text-anchor="middle" font-family="system-ui, -apple-system" font-size="12">per_page</text>
  <text x="18" y="220" text-anchor="middle" font-family="system-ui, -apple-system" font-size="12" transform="rotate(-90 18 220)">Memory (bytes)</text>
  <text x="111.5" y="410" text-anchor="middle" font-family="system-ui, -apple-system" font-size="11">1</text>
  <text x="194.5" y="410" text-anchor="middle" font-family="system-ui, -apple-system" font-size="11">10</text>
  <text x="277.5" y="410" text-anchor="middle" font-family="system-ui, -apple-system" font-size="11">25</text>
  <text x="360.5" y="410" text-anchor="middle" font-family="system-ui, -apple-system" font-size="11">50</text>
  <text x="443.5" y="410" text-anchor="middle" font-family="system-ui, -apple-system" font-size="11">100</text>
  <text x="526.5" y="410" text-anchor="middle" font-family="system-ui, -apple-system" font-size="11">250</text>
  <text x="609.5" y="410" text-anchor="middle" font-family="system-ui, -apple-system" font-size="11">500</text>
  <text x="692.5" y="410" text-anchor="middle" font-family="system-ui, -apple-system" font-size="11">1000</text>
  <text x="775.5" y="410" text-anchor="middle" font-family="system-ui, -apple-system" font-size="11">10000</text>
  <text x="858.5" y="410" text-anchor="middle" font-family="system-ui, -apple-system" font-size="11">100000</text>
  <line x1="85.77" y1="83.28179165523605" x2="85.77" y2="86.2665536075018" stroke="#1f77b4" stroke-width="1"/>
  <line x1="82.865" y1="83.28179165523605" x2="88.675" y2="83.28179165523605" stroke="#1f77b4" stroke-width="1"/>
  <line x1="82.865" y1="86.2665536075018" x2="88.675" y2="86.2665536075018" stroke="#1f77b4" stroke-width="1"/>
  <rect x="78.3" y="84.43499513679328" width="14.939999999999998" height="1.2210389804723576" fill="#1f77b4" fill-opacity="0.35" stroke="#1f77b4" stroke-width="1"/>
  <line x1="78.3" y1="84.9098436291992" x2="93.24" y2="84.9098436291992" stroke="#1f77b4" stroke-width="2"/>
  <line x1="168.77" y1="80.02568770730977" x2="168.77" y2="82.73910766391501" stroke="#1f77b4" stroke-width="1"/>
  <line x1="165.865" y1="80.02568770730977" x2="171.675" y2="80.02568770730977" stroke="#1f77b4" stroke-width="1"/>
  <line x1="165.865" y1="82.73910766391501" x2="171.675" y2="82.73910766391501" stroke="#1f77b4" stroke-width="1"/>
  <rect x="161.3" y="80.02568770730977" width="14.939999999999998" height="1.0853679826420972" fill="#1f77b4" fill-opacity="0.35" stroke="#1f77b4" stroke-width="1"/>
  <line x1="161.3" y1="80.83971369429135" x2="176.24" y2="80.83971369429135" stroke="#1f77b4" stroke-width="2"/>
  <line x1="251.77" y1="74.59884779409931" x2="251.77" y2="79.75434571164925" stroke="#1f77b4" stroke-width="1"/>
  <line x1="248.865" y1="74.59884779409931" x2="254.675" y2="74.59884779409931" stroke="#1f77b4" stroke-width="1"/>
  <line x1="248.865" y1="79.75434571164925" x2="254.675" y2="79.75434571164925" stroke="#1f77b4" stroke-width="1"/>
  <rect x="244.3" y="74.96346360076814" width="14.939999999999998" height="3.6376786293238865" fill="#1f77b4" fill-opacity="0.35" stroke="#1f77b4" stroke-width="1"/>
  <line x1="244.3" y1="75.41287378108088" x2="259.24" y2="75.41287378108088" stroke="#1f77b4" stroke-width="2"/>
  <line x1="334.77" y1="73.87809561812604" x2="334.77" y2="74.69212160510762" stroke="#1f77b4" stroke-width="1"/>
  <line x1="331.865" y1="73.87809561812604" x2="337.67499999999995" y2="73.87809561812604" stroke="#1f77b4" stroke-width="1"/>
  <line x1="331.865" y1="74.69212160510762" x2="337.67499999999995" y2="74.69212160510762" stroke="#1f77b4" stroke-width="1"/>
  <rect x="327.3" y="74.14943761378657" width="14.939999999999998" height="0.27134199566052075" fill="#1f77b4" fill-opacity="0.35" stroke="#1f77b4" stroke-width="1"/>
  <line x1="327.3" y1="74.4207796094471" x2="342.24" y2="74.4207796094471" stroke="#1f77b4" stroke-width="2"/>
  <line x1="417.77" y1="73.335411626805" x2="417.77" y2="73.87809561812604" stroke="#1f77b4" stroke-width="1"/>
  <line x1="414.865" y1="73.335411626805" x2="420.67499999999995" y2="73.335411626805" stroke="#1f77b4" stroke-width="1"/>
  <line x1="414.865" y1="73.87809561812604" x2="420.67499999999995" y2="73.87809561812604" stroke="#1f77b4" stroke-width="1"/>
  <rect x="410.3" y="73.60675362246552" width="14.939999999999998" height="0.27134199566052075" fill="#1f77b4" fill-opacity="0.35" stroke="#1f77b4" stroke-width="1"/>
  <line x1="410.3" y1="73.60675362246552" x2="425.24" y2="73.60675362246552" stroke="#1f77b4" stroke-width="2"/>
  <line x1="500.77" y1="72.79272763548396" x2="500.77" y2="73.335411626805" stroke="#1f77b4" stroke-width="1"/>
  <line x1="497.865" y1="72.79272763548396" x2="503.67499999999995" y2="72.79272763548396" stroke="#1f77b4" stroke-width="1"/>
  <line x1="497.865" y1="73.335411626805" x2="503.67499999999995" y2="73.335411626805" stroke="#1f77b4" stroke-width="1"/>
  <rect x="493.3" y="73.06406963114448" width="14.939999999999998" height="0.27134199566052075" fill="#1f77b4" fill-opacity="0.35" stroke="#1f77b4" stroke-width="1"/>
  <line x1="493.3" y1="73.06406963114448" x2="508.24" y2="73.06406963114448" stroke="#1f77b4" stroke-width="2"/>
  <line x1="583.77" y1="71.16467566152082" x2="583.77" y2="72.79272763548396" stroke="#1f77b4" stroke-width="1"/>
  <line x1="580.865" y1="71.16467566152082" x2="586.675" y2="71.16467566152082" stroke="#1f77b4" stroke-width="1"/>
  <line x1="580.865" y1="72.79272763548396" x2="586.675" y2="72.79272763548396" stroke="#1f77b4" stroke-width="1"/>
  <rect x="576.3" y="71.70735965284186" width="14.940000000000055" height="0.4748484924059113" fill="#1f77b4" fill-opacity="0.35" stroke="#1f77b4" stroke-width="1"/>
  <line x1="576.3" y1="71.97870164850238" x2="591.24" y2="71.97870164850238" stroke="#1f77b4" stroke-width="2"/>
  <line x1="666.77" y1="67.90857171359454" x2="666.77" y2="71.16467566152082" stroke="#1f77b4" stroke-width="1"/>
  <line x1="663.865" y1="67.90857171359454" x2="669.675" y2="67.90857171359454" stroke="#1f77b4" stroke-width="1"/>
  <line x1="663.865" y1="71.16467566152082" x2="669.675" y2="71.16467566152082" stroke="#1f77b4" stroke-width="1"/>
  <rect x="659.3" y="68.7225977005761" width="14.940000000000055" height="1.8993939696236595" fill="#1f77b4" fill-opacity="0.35" stroke="#1f77b4" stroke-width="1"/>
  <line x1="659.3" y1="69.53662368755766" x2="674.24" y2="69.53662368755766" stroke="#1f77b4" stroke-width="2"/>
  <line x1="749.77" y1="62.46477292565528" x2="749.77" y2="65.23754894381126" stroke="#1f77b4" stroke-width="1"/>
  <line x1="746.865" y1="62.46477292565528" x2="752.675" y2="62.46477292565528" stroke="#1f77b4" stroke-width="1"/>
  <line x1="746.865" y1="65.23754894381126" x2="752.675" y2="65.23754894381126" stroke="#1f77b4" stroke-width="1"/>
  <rect x="742.3" y="63.16856622689977" width="14.940000000000055" height="0.9157792353542646" fill="#1f77b4" fill-opacity="0.35" stroke="#1f77b4" stroke-width="1"/>
  <line x1="742.3" y1="63.338154974187596" x2="757.24" y2="63.338154974187596" stroke="#1f77b4" stroke-width="2"/>
  <line x1="832.77" y1="50.0" x2="832.77" y2="55.82537346933686" stroke="#1f77b4" stroke-width="1"/>
  <line x1="829.865" y1="50.0" x2="835.675" y2="50.0" stroke="#1f77b4" stroke-width="1"/>
  <line x1="829.865" y1="55.82537346933686" x2="835.675" y2="55.82537346933686" stroke="#1f77b4" stroke-width="1"/>
  <rect x="825.3" y="50.0" width="14.940000000000055" height="2.408160211487143" fill="#1f77b4" fill-opacity="0.35" stroke="#1f77b4" stroke-width="1"/>
  <line x1="825.3" y1="50.67835498915131" x2="840.24" y2="50.67835498915131" stroke="#1f77b4" stroke-width="2"/>
  <line x1="102.37" y1="384.06439384492603" x2="102.37" y2="384.06439384492603" stroke="#ff7f0e" stroke-width="1"/>
  <line x1="99.465" y1="384.06439384492603" x2="105.275" y2="384.06439384492603" stroke="#ff7f0e" stroke-width="1"/>
  <line x1="99.465" y1="384.06439384492603" x2="105.275" y2="384.06439384492603" stroke="#ff7f0e" stroke-width="1"/>
  <rect x="94.9" y="384.06439384492603" width="14.939999999999998" height="0.0" fill="#ff7f0e" fill-opacity="0.35" stroke="#ff7f0e" stroke-width="1"/>
  <line x1="94.9" y1="384.06439384492603" x2="109.84" y2="384.06439384492603" stroke="#ff7f0e" stroke-width="2"/>
  <line x1="185.37" y1="384.06439384492603" x2="185.37" y2="384.06439384492603" stroke="#ff7f0e" stroke-width="1"/>
  <line x1="182.465" y1="384.06439384492603" x2="188.275" y2="384.06439384492603" stroke="#ff7f0e" stroke-width="1"/>
  <line x1="182.465" y1="384.06439384492603" x2="188.275" y2="384.06439384492603" stroke="#ff7f0e" stroke-width="1"/>
  <rect x="177.9" y="384.06439384492603" width="14.939999999999998" height="0.0" fill="#ff7f0e" fill-opacity="0.35" stroke="#ff7f0e" stroke-width="1"/>
  <line x1="177.9" y1="384.06439384492603" x2="192.84" y2="384.06439384492603" stroke="#ff7f0e" stroke-width="2"/>
  <line x1="268.37" y1="384.06439384492603" x2="268.37" y2="384.06439384492603" stroke="#ff7f0e" stroke-width="1"/>
  <line x1="265.46500000000003" y1="384.06439384492603" x2="271.275" y2="384.06439384492603" stroke="#ff7f0e" stroke-width="1"/>
  <line x1="265.46500000000003" y1="384.06439384492603" x2="271.275" y2="384.06439384492603" stroke="#ff7f0e" stroke-width="1"/>
  <rect x="260.90000000000003" y="384.06439384492603" width="14.939999999999998" height="0.0" fill="#ff7f0e" fill-opacity="0.35" stroke="#ff7f0e" stroke-width="1"/>
  <line x1="260.90000000000003" y1="384.06439384492603" x2="275.84000000000003" y2="384.06439384492603" stroke="#ff7f0e" stroke-width="2"/>
  <line x1="351.37" y1="384.06439384492603" x2="351.37" y2="384.06439384492603" stroke="#ff7f0e" stroke-width="1"/>
  <line x1="348.46500000000003" y1="384.06439384492603" x2="354.275" y2="384.06439384492603" stroke="#ff7f0e" stroke-width="1"/>
  <line x1="348.46500000000003" y1="384.06439384492603" x2="354.275" y2="384.06439384492603" stroke="#ff7f0e" stroke-width="1"/>
  <rect x="343.90000000000003" y="384.06439384492603" width="14.939999999999998" height="0.0" fill="#ff7f0e" fill-opacity="0.35" stroke="#ff7f0e" stroke-width="1"/>
  <line x1="343.90000000000003" y1="384.06439384492603" x2="358.84000000000003" y2="384.06439384492603" stroke="#ff7f0e" stroke-width="2"/>
  <line x1="434.37" y1="384.06439384492603" x2="434.37" y2="384.06439384492603" stroke="#ff7f0e" stroke-width="1"/>
  <line x1="431.46500000000003" y1="384.06439384492603" x2="437.275" y2="384.06439384492603" stroke="#ff7f0e" stroke-width="1"/>
  <line x1="431.46500000000003" y1="384.06439384492603" x2="437.275" y2="384.06439384492603" stroke="#ff7f0e" stroke-width="1"/>
  <rect x="426.90000000000003" y="384.06439384492603" width="14.939999999999998" height="0.0" fill="#ff7f0e" fill-opacity="0.35" stroke="#ff7f0e" stroke-width="1"/>
  <line x1="426.90000000000003" y1="384.06439384492603" x2="441.84000000000003" y2="384.06439384492603" stroke="#ff7f0e" stroke-width="2"/>
  <line x1="517.37" y1="384.06439384492603" x2="517.37" y2="384.06439384492603" stroke="#ff7f0e" stroke-width="1"/>
  <line x1="514.465" y1="384.06439384492603" x2="520.275" y2="384.06439384492603" stroke="#ff7f0e" stroke-width="1"/>
  <line x1="514.465" y1="384.06439384492603" x2="520.275" y2="384.06439384492603" stroke="#ff7f0e" stroke-width="1"/>
  <rect x="509.90000000000003" y="384.06439384492603" width="14.939999999999998" height="0.0" fill="#ff7f0e" fill-opacity="0.35" stroke="#ff7f0e" stroke-width="1"/>
  <line x1="509.90000000000003" y1="384.06439384492603" x2="524.84" y2="384.06439384492603" stroke="#ff7f0e" stroke-width="2"/>
  <line x1="600.37" y1="384.06439384492603" x2="600.37" y2="384.06439384492603" stroke="#ff7f0e" stroke-width="1"/>
  <line x1="597.465" y1="384.06439384492603" x2="603.275" y2="384.06439384492603" stroke="#ff7f0e" stroke-width="1"/>
  <line x1="597.465" y1="384.06439384492603" x2="603.275" y2="384.06439384492603" stroke="#ff7f0e" stroke-width="1"/>
  <rect x="592.9" y="384.06439384492603" width="14.940000000000055" height="0.0" fill="#ff7f0e" fill-opacity="0.35" stroke="#ff7f0e" stroke-width="1"/>
  <line x1="592.9" y1="384.06439384492603" x2="607.84" y2="384.06439384492603" stroke="#ff7f0e" stroke-width="2"/>
  <line x1="683.37" y1="384.06439384492603" x2="683.37" y2="384.06439384492603" stroke="#ff7f0e" stroke-width="1"/>
  <line x1="680.465" y1="384.06439384492603" x2="686.275" y2="384.06439384492603" stroke="#ff7f0e" stroke-width="1"/>
  <line x1="680.465" y1="384.06439384492603" x2="686.275" y2="384.06439384492603" stroke="#ff7f0e" stroke-width="1"/>
  <rect x="675.9" y="384.06439384492603" width="14.940000000000055" height="0.0" fill="#ff7f0e" fill-opacity="0.35" stroke="#ff7f0e" stroke-width="1"/>
  <line x1="675.9" y1="384.06439384492603" x2="690.84" y2="384.06439384492603" stroke="#ff7f0e" stroke-width="2"/>
  <line x1="766.37" y1="384.06439384492603" x2="766.37" y2="384.6325161483403" stroke="#ff7f0e" stroke-width="1"/>
  <line x1="763.465" y1="384.06439384492603" x2="769.275" y2="384.06439384492603" stroke="#ff7f0e" stroke-width="1"/>
  <line x1="763.465" y1="384.6325161483403" x2="769.275" y2="384.6325161483403" stroke="#ff7f0e" stroke-width="1"/>
  <rect x="758.9" y="384.06439384492603" width="14.940000000000055" height="0.5681223034142704" fill="#ff7f0e" fill-opacity="0.35" stroke="#ff7f0e" stroke-width="1"/>
  <line x1="758.9" y1="384.06439384492603" x2="773.84" y2="384.06439384492603" stroke="#ff7f0e" stroke-width="2"/>
  <line x1="849.37" y1="387.18482679502205" x2="849.37" y2="390.0" stroke="#ff7f0e" stroke-width="1"/>
  <line x1="846.465" y1="387.18482679502205" x2="852.275" y2="387.18482679502205" stroke="#ff7f0e" stroke-width="1"/>
  <line x1="846.465" y1="390.0" x2="852.275" y2="390.0" stroke="#ff7f0e" stroke-width="1"/>
  <rect x="841.9" y="388.2807940743697" width="14.940000000000055" height="0.8013068309349478" fill="#ff7f0e" fill-opacity="0.35" stroke="#ff7f0e" stroke-width="1"/>
  <line x1="841.9" y1="388.65600917774395" x2="856.84" y2="388.65600917774395" stroke="#ff7f0e" stroke-width="2"/>
  <line x1="118.97" y1="254.04070129934908" x2="118.97" y2="254.04070129934908" stroke="#2ca02c" stroke-width="1"/>
  <line x1="116.065" y1="254.04070129934908" x2="121.875" y2="254.04070129934908" stroke="#2ca02c" stroke-width="1"/>
  <line x1="116.065" y1="254.04070129934908" x2="121.875" y2="254.04070129934908" stroke="#2ca02c" stroke-width="1"/>
  <rect x="111.5" y="254.04070129934908" width="14.939999999999998" height="0.0" fill="#2ca02c" fill-opacity="0.35" stroke="#2ca02c" stroke-width="1"/>
  <line x1="111.5" y1="254.04070129934908" x2="126.44" y2="254.04070129934908" stroke="#2ca02c" stroke-width="2"/>
  <line x1="201.97" y1="254.04070129934908" x2="201.97" y2="254.04070129934908" stroke="#2ca02c" stroke-width="1"/>
  <line x1="199.065" y1="254.04070129934908" x2="204.875" y2="254.04070129934908" stroke="#2ca02c" stroke-width="1"/>
  <line x1="199.065" y1="254.04070129934908" x2="204.875" y2="254.04070129934908" stroke="#2ca02c" stroke-width="1"/>
  <rect x="194.5" y="254.04070129934908" width="14.939999999999998" height="0.0" fill="#2ca02c" fill-opacity="0.35" stroke="#2ca02c" stroke-width="1"/>
  <line x1="194.5" y1="254.04070129934908" x2="209.44" y2="254.04070129934908" stroke="#2ca02c" stroke-width="2"/>
  <line x1="284.97" y1="254.04070129934908" x2="284.97" y2="254.3120432950096" stroke="#2ca02c" stroke-width="1"/>
  <line x1="282.06500000000005" y1="254.04070129934908" x2="287.875" y2="254.04070129934908" stroke="#2ca02c" stroke-width="1"/>
  <line x1="282.06500000000005" y1="254.3120432950096" x2="287.875" y2="254.3120432950096" stroke="#2ca02c" stroke-width="1"/>
  <rect x="277.5" y="254.04070129934908" width="14.939999999999998" height="0.27134199566052075" fill="#2ca02c" fill-opacity="0.35" stroke="#2ca02c" stroke-width="1"/>
  <line x1="277.5" y1="254.3120432950096" x2="292.44" y2="254.3120432950096" stroke="#2ca02c" stroke-width="2"/>
  <line x1="367.97" y1="254.3120432950096" x2="367.97" y2="254.3120432950096" stroke="#2ca02c" stroke-width="1"/>
  <line x1="365.06500000000005" y1="254.3120432950096" x2="370.875" y2="254.3120432950096" stroke="#2ca02c" stroke-width="1"/>
  <line x1="365.06500000000005" y1="254.3120432950096" x2="370.875" y2="254.3120432950096" stroke="#2ca02c" stroke-width="1"/>
  <rect x="360.5" y="254.3120432950096" width="14.939999999999998" height="0.0" fill="#2ca02c" fill-opacity="0.35" stroke="#2ca02c" stroke-width="1"/>
  <line x1="360.5" y1="254.3120432950096" x2="375.44" y2="254.3120432950096" stroke="#2ca02c" stroke-width="2"/>
  <line x1="450.97" y1="254.3120432950096" x2="450.97" y2="254.3120432950096" stroke="#2ca02c" stroke-width="1"/>
  <line x1="448.06500000000005" y1="254.3120432950096" x2="453.875" y2="254.3120432950096" stroke="#2ca02c" stroke-width="1"/>
  <line x1="448.06500000000005" y1="254.3120432950096" x2="453.875" y2="254.3120432950096" stroke="#2ca02c" stroke-width="1"/>
  <rect x="443.5" y="254.3120432950096" width="14.939999999999998" height="0.0" fill="#2ca02c" fill-opacity="0.35" stroke="#2ca02c" stroke-width="1"/>
  <line x1="443.5" y1="254.3120432950096" x2="458.44" y2="254.3120432950096" stroke="#2ca02c" stroke-width="2"/>
  <line x1="533.97" y1="254.3120432950096" x2="533.97" y2="254.3120432950096" stroke="#2ca02c" stroke-width="1"/>
  <line x1="531.065" y1="254.3120432950096" x2="536.875" y2="254.3120432950096" stroke="#2ca02c" stroke-width="1"/>
  <line x1="531.065" y1="254.3120432950096" x2="536.875" y2="254.3120432950096" stroke="#2ca02c" stroke-width="1"/>
  <rect x="526.5" y="254.3120432950096" width="14.940000000000055" height="0.0" fill="#2ca02c" fill-opacity="0.35" stroke="#2ca02c" stroke-width="1"/>
  <line x1="526.5" y1="254.3120432950096" x2="541.44" y2="254.3120432950096" stroke="#2ca02c" stroke-width="2"/>
  <line x1="616.97" y1="254.3120432950096" x2="616.97" y2="254.3120432950096" stroke="#2ca02c" stroke-width="1"/>
  <line x1="614.065" y1="254.3120432950096" x2="619.875" y2="254.3120432950096" stroke="#2ca02c" stroke-width="1"/>
  <line x1="614.065" y1="254.3120432950096" x2="619.875" y2="254.3120432950096" stroke="#2ca02c" stroke-width="1"/>
  <rect x="609.5" y="254.3120432950096" width="14.940000000000055" height="0.0" fill="#2ca02c" fill-opacity="0.35" stroke="#2ca02c" stroke-width="1"/>
  <line x1="609.5" y1="254.3120432950096" x2="624.44" y2="254.3120432950096" stroke="#2ca02c" stroke-width="2"/>
  <line x1="699.97" y1="254.3120432950096" x2="699.97" y2="254.3120432950096" stroke="#2ca02c" stroke-width="1"/>
  <line x1="697.065" y1="254.3120432950096" x2="702.875" y2="254.3120432950096" stroke="#2ca02c" stroke-width="1"/>
  <line x1="697.065" y1="254.3120432950096" x2="702.875" y2="254.3120432950096" stroke="#2ca02c" stroke-width="1"/>
  <rect x="692.5" y="254.3120432950096" width="14.940000000000055" height="0.0" fill="#2ca02c" fill-opacity="0.35" stroke="#2ca02c" stroke-width="1"/>
  <line x1="692.5" y1="254.3120432950096" x2="707.44" y2="254.3120432950096" stroke="#2ca02c" stroke-width="2"/>
  <line x1="782.97" y1="252.955333316707" x2="782.97" y2="261.8248247998604" stroke="#2ca02c" stroke-width="1"/>
  <line x1="780.065" y1="252.955333316707" x2="785.875" y2="252.955333316707" stroke="#2ca02c" stroke-width="1"/>
  <line x1="780.065" y1="261.8248247998604" x2="785.875" y2="261.8248247998604" stroke="#2ca02c" stroke-width="1"/>
  <rect x="775.5" y="257.48335286929193" width="14.940000000000055" height="4.341471930568446" fill="#2ca02c" fill-opacity="0.35" stroke="#2ca02c" stroke-width="1"/>
  <line x1="775.5" y1="261.8248247998604" x2="790.44" y2="261.8248247998604" stroke="#2ca02c" stroke-width="2"/>
  <line x1="865.97" y1="213.93296256577798" x2="865.97" y2="215.0013716736913" stroke="#2ca02c" stroke-width="1"/>
  <line x1="863.065" y1="213.93296256577798" x2="868.875" y2="213.93296256577798" stroke="#2ca02c" stroke-width="1"/>
  <line x1="863.065" y1="215.0013716736913" x2="868.875" y2="215.0013716736913" stroke="#2ca02c" stroke-width="1"/>
  <rect x="858.5" y="214.28909893508242" width="14.940000000000055" height="0.30525974511809295" fill="#2ca02c" fill-opacity="0.35" stroke="#2ca02c" stroke-width="1"/>
  <line x1="858.5" y1="214.56044093074294" x2="873.44" y2="214.56044093074294" stroke="#2ca02c" stroke-width="2"/>
  <line x1="135.57" y1="273.7893109210165" x2="135.57" y2="274.0606529166771" stroke="#d62728" stroke-width="1"/>
  <line x1="132.665" y1="273.7893109210165" x2="138.475" y2="273.7893109210165" stroke="#d62728" stroke-width="1"/>
  <line x1="132.665" y1="274.0606529166771" x2="138.475" y2="274.0606529166771" stroke="#d62728" stroke-width="1"/>
  <rect x="128.1" y="273.85714641993167" width="14.939999999999998" height="0.2035064967454332" fill="#d62728" fill-opacity="0.35" stroke="#d62728" stroke-width="1"/>
  <line x1="128.1" y1="274.0606529166771" x2="143.04" y2="274.0606529166771" stroke="#d62728" stroke-width="2"/>
  <line x1="218.57000000000002" y1="272.7717784372896" x2="218.57000000000002" y2="273.58580442427115" stroke="#d62728" stroke-width="1"/>
  <line x1="215.66500000000002" y1="272.7717784372896" x2="221.47500000000002" y2="272.7717784372896" stroke="#d62728" stroke-width="1"/>
  <line x1="215.66500000000002" y1="273.58580442427115" x2="221.47500000000002" y2="273.58580442427115" stroke="#d62728" stroke-width="1"/>
  <rect x="211.10000000000002" y="273.17031199341596" width="14.939999999999998" height="0.3646158066688372" fill="#d62728" fill-opacity="0.35" stroke="#d62728" stroke-width="1"/>
  <line x1="211.10000000000002" y1="273.3780582088435" x2="226.04000000000002" y2="273.3780582088435" stroke="#d62728" stroke-width="2"/>
  <line x1="301.57000000000005" y1="271.2454797116991" x2="301.57000000000005" y2="273.49253061326283" stroke="#d62728" stroke-width="1"/>
  <line x1="298.6650000000001" y1="271.2454797116991" x2="304.475" y2="271.2454797116991" stroke="#d62728" stroke-width="1"/>
  <line x1="298.6650000000001" y1="273.49253061326283" x2="304.475" y2="273.49253061326283" stroke="#d62728" stroke-width="1"/>
  <rect x="294.1" y="272.47287827019477" width="14.939999999999998" height="1.0111729057036882" fill="#d62728" fill-opacity="0.35" stroke="#d62728" stroke-width="1"/>
  <line x1="294.1" y1="273.34838017806817" x2="309.04" y2="273.34838017806817" stroke="#d62728" stroke-width="2"/>
  <line x1="384.57000000000005" y1="272.70394293837444" x2="384.57000000000005" y2="273.01768212085693" stroke="#d62728" stroke-width="1"/>
  <line x1="381.6650000000001" y1="272.70394293837444" x2="387.475" y2="272.70394293837444" stroke="#d62728" stroke-width="1"/>
  <line x1="381.6650000000001" y1="273.01768212085693" x2="387.475" y2="273.01768212085693" stroke="#d62728" stroke-width="1"/>
  <rect x="377.1" y="272.80357632740606" width="14.939999999999998" height="0.21410579345086944" fill="#d62728" fill-opacity="0.35" stroke="#d62728" stroke-width="1"/>
  <line x1="377.1" y1="273.01768212085693" x2="392.04" y2="273.01768212085693" stroke="#d62728" stroke-width="2"/>
  <line x1="467.57000000000005" y1="272.0849440107739" x2="467.57000000000005" y2="272.89896999775544" stroke="#d62728" stroke-width="1"/>
  <line x1="464.6650000000001" y1="272.0849440107739" x2="470.475" y2="272.0849440107739" stroke="#d62728" stroke-width="1"/>
  <line x1="464.6650000000001" y1="272.89896999775544" x2="470.475" y2="272.89896999775544" stroke="#d62728" stroke-width="1"/>
  <rect x="460.1" y="272.3562860064344" width="14.939999999999998" height="0.27134199566052075" fill="#d62728" fill-opacity="0.35" stroke="#d62728" stroke-width="1"/>
  <line x1="460.1" y1="272.60218969000175" x2="475.04" y2="272.60218969000175" stroke="#d62728" stroke-width="2"/>
  <line x1="550.57" y1="268.02329351323044" x2="550.57" y2="272.09342344813825" stroke="#d62728" stroke-width="1"/>
  <line x1="547.6650000000001" y1="268.02329351323044" x2="553.475" y2="268.02329351323044" stroke="#d62728" stroke-width="1"/>
  <line x1="547.6650000000001" y1="272.09342344813825" x2="553.475" y2="272.09342344813825" stroke="#d62728" stroke-width="1"/>
  <rect x="543.1" y="269.24433249370276" width="14.940000000000055" height="2.5777489587749756" fill="#d62728" fill-opacity="0.35" stroke="#d62728" stroke-width="1"/>
  <line x1="543.1" y1="271.00805546549617" x2="558.0400000000001" y2="271.00805546549617" stroke="#d62728" stroke-width="2"/>
  <line x1="633.5699999999999" y1="261.6128388657505" x2="633.5699999999999" y2="268.02329351323044" stroke="#d62728" stroke-width="1"/>
  <line x1="630.665" y1="261.6128388657505" x2="636.4749999999999" y2="261.6128388657505" stroke="#d62728" stroke-width="1"/>
  <line x1="630.665" y1="268.02329351323044" x2="636.4749999999999" y2="268.02329351323044" stroke="#d62728" stroke-width="1"/>
  <rect x="626.0999999999999" y="264.25842332344064" width="14.940000000000055" height="2.196174277377395" fill="#d62728" fill-opacity="0.35" stroke="#d62728" stroke-width="1"/>
  <line x1="626.0999999999999" y1="265.4116268049979" x2="641.04" y2="265.4116268049979" stroke="#d62728" stroke-width="2"/>
  <line x1="716.5699999999999" y1="247.7319999002419" x2="716.5699999999999" y2="259.71344489612693" stroke="#d62728" stroke-width="1"/>
  <line x1="713.665" y1="247.7319999002419" x2="719.4749999999999" y2="247.7319999002419" stroke="#d62728" stroke-width="1"/>
  <line x1="713.665" y1="259.71344489612693" x2="719.4749999999999" y2="259.71344489612693" stroke="#d62728" stroke-width="1"/>
  <rect x="709.0999999999999" y="252.61615582213133" width="14.940000000000055" height="3.476569319400454" fill="#d62728" fill-opacity="0.35" stroke="#d62728" stroke-width="1"/>
  <line x1="709.0999999999999" y1="254.2102900466369" x2="724.04" y2="254.2102900466369" stroke="#d62728" stroke-width="2"/>
  <line x1="799.5699999999999" y1="189.9022370750929" x2="799.5699999999999" y2="239.14232985011347" stroke="#d62728" stroke-width="1"/>
  <line x1="796.665" y1="189.9022370750929" x2="802.4749999999999" y2="189.9022370750929" stroke="#d62728" stroke-width="1"/>
  <line x1="796.665" y1="239.14232985011347" x2="802.4749999999999" y2="239.14232985011347" stroke="#d62728" stroke-width="1"/>
  <rect x="792.0999999999999" y="190.7650198269197" width="14.940000000000055" height="22.184328004588878" fill="#d62728" fill-opacity="0.35" stroke="#d62728" stroke-width="1"/>
  <line x1="792.0999999999999" y1="195.65977504551464" x2="807.04" y2="195.65977504551464" stroke="#d62728" stroke-width="2"/>
  <line x1="882.5699999999999" y1="173.3588547771654" x2="882.5699999999999" y2="174.5035788213582" stroke="#d62728" stroke-width="1"/>
  <line x1="879.665" y1="173.3588547771654" x2="885.4749999999999" y2="173.3588547771654" stroke="#d62728" stroke-width="1"/>
  <line x1="879.665" y1="174.5035788213582" x2="885.4749999999999" y2="174.5035788213582" stroke="#d62728" stroke-width="1"/>
  <rect x="875.0999999999999" y="173.83582312891238" width="14.940000000000055" height="0.3412973539167581" fill="#d62728" fill-opacity="0.35" stroke="#d62728" stroke-width="1"/>
  <line x1="875.0999999999999" y1="173.99481257949472" x2="890.04" y2="173.99481257949472" stroke="#d62728" stroke-width="2"/>
  <text x="918" y="62" font-family="system-ui, -apple-system" font-size="12" font-weight="600">handlers</text>
  <line x1="918" y1="76" x2="936" y2="76" stroke="#1f77b4" stroke-width="6" stroke-linecap="round" opacity="0.6"/>
  <text x="944" y="80" font-family="system-ui, -apple-system" font-size="12">ruby</text>
  <line x1="918" y1="94" x2="936" y2="94" stroke="#ff7f0e" stroke-width="6" stroke-linecap="round" opacity="0.6"/>
  <text x="944" y="98" font-family="system-ui, -apple-system" font-size="12">go</text>
  <line x1="918" y1="112" x2="936" y2="112" stroke="#2ca02c" stroke-width="6" stroke-linecap="round" opacity="0.6"/>
  <text x="944" y="116" font-family="system-ui, -apple-system" font-size="12">python</text>
  <line x1="918" y1="130" x2="936" y2="130" stroke="#d62728" stroke-width="6" stroke-linecap="round" opacity="0.6"/>
  <text x="944" y="134" font-family="system-ui, -apple-system" font-size="12">node</text>
</svg>
