<?xml version="1.0" encoding="UTF-8"?>
<svg xmlns="http://www.w3.org/2000/svg" width="1120" height="450" viewBox="0 0 1120 450">
  <rect x="0" y="0" width="1120" height="450" fill="white"/>
  <text x="560" y="24" text-anchor="middle" font-family="system-ui, -apple-system" font-size="16">Duration by page size (raw runs)</text>
  <line x1="70" y1="390" x2="900" y2="390" stroke="#111" stroke-width="1"/>
  <line x1="70" y1="50" x2="70" y2="390" stroke="#111" stroke-width="1"/>
  <line x1="66" y1="50.0" x2="70" y2="50.0" stroke="#111" stroke-width="1"/>
  <text x="62" y="54.0" text-anchor="end" font-family="system-ui, -apple-system" font-size="11">0.040</text>
  <line x1="66" y1="135.0" x2="70" y2="135.0" stroke="#111" stroke-width="1"/>
  <text x="62" y="139.0" text-anchor="end" font-family="system-ui, -apple-system" font-size="11">0.030</text>
  <line x1="70" y1="135.0" x2="900" y2="135.0" stroke="#eee" stroke-width="1"/>
  <line x1="66" y1="220.0" x2="70" y2="220.0" stroke="#111" stroke-width="1"/>
  <text x="62" y="224.0" text-anchor="end" font-family="system-ui, -apple-system" font-size="11">0.020</text>
  <line x1="70" y1="220.0" x2="900" y2="220.0" stroke="#eee" stroke-width="1"/>
  <line x1="66" y1="305.0" x2="70" y2="305.0" stroke="#111" stroke-width="1"/>
  <text x="62" y="309.0" text-anchor="end" font-family="system-ui, -apple-system" font-size="11">0.0100</text>
  <line x1="70" y1="305.0" x2="900" y2="305.0" stroke="#eee" stroke-width="1"/>
  <line x1="66" y1="390.0" x2="70" y2="390.0" stroke="#111" stroke-width="1"/>
  <text x="62" y="394.0" text-anchor="end" font-family="system-ui, -apple-system" font-size="11">0.0000</text>
  <text x="485" y="432" text-anchor="middle" font-family="system-ui, -apple-system" font-size="12">per_page</text>
  <text x="18" y="220" text-anchor="middle" font-family="system-ui, -apple-system" font-size="12" transform="rotate(-90 18 220)">Duration (seconds)</text>
  <text x="111.5" y="410" text-anchor="middle" font-family="system-ui, -apple-system" font-size="11">1</text>
  <text x="194.5" y="410" text-anchor="middle" font-family="system-ui, -apple-system" font-size="11">10</text>
  <text x="277.5" y="410" text-anchor="middle" font-family="system-ui, -apple-system" font-size="11">25</text>
  <text x="360.5" y="410" text-anchor="middle" font-family="system-ui, -apple-system" font-size="11">50</text>
  <text x="443.5" y="410" text-anchor="middle" font-family="system-ui, -apple-system" font-size="11">100</text>
  <text x="526.5" y="410" text-anchor="middle" font-family="system-ui, -apple-system" font-size="11">250</text>
  <text x="609.5" y="410" text-anchor="middle" font-family="system-ui, -apple-system" font-size="11">500</text>
  <text x="692.5" y="410" text-anchor="middle" font-family="system-ui, -apple-system" font-size="11">1000</text>
  <text x="775.5" y="410" text-anchor="middle" font-family="system-ui, -apple-system" font-size="11">10000</text>
  <text x="858.5" y="410" text-anchor="middle" font-family="system-ui, -apple-system" font-size="11">100000</text>
  <line x1="85.77" y1="389.95737639153543" x2="85.77" y2="389.9829505566141" stroke="#1f77b4" stroke-width="1"/>
  <line x1="82.865" y1="389.95737639153543" x2="88.675" y2="389.95737639153543" stroke="#1f77b4" stroke-width="1"/>
  <line x1="82.865" y1="389.9829505566141" x2="88.675" y2="389.9829505566141" stroke="#1f77b4" stroke-width="1"/>
  <rect x="78.3" y="389.96590111322837" width="14.939999999999998" height="0.008524721692879211" fill="#1f77b4" fill-opacity="0.35" stroke="#1f77b4" stroke-width="1"/>
  <line x1="78.3" y1="389.96590111322837" x2="93.24" y2="389.96590111322837" stroke="#1f77b4" stroke-width="2"/>
  <line x1="168.77" y1="389.9403269481496" x2="168.77" y2="389.96590111322837" stroke="#1f77b4" stroke-width="1"/>
  <line x1="165.865" y1="389.9403269481496" x2="171.675" y2="389.9403269481496" stroke="#1f77b4" stroke-width="1"/>
  <line x1="165.865" y1="389.96590111322837" x2="171.675" y2="389.96590111322837" stroke="#1f77b4" stroke-width="1"/>
  <rect x="161.3" y="389.94885166984255" width="14.939999999999998" height="0.008524721692879211" fill="#1f77b4" fill-opacity="0.35" stroke="#1f77b4" stroke-width="1"/>
  <line x1="161.3" y1="389.95737639153543" x2="176.24" y2="389.95737639153543" stroke="#1f77b4" stroke-width="2"/>
  <line x1="251.77" y1="389.9232775047638" x2="251.77" y2="389.94885166984255" stroke="#1f77b4" stroke-width="1"/>
  <line x1="248.865" y1="389.9232775047638" x2="254.675" y2="389.9232775047638" stroke="#1f77b4" stroke-width="1"/>
  <line x1="248.865" y1="389.94885166984255" x2="254.675" y2="389.94885166984255" stroke="#1f77b4" stroke-width="1"/>
  <rect x="244.3" y="389.93180222645674" width="14.939999999999998" height="0.008524721692879211" fill="#1f77b4" fill-opacity="0.35" stroke="#1f77b4" stroke-width="1"/>
  <line x1="244.3" y1="389.9403269481496" x2="259.24" y2="389.9403269481496" stroke="#1f77b4" stroke-width="2"/>
  <line x1="334.77" y1="389.8977033396851" x2="334.77" y2="389.9232775047638" stroke="#1f77b4" stroke-width="1"/>
  <line x1="331.865" y1="389.8977033396851" x2="337.67499999999995" y2="389.8977033396851" stroke="#1f77b4" stroke-width="1"/>
  <line x1="331.865" y1="389.9232775047638" x2="337.67499999999995" y2="389.9232775047638" stroke="#1f77b4" stroke-width="1"/>
  <rect x="327.3" y="389.90622806137804" width="14.939999999999998" height="0.008524721692822368" fill="#1f77b4" fill-opacity="0.35" stroke="#1f77b4" stroke-width="1"/>
  <line x1="327.3" y1="389.91475278307087" x2="342.24" y2="389.91475278307087" stroke="#1f77b4" stroke-width="2"/>
  <line x1="417.77" y1="389.8380302878347" x2="417.77" y2="389.8806538962993" stroke="#1f77b4" stroke-width="1"/>
  <line x1="414.865" y1="389.8380302878347" x2="420.67499999999995" y2="389.8380302878347" stroke="#1f77b4" stroke-width="1"/>
  <line x1="414.865" y1="389.8806538962993" x2="420.67499999999995" y2="389.8806538962993" stroke="#1f77b4" stroke-width="1"/>
  <rect x="410.3" y="389.8550797312205" width="14.939999999999998" height="0.01704944338587211" fill="#1f77b4" fill-opacity="0.35" stroke="#1f77b4" stroke-width="1"/>
  <line x1="410.3" y1="389.8636044529134" x2="425.24" y2="389.8636044529134" stroke="#1f77b4" stroke-width="2"/>
  <line x1="500.77" y1="389.6760605756694" x2="500.77" y2="389.71868418413396" stroke="#1f77b4" stroke-width="1"/>
  <line x1="497.865" y1="389.6760605756694" x2="503.67499999999995" y2="389.6760605756694" stroke="#1f77b4" stroke-width="1"/>
  <line x1="497.865" y1="389.71868418413396" x2="503.67499999999995" y2="389.71868418413396" stroke="#1f77b4" stroke-width="1"/>
  <rect x="493.3" y="389.69311001905527" width="14.939999999999998" height="0.017049443385815266" fill="#1f77b4" fill-opacity="0.35" stroke="#1f77b4" stroke-width="1"/>
  <line x1="493.3" y1="389.7016347407482" x2="508.24" y2="389.7016347407482" stroke="#1f77b4" stroke-width="2"/>
  <line x1="583.77" y1="389.3691705947247" x2="583.77" y2="389.3947447598034" stroke="#1f77b4" stroke-width="1"/>
  <line x1="580.865" y1="389.3691705947247" x2="586.675" y2="389.3691705947247" stroke="#1f77b4" stroke-width="1"/>
  <line x1="580.865" y1="389.3947447598034" x2="586.675" y2="389.3947447598034" stroke="#1f77b4" stroke-width="1"/>
  <rect x="576.3" y="389.37769531641766" width="14.940000000000055" height="0.008524721692822368" fill="#1f77b4" fill-opacity="0.35" stroke="#1f77b4" stroke-width="1"/>
  <line x1="576.3" y1="389.3862200381105" x2="591.24" y2="389.3862200381105" stroke="#1f77b4" stroke-width="2"/>
  <line x1="666.77" y1="388.584896198977" x2="666.77" y2="388.72981646775645" stroke="#1f77b4" stroke-width="1"/>
  <line x1="663.865" y1="388.584896198977" x2="669.675" y2="388.584896198977" stroke="#1f77b4" stroke-width="1"/>
  <line x1="663.865" y1="388.72981646775645" x2="669.675" y2="388.72981646775645" stroke="#1f77b4" stroke-width="1"/>
  <rect x="659.3" y="388.63817570955774" width="14.940000000000055" height="0.0745913148129489" fill="#1f77b4" fill-opacity="0.35" stroke="#1f77b4" stroke-width="1"/>
  <line x1="659.3" y1="388.67866813759906" x2="674.24" y2="388.67866813759906" stroke="#1f77b4" stroke-width="2"/>
  <line x1="749.77" y1="374.18664125965296" x2="749.77" y2="374.93681676862906" stroke="#1f77b4" stroke-width="1"/>
  <line x1="746.865" y1="374.18664125965296" x2="752.675" y2="374.18664125965296" stroke="#1f77b4" stroke-width="1"/>
  <line x1="746.865" y1="374.93681676862906" x2="752.675" y2="374.93681676862906" stroke="#1f77b4" stroke-width="1"/>
  <rect x="742.3" y="374.4935312405977" width="14.940000000000055" height="0.23016748570859136" fill="#1f77b4" fill-opacity="0.35" stroke="#1f77b4" stroke-width="1"/>
  <line x1="742.3" y1="374.61713970514495" x2="757.24" y2="374.61713970514495" stroke="#1f77b4" stroke-width="2"/>
  <line x1="832.77" y1="195.29535653394848" x2="832.77" y2="206.7952060976833" stroke="#1f77b4" stroke-width="1"/>
  <line x1="829.865" y1="195.29535653394848" x2="835.675" y2="195.29535653394848" stroke="#1f77b4" stroke-width="1"/>
  <line x1="829.865" y1="206.7952060976833" x2="835.675" y2="206.7952060976833" stroke="#1f77b4" stroke-width="1"/>
  <rect x="825.3" y="200.68298064386724" width="14.940000000000055" height="3.616613178216852" fill="#1f77b4" fill-opacity="0.35" stroke="#1f77b4" stroke-width="1"/>
  <line x1="825.3" y1="202.70333968508677" x2="840.24" y2="202.70333968508677" stroke="#1f77b4" stroke-width="2"/>
  <line x1="102.37" y1="389.9829505566141" x2="102.37" y2="390.0" stroke="#ff7f0e" stroke-width="1"/>
  <line x1="99.465" y1="389.9829505566141" x2="105.275" y2="389.9829505566141" stroke="#ff7f0e" stroke-width="1"/>
  <line x1="99.465" y1="390.0" x2="105.275" y2="390.0" stroke="#ff7f0e" stroke-width="1"/>
  <rect x="94.9" y="389.9914752783071" width="14.939999999999998" height="0.008524721692879211" fill="#ff7f0e" fill-opacity="0.35" stroke="#ff7f0e" stroke-width="1"/>
  <line x1="94.9" y1="390.0" x2="109.84" y2="390.0" stroke="#ff7f0e" stroke-width="2"/>
  <line x1="185.37" y1="390.0" x2="185.37" y2="390.0" stroke="#ff7f0e" stroke-width="1"/>
  <line x1="182.465" y1="390.0" x2="188.275" y2="390.0" stroke="#ff7f0e" stroke-width="1"/>
  <line x1="182.465" y1="390.0" x2="188.275" y2="390.0" stroke="#ff7f0e" stroke-width="1"/>
  <rect x="177.9" y="390.0" width="14.939999999999998" height="0.0" fill="#ff7f0e" fill-opacity="0.35" stroke="#ff7f0e" stroke-width="1"/>
  <line x1="177.9" y1="390.0" x2="192.84" y2="390.0" stroke="#ff7f0e" stroke-width="2"/>
  <line x1="268.37" y1="389.9914752783071" x2="268.37" y2="389.9914752783071" stroke="#ff7f0e" stroke-width="1"/>
  <line x1="265.46500000000003" y1="389.9914752783071" x2="271.275" y2="389.9914752783071" stroke="#ff7f0e" stroke-width="1"/>
  <line x1="265.46500000000003" y1="389.9914752783071" x2="271.275" y2="389.9914752783071" stroke="#ff7f0e" stroke-width="1"/>
  <rect x="260.90000000000003" y="389.9914752783071" width="14.939999999999998" height="0.0" fill="#ff7f0e" fill-opacity="0.35" stroke="#ff7f0e" stroke-width="1"/>
  <line x1="260.90000000000003" y1="389.9914752783071" x2="275.84000000000003" y2="389.9914752783071" stroke="#ff7f0e" stroke-width="2"/>
  <line x1="351.37" y1="389.9829505566141" x2="351.37" y2="389.9829505566141" stroke="#ff7f0e" stroke-width="1"/>
  <line x1="348.46500000000003" y1="389.9829505566141" x2="354.275" y2="389.9829505566141" stroke="#ff7f0e" stroke-width="1"/>
  <line x1="348.46500000000003" y1="389.9829505566141" x2="354.275" y2="389.9829505566141" stroke="#ff7f0e" stroke-width="1"/>
  <rect x="343.90000000000003" y="389.9829505566141" width="14.939999999999998" height="0.0" fill="#ff7f0e" fill-opacity="0.35" stroke="#ff7f0e" stroke-width="1"/>
  <line x1="343.90000000000003" y1="389.9829505566141" x2="358.84000000000003" y2="389.9829505566141" stroke="#ff7f0e" stroke-width="2"/>
  <line x1="434.37" y1="389.93180222645674" x2="434.37" y2="389.9829505566141" stroke="#ff7f0e" stroke-width="1"/>
  <line x1="431.46500000000003" y1="389.93180222645674" x2="437.275" y2="389.93180222645674" stroke="#ff7f0e" stroke-width="1"/>
  <line x1="431.46500000000003" y1="389.9829505566141" x2="437.275" y2="389.9829505566141" stroke="#ff7f0e" stroke-width="1"/>
  <rect x="426.90000000000003" y="389.95737639153543" width="14.939999999999998" height="0.017049443385815266" fill="#ff7f0e" fill-opacity="0.35" stroke="#ff7f0e" stroke-width="1"/>
  <line x1="426.90000000000003" y1="389.96590111322837" x2="441.84000000000003" y2="389.96590111322837" stroke="#ff7f0e" stroke-width="2"/>
  <line x1="517.37" y1="389.90622806137804" x2="517.37" y2="389.93180222645674" stroke="#ff7f0e" stroke-width="1"/>
  <line x1="514.465" y1="389.90622806137804" x2="520.275" y2="389.90622806137804" stroke="#ff7f0e" stroke-width="1"/>
  <line x1="514.465" y1="389.93180222645674" x2="520.275" y2="389.93180222645674" stroke="#ff7f0e" stroke-width="1"/>
  <rect x="509.90000000000003" y="389.91475278307087" width="14.939999999999998" height="0.014918262962623885" fill="#ff7f0e" fill-opacity="0.35" stroke="#ff7f0e" stroke-width="1"/>
  <line x1="509.90000000000003" y1="389.91901514391736" x2="524.84" y2="389.91901514391736" stroke="#ff7f0e" stroke-width="2"/>
  <line x1="600.37" y1="389.76983251429147" x2="600.37" y2="389.8550797312205" stroke="#ff7f0e" stroke-width="1"/>
  <line x1="597.465" y1="389.76983251429147" x2="603.275" y2="389.76983251429147" stroke="#ff7f0e" stroke-width="1"/>
  <line x1="597.465" y1="389.8550797312205" x2="603.275" y2="389.8550797312205" stroke="#ff7f0e" stroke-width="1"/>
  <rect x="592.9" y="389.80393140106304" width="14.940000000000055" height="0.02557416507875132" fill="#ff7f0e" fill-opacity="0.35" stroke="#ff7f0e" stroke-width="1"/>
  <line x1="592.9" y1="389.812456122756" x2="607.84" y2="389.812456122756" stroke="#ff7f0e" stroke-width="2"/>
  <line x1="683.37" y1="389.5140908635042" x2="683.37" y2="389.62491224551195" stroke="#ff7f0e" stroke-width="1"/>
  <line x1="680.465" y1="389.5140908635042" x2="686.275" y2="389.5140908635042" stroke="#ff7f0e" stroke-width="1"/>
  <line x1="680.465" y1="389.62491224551195" x2="686.275" y2="389.62491224551195" stroke="#ff7f0e" stroke-width="1"/>
  <rect x="675.9" y="389.5417962090061" width="14.940000000000055" height="0.049017149734197574" fill="#ff7f0e" fill-opacity="0.35" stroke="#ff7f0e" stroke-width="1"/>
  <line x1="675.9" y1="389.57802627620094" x2="690.84" y2="389.57802627620094" stroke="#ff7f0e" stroke-width="2"/>
  <line x1="766.37" y1="384.5441781165379" x2="766.37" y2="384.9533647577976" stroke="#ff7f0e" stroke-width="1"/>
  <line x1="763.465" y1="384.5441781165379" x2="769.275" y2="384.5441781165379" stroke="#ff7f0e" stroke-width="1"/>
  <line x1="763.465" y1="384.9533647577976" x2="769.275" y2="384.9533647577976" stroke="#ff7f0e" stroke-width="1"/>
  <rect x="758.9" y="384.7445090763213" width="14.940000000000055" height="0.15557617089558562" fill="#ff7f0e" fill-opacity="0.35" stroke="#ff7f0e" stroke-width="1"/>
  <line x1="758.9" y1="384.8297562932504" x2="773.84" y2="384.8297562932504" stroke="#ff7f0e" stroke-width="2"/>
  <line x1="849.37" y1="321.75960284826" x2="849.37" y2="330.0626817771537" stroke="#ff7f0e" stroke-width="1"/>
  <line x1="846.465" y1="321.75960284826" x2="852.275" y2="321.75960284826" stroke="#ff7f0e" stroke-width="1"/>
  <line x1="846.465" y1="330.0626817771537" x2="852.275" y2="330.0626817771537" stroke="#ff7f0e" stroke-width="1"/>
  <rect x="841.9" y="325.5381857386421" width="14.940000000000055" height="2.7769280914652654" fill="#ff7f0e" fill-opacity="0.35" stroke="#ff7f0e" stroke-width="1"/>
  <line x1="841.9" y1="327.215424731722" x2="856.84" y2="327.215424731722" stroke="#ff7f0e" stroke-width="2"/>
  <line x1="118.97" y1="389.90622806137804" x2="118.97" y2="389.93180222645674" stroke="#2ca02c" stroke-width="1"/>
  <line x1="116.065" y1="389.90622806137804" x2="121.875" y2="389.90622806137804" stroke="#2ca02c" stroke-width="1"/>
  <line x1="116.065" y1="389.93180222645674" x2="121.875" y2="389.93180222645674" stroke="#2ca02c" stroke-width="1"/>
  <rect x="111.5" y="389.91475278307087" width="14.939999999999998" height="0.008524721692936055" fill="#2ca02c" fill-opacity="0.35" stroke="#2ca02c" stroke-width="1"/>
  <line x1="111.5" y1="389.9232775047638" x2="126.44" y2="389.9232775047638" stroke="#2ca02c" stroke-width="2"/>
  <line x1="201.97" y1="389.8806538962993" x2="201.97" y2="389.90622806137804" stroke="#2ca02c" stroke-width="1"/>
  <line x1="199.065" y1="389.8806538962993" x2="204.875" y2="389.8806538962993" stroke="#2ca02c" stroke-width="1"/>
  <line x1="199.065" y1="389.90622806137804" x2="204.875" y2="389.90622806137804" stroke="#2ca02c" stroke-width="1"/>
  <rect x="194.5" y="389.8891786179922" width="14.939999999999998" height="0.008524721692936055" fill="#2ca02c" fill-opacity="0.35" stroke="#2ca02c" stroke-width="1"/>
  <line x1="194.5" y1="389.8891786179922" x2="209.44" y2="389.8891786179922" stroke="#2ca02c" stroke-width="2"/>
  <line x1="284.97" y1="389.77835723598434" x2="284.97" y2="389.87212917460636" stroke="#2ca02c" stroke-width="1"/>
  <line x1="282.06500000000005" y1="389.77835723598434" x2="287.875" y2="389.77835723598434" stroke="#2ca02c" stroke-width="1"/>
  <line x1="282.06500000000005" y1="389.87212917460636" x2="287.875" y2="389.87212917460636" stroke="#2ca02c" stroke-width="1"/>
  <rect x="277.5" y="389.8295055661418" width="14.939999999999998" height="0.03409888677163053" fill="#2ca02c" fill-opacity="0.35" stroke="#2ca02c" stroke-width="1"/>
  <line x1="277.5" y1="389.84655500952766" x2="292.44" y2="389.84655500952766" stroke="#2ca02c" stroke-width="2"/>
  <line x1="367.97" y1="389.812456122756" x2="367.97" y2="389.8806538962993" stroke="#2ca02c" stroke-width="1"/>
  <line x1="365.06500000000005" y1="389.812456122756" x2="370.875" y2="389.812456122756" stroke="#2ca02c" stroke-width="1"/>
  <line x1="365.06500000000005" y1="389.8806538962993" x2="370.875" y2="389.8806538962993" stroke="#2ca02c" stroke-width="1"/>
  <rect x="360.5" y="389.84655500952766" width="14.939999999999998" height="0.023442984655446253" fill="#2ca02c" fill-opacity="0.35" stroke="#2ca02c" stroke-width="1"/>
  <line x1="360.5" y1="389.8550797312205" x2="375.44" y2="389.8550797312205" stroke="#2ca02c" stroke-width="2"/>
  <line x1="450.97" y1="389.7101594624411" x2="450.97" y2="389.812456122756" stroke="#2ca02c" stroke-width="1"/>
  <line x1="448.06500000000005" y1="389.7101594624411" x2="453.875" y2="389.7101594624411" stroke="#2ca02c" stroke-width="1"/>
  <line x1="448.06500000000005" y1="389.812456122756" x2="453.875" y2="389.812456122756" stroke="#2ca02c" stroke-width="1"/>
  <rect x="443.5" y="389.76130779259853" width="14.939999999999998" height="0.03409888677163053" fill="#2ca02c" fill-opacity="0.35" stroke="#2ca02c" stroke-width="1"/>
  <line x1="443.5" y1="389.77835723598434" x2="458.44" y2="389.77835723598434" stroke="#2ca02c" stroke-width="2"/>
  <line x1="533.97" y1="389.4885166984255" x2="533.97" y2="389.62491224551195" stroke="#2ca02c" stroke-width="1"/>
  <line x1="531.065" y1="389.4885166984255" x2="536.875" y2="389.4885166984255" stroke="#2ca02c" stroke-width="1"/>
  <line x1="531.065" y1="389.62491224551195" x2="536.875" y2="389.62491224551195" stroke="#2ca02c" stroke-width="1"/>
  <rect x="526.5" y="389.5055661418112" width="14.940000000000055" height="0.07672249523625396" fill="#2ca02c" fill-opacity="0.35" stroke="#2ca02c" stroke-width="1"/>
  <line x1="526.5" y1="389.5481897502758" x2="541.44" y2="389.5481897502758" stroke="#2ca02c" stroke-width="2"/>
  <line x1="616.97" y1="389.0963795005516" x2="616.97" y2="389.3350717079531" stroke="#2ca02c" stroke-width="1"/>
  <line x1="614.065" y1="389.0963795005516" x2="619.875" y2="389.0963795005516" stroke="#2ca02c" stroke-width="1"/>
  <line x1="614.065" y1="389.3350717079531" x2="619.875" y2="389.3350717079531" stroke="#2ca02c" stroke-width="1"/>
  <rect x="609.5" y="389.1645772740949" width="14.940000000000055" height="0.10016547989164337" fill="#2ca02c" fill-opacity="0.35" stroke="#2ca02c" stroke-width="1"/>
  <line x1="609.5" y1="389.1944138000201" x2="624.44" y2="389.1944138000201" stroke="#2ca02c" stroke-width="2"/>
  <line x1="699.97" y1="388.2694814963394" x2="699.97" y2="388.76391535452814" stroke="#2ca02c" stroke-width="1"/>
  <line x1="697.065" y1="388.2694814963394" x2="702.875" y2="388.2694814963394" stroke="#2ca02c" stroke-width="1"/>
  <line x1="697.065" y1="388.76391535452814" x2="702.875" y2="388.76391535452814" stroke="#2ca02c" stroke-width="1"/>
  <rect x="692.5" y="388.3952211413098" width="14.940000000000055" height="0.2642663724802219" fill="#2ca02c" fill-opacity="0.35" stroke="#2ca02c" stroke-width="1"/>
  <line x1="692.5" y1="388.52522314712667" x2="707.44" y2="388.52522314712667" stroke="#2ca02c" stroke-width="2"/>
  <line x1="782.97" y1="370.46133787985156" x2="782.97" y2="375.79781365961287" stroke="#2ca02c" stroke-width="1"/>
  <line x1="780.065" y1="370.46133787985156" x2="785.875" y2="370.46133787985156" stroke="#2ca02c" stroke-width="1"/>
  <line x1="780.065" y1="375.79781365961287" x2="785.875" y2="375.79781365961287" stroke="#2ca02c" stroke-width="1"/>
  <rect x="775.5" y="372.8333416909036" width="14.940000000000055" height="2.3933156152843935" fill="#2ca02c" fill-opacity="0.35" stroke="#2ca02c" stroke-width="1"/>
  <line x1="775.5" y1="373.32138200782265" x2="790.44" y2="373.32138200782265" stroke="#2ca02c" stroke-width="2"/>
  <line x1="865.97" y1="144.31752081035006" x2="865.97" y2="217.83472069000103" stroke="#2ca02c" stroke-width="1"/>
  <line x1="863.065" y1="144.31752081035006" x2="868.875" y2="144.31752081035006" stroke="#2ca02c" stroke-width="1"/>
  <line x1="863.065" y1="217.83472069000103" x2="868.875" y2="217.83472069000103" stroke="#2ca02c" stroke-width="1"/>
  <rect x="858.5" y="166.98688697221945" width="14.940000000000055" height="24.853826095677448" fill="#2ca02c" fill-opacity="0.35" stroke="#2ca02c" stroke-width="1"/>
  <line x1="858.5" y1="185.97783572359842" x2="873.44" y2="185.97783572359842" stroke="#2ca02c" stroke-width="2"/>
  <line x1="135.57" y1="389.8636044529134" x2="135.57" y2="389.9829505566141" stroke="#d62728" stroke-width="1"/>
  <line x1="132.665" y1="389.8636044529134" x2="138.475" y2="389.8636044529134" stroke="#d62728" stroke-width="1"/>
  <line x1="132.665" y1="389.9829505566141" x2="138.475" y2="389.9829505566141" stroke="#d62728" stroke-width="1"/>
  <rect x="128.1" y="389.91475278307087" width="14.939999999999998" height="0.05754187142713363" fill="#d62728" fill-opacity="0.35" stroke="#d62728" stroke-width="1"/>
  <line x1="128.1" y1="389.94885166984255" x2="143.04" y2="389.94885166984255" stroke="#d62728" stroke-width="2"/>
  <line x1="218.57000000000002" y1="389.93180222645674" x2="218.57000000000002" y2="389.97442583492125" stroke="#d62728" stroke-width="1"/>
  <line x1="215.66500000000002" y1="389.93180222645674" x2="221.47500000000002" y2="389.93180222645674" stroke="#d62728" stroke-width="1"/>
  <line x1="215.66500000000002" y1="389.97442583492125" x2="221.47500000000002" y2="389.97442583492125" stroke="#d62728" stroke-width="1"/>
  <rect x="211.10000000000002" y="389.9403269481496" width="14.939999999999998" height="0.02557416507875132" fill="#d62728" fill-opacity="0.35" stroke="#d62728" stroke-width="1"/>
  <line x1="211.10000000000002" y1="389.95737639153543" x2="226.04000000000002" y2="389.95737639153543" stroke="#d62728" stroke-width="2"/>
  <line x1="301.57000000000005" y1="389.9403269481496" x2="301.57000000000005" y2="389.96590111322837" stroke="#d62728" stroke-width="1"/>
  <line x1="298.6650000000001" y1="389.9403269481496" x2="304.475" y2="389.9403269481496" stroke="#d62728" stroke-width="1"/>
  <line x1="298.6650000000001" y1="389.96590111322837" x2="304.475" y2="389.96590111322837" stroke="#d62728" stroke-width="1"/>
  <rect x="294.1" y="389.94885166984255" width="14.939999999999998" height="0.008524721692879211" fill="#d62728" fill-opacity="0.35" stroke="#d62728" stroke-width="1"/>
  <line x1="294.1" y1="389.94885166984255" x2="309.04" y2="389.94885166984255" stroke="#d62728" stroke-width="2"/>
  <line x1="384.57000000000005" y1="389.87212917460636" x2="384.57000000000005" y2="389.9232775047638" stroke="#d62728" stroke-width="1"/>
  <line x1="381.6650000000001" y1="389.87212917460636" x2="387.475" y2="389.87212917460636" stroke="#d62728" stroke-width="1"/>
  <line x1="381.6650000000001" y1="389.9232775047638" x2="387.475" y2="389.9232775047638" stroke="#d62728" stroke-width="1"/>
  <rect x="377.1" y="389.8891786179922" width="14.939999999999998" height="0.023442984655446253" fill="#d62728" fill-opacity="0.35" stroke="#d62728" stroke-width="1"/>
  <line x1="377.1" y1="389.90196570053155" x2="392.04" y2="389.90196570053155" stroke="#d62728" stroke-width="2"/>
  <line x1="467.57000000000005" y1="389.79540667937016" x2="467.57000000000005" y2="389.8806538962993" stroke="#d62728" stroke-width="1"/>
  <line x1="464.6650000000001" y1="389.79540667937016" x2="470.475" y2="389.79540667937016" stroke="#d62728" stroke-width="1"/>
  <line x1="464.6650000000001" y1="389.8806538962993" x2="470.475" y2="389.8806538962993" stroke="#d62728" stroke-width="1"/>
  <rect x="460.1" y="389.840161468258" width="14.939999999999998" height="0.03196770634838231" fill="#d62728" fill-opacity="0.35" stroke="#d62728" stroke-width="1"/>
  <line x1="460.1" y1="389.8636044529134" x2="475.04" y2="389.8636044529134" stroke="#d62728" stroke-width="2"/>
  <line x1="550.57" y1="389.5055661418112" x2="550.57" y2="389.69311001905527" stroke="#d62728" stroke-width="1"/>
  <line x1="547.6650000000001" y1="389.5055661418112" x2="553.475" y2="389.5055661418112" stroke="#d62728" stroke-width="1"/>
  <line x1="547.6650000000001" y1="389.69311001905527" x2="553.475" y2="389.69311001905527" stroke="#d62728" stroke-width="1"/>
  <rect x="543.1" y="389.56523919366157" width="14.940000000000055" height="0.10229666031500528" fill="#d62728" fill-opacity="0.35" stroke="#d62728" stroke-width="1"/>
  <line x1="543.1" y1="389.6504864105907" x2="558.0400000000001" y2="389.6504864105907" stroke="#d62728" stroke-width="2"/>
  <line x1="633.5699999999999" y1="389.0281817270083" x2="633.5699999999999" y2="389.34359642964597" stroke="#d62728" stroke-width="1"/>
  <line x1="630.665" y1="389.0281817270083" x2="636.4749999999999" y2="389.0281817270083" stroke="#d62728" stroke-width="1"/>
  <line x1="630.665" y1="389.34359642964597" x2="636.4749999999999" y2="389.34359642964597" stroke="#d62728" stroke-width="1"/>
  <rect x="626.0999999999999" y="389.16670845451813" width="14.940000000000055" height="0.151313810049146" fill="#d62728" fill-opacity="0.35" stroke="#d62728" stroke-width="1"/>
  <line x1="626.0999999999999" y1="389.296710460335" x2="641.04" y2="389.296710460335" stroke="#d62728" stroke-width="2"/>
  <line x1="716.5699999999999" y1="387.7238993079932" x2="716.5699999999999" y2="388.59342092067" stroke="#d62728" stroke-width="1"/>
  <line x1="713.665" y1="387.7238993079932" x2="719.4749999999999" y2="387.7238993079932" stroke="#d62728" stroke-width="1"/>
  <line x1="713.665" y1="388.59342092067" x2="719.4749999999999" y2="388.59342092067" stroke="#d62728" stroke-width="1"/>
  <rect x="709.0999999999999" y="387.9945592217431" width="14.940000000000055" height="0.5264015645371387" fill="#d62728" fill-opacity="0.35" stroke="#d62728" stroke-width="1"/>
  <line x1="709.0999999999999" y1="388.46128773442985" x2="724.04" y2="388.46128773442985" stroke="#d62728" stroke-width="2"/>
  <line x1="799.5699999999999" y1="349.13248420419217" x2="799.5699999999999" y2="372.42202386922077" stroke="#d62728" stroke-width="1"/>
  <line x1="796.665" y1="349.13248420419217" x2="802.4749999999999" y2="349.13248420419217" stroke="#d62728" stroke-width="1"/>
  <line x1="796.665" y1="372.42202386922077" x2="802.4749999999999" y2="372.42202386922077" stroke="#d62728" stroke-width="1"/>
  <rect x="792.0999999999999" y="360.8326647277104" width="14.940000000000055" height="10.913774947347292" fill="#d62728" fill-opacity="0.35" stroke="#d62728" stroke-width="1"/>
  <line x1="792.0999999999999" y1="370.41445191054055" x2="807.04" y2="370.41445191054055" stroke="#d62728" stroke-width="2"/>
  <line x1="882.5699999999999" y1="50.0" x2="882.5699999999999" y2="95.36004412797111" stroke="#d62728" stroke-width="1"/>
  <line x1="879.665" y1="50.0" x2="885.4749999999999" y2="50.0" stroke="#d62728" stroke-width="1"/>
  <line x1="879.665" y1="95.36004412797111" x2="885.4749999999999" y2="95.36004412797111" stroke="#d62728" stroke-width="1"/>
  <rect x="875.0999999999999" y="58.65046133787987" width="14.940000000000055" height="17.42453114030686" fill="#d62728" fill-opacity="0.35" stroke="#d62728" stroke-width="1"/>
  <line x1="875.0999999999999" y1="67.3946946143817" x2="890.04" y2="67.3946946143817" stroke="#d62728" stroke-width="2"/>
  <text x="918" y="62" font-family="system-ui, -apple-system" font-size="12" font-weight="600">handlers</text>
  <line x1="918" y1="76" x2="936" y2="76" stroke="#1f77b4" stroke-width="6" stroke-linecap="round" opacity="0.6"/>
  <text x="944" y="80" font-family="system-ui, -apple-system" font-size="12">ruby</text>
  <line x1="918" y1="94" x2="936" y2="94" stroke="#ff7f0e" stroke-width="6" stroke-linecap="round" opacity="0.6"/>
  <text x="944" y="98" font-family="system-ui, -apple-system" font-size="12">go</text>
  <line x1="918" y1="112" x2="936" y2="112" stroke="#2ca02c" stroke-width="6" stroke-linecap="round" opacity="0.6"/>
  <text x="944" y="116" font-family="system-ui, -apple-system" font-size="12">python</text>
  <line x1="918" y1="130" x2="936" y2="130" stroke="#d62728" stroke-width="6" stroke-linecap="round" opacity="0.6"/>
  <text x="944" y="134" font-family="system-ui, -apple-system" font-size="12">node</text>
</svg>
