<?xml version="1.0" encoding="UTF-8"?>
<svg xmlns="http://www.w3.org/2000/svg" width="1120" height="450" viewBox="0 0 1120 450">
  <rect x="0" y="0" width="1120" height="450" fill="white"/>
  <text x="560" y="24" text-anchor="middle" font-family="system-ui, -apple-system" font-size="16">Memory by page size (raw runs)</text>
  <line x1="70" y1="390" x2="900" y2="390" stroke="#111" stroke-width="1"/>
  <line x1="70" y1="50" x2="70" y2="390" stroke="#111" stroke-width="1"/>
  <line x1="66" y1="50.0" x2="70" y2="50.0" stroke="#111" stroke-width="1"/>
  <text x="62" y="54.0" text-anchor="end" font-family="system-ui, -apple-system" font-size="11">2.29e+08</text>
  <line x1="66" y1="135.0" x2="70" y2="135.0" stroke="#111" stroke-width="1"/>
  <text x="62" y="139.0" text-anchor="end" font-family="system-ui, -apple-system" font-size="11">1.74e+08</text>
  <line x1="70" y1="135.0" x2="900" y2="135.0" stroke="#eee" stroke-width="1"/>
  <line x1="66" y1="220.0" x2="70" y2="220.0" stroke="#111" stroke-width="1"/>
  <text x="62" y="224.0" text-anchor="end" font-family="system-ui, -apple-system" font-size="11">1.20e+08</text>
  <line x1="70" y1="220.0" x2="900" y2="220.0" stroke="#eee" stroke-width="1"/>
  <line x1="66" y1="305.0" x2="70" y2="305.0" stroke="#111" stroke-width="1"/>
  <text x="62" y="309.0" text-anchor="end" font-family="system-ui, -apple-system" font-size="11">6.52e+07</text>
  <line x1="70" y1="305.0" x2="900" y2="305.0" stroke="#eee" stroke-width="1"/>
  <line x1="66" y1="390.0" x2="70" y2="390.0" stroke="#111" stroke-width="1"/>
  <text x="62" y="394.0" text-anchor="end" font-family="system-ui, -apple-system" font-size="11">1.07e+07</text>
  <text x="485" y="432" text-anchor="middle" font-family="system-ui, -apple-system" font-size="12">per_page</text>
  <text x="18" y="220" text-anchor="middle" font-family="system-ui, -apple-system" font-size="12" transform="rotate(-90 18 220)">Memory (bytes)</text>
  <text x="111.5" y="410" text-anchor="middle" font-family="system-ui, -apple-system" font-size="11">1</text>
  <text x="194.5" y="410" text-anchor="middle" font-family="system-ui, -apple-system" font-size="11">10</text>
  <text x="277.5" y="410" text-anchor="middle" font-family="system-ui, -apple-system" font-size="11">25</text>
  <text x="360.5" y="410" text-anchor="middle" font-family="system-ui, -apple-system" font-size="11">50</text>
  <text x="443.5" y="410" text-anchor="middle" font-family="system-ui, -apple-system" font-size="11">100</text>
  <text x="526.5" y="410" text-anchor="middle" font-family="system-ui, -apple-system" font-size="11">250</text>
  <text x="609.5" y="410" text-anchor="middle" font-family="system-ui, -apple-system" font-size="11">500</text>
  <text x="692.5" y="410" text-anchor="middle" font-family="system-ui, -apple-system" font-size="11">1000</text>
  <text x="775.5" y="410" text-anchor="middle" font-family="system-ui, -apple-system" font-size="11">10000</text>
  <text x="858.5" y="410" text-anchor="middle" font-family="system-ui, -apple-system" font-size="11">100000</text>
  <line x1="85.77" y1="150.03455658641025" x2="85.77" y2="150.2388911843143" stroke="#1f77b4" stroke-width="1"/>
  <line x1="82.865" y1="150.03455658641025" x2="88.675" y2="150.03455658641025" stroke="#1f77b4" stroke-width="1"/>
  <line x1="82.865" y1="150.2388911843143" x2="88.675" y2="150.2388911843143" stroke="#1f77b4" stroke-width="1"/>
  <rect x="78.3" y="150.03455658641025" width="14.939999999999998" height="0.20433459790405095" fill="#1f77b4" fill-opacity="0.35" stroke="#1f77b4" stroke-width="1"/>
  <line x1="78.3" y1="150.2388911843143" x2="93.24" y2="150.2388911843143" stroke="#1f77b4" stroke-width="2"/>
  <line x1="168.77" y1="149.8302219885062" x2="168.77" y2="149.8302219885062" stroke="#1f77b4" stroke-width="1"/>
  <line x1="165.865" y1="149.8302219885062" x2="171.675" y2="149.8302219885062" stroke="#1f77b4" stroke-width="1"/>
  <line x1="165.865" y1="149.8302219885062" x2="171.675" y2="149.8302219885062" stroke="#1f77b4" stroke-width="1"/>
  <rect x="161.3" y="149.8302219885062" width="14.939999999999998" height="0.0" fill="#1f77b4" fill-opacity="0.35" stroke="#1f77b4" stroke-width="1"/>
  <line x1="161.3" y1="149.8302219885062" x2="176.24" y2="149.8302219885062" stroke="#1f77b4" stroke-width="2"/>
  <line x1="251.77" y1="150.87743680276452" x2="251.77" y2="151.28610599857268" stroke="#1f77b4" stroke-width="1"/>
  <line x1="248.865" y1="150.87743680276452" x2="254.675" y2="150.87743680276452" stroke="#1f77b4" stroke-width="1"/>
  <line x1="248.865" y1="151.28610599857268" x2="254.675" y2="151.28610599857268" stroke="#1f77b4" stroke-width="1"/>
  <rect x="244.3" y="151.0817714006686" width="14.939999999999998" height="0.20433459790407937" fill="#1f77b4" fill-opacity="0.35" stroke="#1f77b4" stroke-width="1"/>
  <line x1="244.3" y1="151.28610599857268" x2="259.24" y2="151.28610599857268" stroke="#1f77b4" stroke-width="2"/>
  <line x1="334.77" y1="150.71141494196746" x2="334.77" y2="151.12008413777562" stroke="#1f77b4" stroke-width="1"/>
  <line x1="331.865" y1="150.71141494196746" x2="337.67499999999995" y2="150.71141494196746" stroke="#1f77b4" stroke-width="1"/>
  <line x1="331.865" y1="151.12008413777562" x2="337.67499999999995" y2="151.12008413777562" stroke="#1f77b4" stroke-width="1"/>
  <rect x="327.3" y="150.71141494196746" width="14.939999999999998" height="0.16602186079705916" fill="#1f77b4" fill-opacity="0.35" stroke="#1f77b4" stroke-width="1"/>
  <line x1="327.3" y1="150.87743680276452" x2="342.24" y2="150.87743680276452" stroke="#1f77b4" stroke-width="2"/>
  <line x1="417.77" y1="150.58370581827742" x2="417.77" y2="150.99237501408555" stroke="#1f77b4" stroke-width="1"/>
  <line x1="414.865" y1="150.58370581827742" x2="420.67499999999995" y2="150.58370581827742" stroke="#1f77b4" stroke-width="1"/>
  <line x1="414.865" y1="150.99237501408555" x2="420.67499999999995" y2="150.99237501408555" stroke="#1f77b4" stroke-width="1"/>
  <rect x="410.3" y="150.58370581827742" width="14.939999999999998" height="0.20433459790407937" fill="#1f77b4" fill-opacity="0.35" stroke="#1f77b4" stroke-width="1"/>
  <line x1="410.3" y1="150.7880404161815" x2="425.24" y2="150.7880404161815" stroke="#1f77b4" stroke-width="2"/>
  <line x1="500.77" y1="150.1750366224693" x2="500.77" y2="150.58370581827742" stroke="#1f77b4" stroke-width="1"/>
  <line x1="497.865" y1="150.1750366224693" x2="503.67499999999995" y2="150.1750366224693" stroke="#1f77b4" stroke-width="1"/>
  <line x1="497.865" y1="150.58370581827742" x2="503.67499999999995" y2="150.58370581827742" stroke="#1f77b4" stroke-width="1"/>
  <rect x="493.3" y="150.37937122037334" width="14.939999999999998" height="0.20433459790407937" fill="#1f77b4" fill-opacity="0.35" stroke="#1f77b4" stroke-width="1"/>
  <line x1="493.3" y1="150.4815385193254" x2="508.24" y2="150.4815385193254" stroke="#1f77b4" stroke-width="2"/>
  <line x1="583.77" y1="149.35769823085303" x2="583.77" y2="150.1750366224693" stroke="#1f77b4" stroke-width="1"/>
  <line x1="580.865" y1="149.35769823085303" x2="586.675" y2="149.35769823085303" stroke="#1f77b4" stroke-width="1"/>
  <line x1="580.865" y1="150.1750366224693" x2="586.675" y2="150.1750366224693" stroke="#1f77b4" stroke-width="1"/>
  <rect x="576.3" y="149.56203282875708" width="14.940000000000055" height="0.5619201442361828" fill="#1f77b4" fill-opacity="0.35" stroke="#1f77b4" stroke-width="1"/>
  <line x1="576.3" y1="149.76636742666116" x2="591.24" y2="149.76636742666116" stroke="#1f77b4" stroke-width="2"/>
  <line x1="666.77" y1="148.54035983923677" x2="666.77" y2="149.35769823085303" stroke="#1f77b4" stroke-width="1"/>
  <line x1="663.865" y1="148.54035983923677" x2="669.675" y2="148.54035983923677" stroke="#1f77b4" stroke-width="1"/>
  <line x1="663.865" y1="149.35769823085303" x2="669.675" y2="149.35769823085303" stroke="#1f77b4" stroke-width="1"/>
  <rect x="659.3" y="148.79577808661685" width="14.940000000000055" height="0.3575855463321034" fill="#1f77b4" fill-opacity="0.35" stroke="#1f77b4" stroke-width="1"/>
  <line x1="659.3" y1="148.94902903504487" x2="674.24" y2="148.94902903504487" stroke="#1f77b4" stroke-width="2"/>
  <line x1="749.77" y1="149.319385493746" x2="749.77" y2="149.319385493746" stroke="#1f77b4" stroke-width="1"/>
  <line x1="746.865" y1="149.319385493746" x2="752.675" y2="149.319385493746" stroke="#1f77b4" stroke-width="1"/>
  <line x1="746.865" y1="149.319385493746" x2="752.675" y2="149.319385493746" stroke="#1f77b4" stroke-width="1"/>
  <rect x="742.3" y="149.319385493746" width="14.940000000000055" height="0.0" fill="#1f77b4" fill-opacity="0.35" stroke="#1f77b4" stroke-width="1"/>
  <line x1="742.3" y1="149.319385493746" x2="757.24" y2="149.319385493746" stroke="#1f77b4" stroke-width="2"/>
  <line x1="832.77" y1="139.3069901964467" x2="832.77" y2="144.61968974195244" stroke="#1f77b4" stroke-width="1"/>
  <line x1="829.865" y1="139.3069901964467" x2="835.675" y2="139.3069901964467" stroke="#1f77b4" stroke-width="1"/>
  <line x1="829.865" y1="144.61968974195244" x2="835.675" y2="144.61968974195244" stroke="#1f77b4" stroke-width="1"/>
  <rect x="825.3" y="139.51132479435074" width="14.940000000000055" height="2.879840739210465" fill="#1f77b4" fill-opacity="0.35" stroke="#1f77b4" stroke-width="1"/>
  <line x1="825.3" y1="139.9199939901589" x2="840.24" y2="139.9199939901589" stroke="#1f77b4" stroke-width="2"/>
  <line x1="102.37" y1="386.49438455470835" x2="102.37" y2="386.49438455470835" stroke="#ff7f0e" stroke-width="1"/>
  <line x1="99.465" y1="386.49438455470835" x2="105.275" y2="386.49438455470835" stroke="#ff7f0e" stroke-width="1"/>
  <line x1="99.465" y1="386.49438455470835" x2="105.275" y2="386.49438455470835" stroke="#ff7f0e" stroke-width="1"/>
  <rect x="94.9" y="386.49438455470835" width="14.939999999999998" height="0.0" fill="#ff7f0e" fill-opacity="0.35" stroke="#ff7f0e" stroke-width="1"/>
  <line x1="94.9" y1="386.49438455470835" x2="109.84" y2="386.49438455470835" stroke="#ff7f0e" stroke-width="2"/>
  <line x1="185.37" y1="386.49438455470835" x2="185.37" y2="390.0" stroke="#ff7f0e" stroke-width="1"/>
  <line x1="182.465" y1="386.49438455470835" x2="188.275" y2="386.49438455470835" stroke="#ff7f0e" stroke-width="1"/>
  <line x1="182.465" y1="390.0" x2="188.275" y2="390.0" stroke="#ff7f0e" stroke-width="1"/>
  <rect x="177.9" y="386.49438455470835" width="14.939999999999998" height="3.505615445291653" fill="#ff7f0e" fill-opacity="0.35" stroke="#ff7f0e" stroke-width="1"/>
  <line x1="177.9" y1="390.0" x2="192.84" y2="390.0" stroke="#ff7f0e" stroke-width="2"/>
  <line x1="268.37" y1="390.0" x2="268.37" y2="390.0" stroke="#ff7f0e" stroke-width="1"/>
  <line x1="265.46500000000003" y1="390.0" x2="271.275" y2="390.0" stroke="#ff7f0e" stroke-width="1"/>
  <line x1="265.46500000000003" y1="390.0" x2="271.275" y2="390.0" stroke="#ff7f0e" stroke-width="1"/>
  <rect x="260.90000000000003" y="390.0" width="14.939999999999998" height="0.0" fill="#ff7f0e" fill-opacity="0.35" stroke="#ff7f0e" stroke-width="1"/>
  <line x1="260.90000000000003" y1="390.0" x2="275.84000000000003" y2="390.0" stroke="#ff7f0e" stroke-width="2"/>
  <line x1="351.37" y1="389.79566540209595" x2="351.37" y2="390.0" stroke="#ff7f0e" stroke-width="1"/>
  <line x1="348.46500000000003" y1="389.79566540209595" x2="354.275" y2="389.79566540209595" stroke="#ff7f0e" stroke-width="1"/>
  <line x1="348.46500000000003" y1="390.0" x2="354.275" y2="390.0" stroke="#ff7f0e" stroke-width="1"/>
  <rect x="343.90000000000003" y="389.79566540209595" width="14.939999999999998" height="0.20433459790405095" fill="#ff7f0e" fill-opacity="0.35" stroke="#ff7f0e" stroke-width="1"/>
  <line x1="343.90000000000003" y1="389.79566540209595" x2="358.84000000000003" y2="389.79566540209595" stroke="#ff7f0e" stroke-width="2"/>
  <line x1="434.37" y1="389.18266160838374" x2="434.37" y2="389.79566540209595" stroke="#ff7f0e" stroke-width="1"/>
  <line x1="431.46500000000003" y1="389.18266160838374" x2="437.275" y2="389.18266160838374" stroke="#ff7f0e" stroke-width="1"/>
  <line x1="431.46500000000003" y1="389.79566540209595" x2="437.275" y2="389.79566540209595" stroke="#ff7f0e" stroke-width="1"/>
  <rect x="426.90000000000003" y="389.3869962062878" width="14.939999999999998" height="0.20433459790405095" fill="#ff7f0e" fill-opacity="0.35" stroke="#ff7f0e" stroke-width="1"/>
  <line x1="426.90000000000003" y1="389.48916350523984" x2="441.84000000000003" y2="389.48916350523984" stroke="#ff7f0e" stroke-width="2"/>
  <line x1="517.37" y1="388.56965781467153" x2="517.37" y2="389.18266160838374" stroke="#ff7f0e" stroke-width="1"/>
  <line x1="514.465" y1="388.56965781467153" x2="520.275" y2="388.56965781467153" stroke="#ff7f0e" stroke-width="1"/>
  <line x1="514.465" y1="389.18266160838374" x2="520.275" y2="389.18266160838374" stroke="#ff7f0e" stroke-width="1"/>
  <rect x="509.90000000000003" y="388.62074146414756" width="14.939999999999998" height="0.3575855463321318" fill="#ff7f0e" fill-opacity="0.35" stroke="#ff7f0e" stroke-width="1"/>
  <line x1="509.90000000000003" y1="388.7739924125756" x2="524.84" y2="388.7739924125756" stroke="#ff7f0e" stroke-width="2"/>
  <line x1="600.37" y1="387.54798482515116" x2="600.37" y2="388.56965781467153" stroke="#ff7f0e" stroke-width="1"/>
  <line x1="597.465" y1="387.54798482515116" x2="603.275" y2="387.54798482515116" stroke="#ff7f0e" stroke-width="1"/>
  <line x1="597.465" y1="388.56965781467153" x2="603.275" y2="388.56965781467153" stroke="#ff7f0e" stroke-width="1"/>
  <rect x="592.9" y="387.75231942305527" width="14.940000000000055" height="0.4086691958081019" fill="#ff7f0e" fill-opacity="0.35" stroke="#ff7f0e" stroke-width="1"/>
  <line x1="592.9" y1="387.9566540209593" x2="607.84" y2="387.9566540209593" stroke="#ff7f0e" stroke-width="2"/>
  <line x1="683.37" y1="386.1176426398227" x2="683.37" y2="387.54798482515116" stroke="#ff7f0e" stroke-width="1"/>
  <line x1="680.465" y1="386.1176426398227" x2="686.275" y2="386.1176426398227" stroke="#ff7f0e" stroke-width="1"/>
  <line x1="680.465" y1="387.54798482515116" x2="686.275" y2="387.54798482515116" stroke="#ff7f0e" stroke-width="1"/>
  <rect x="675.9" y="386.1176426398227" width="14.940000000000055" height="0.8891747736919342" fill="#ff7f0e" fill-opacity="0.35" stroke="#ff7f0e" stroke-width="1"/>
  <line x1="675.9" y1="386.6284791345829" x2="690.84" y2="386.6284791345829" stroke="#ff7f0e" stroke-width="2"/>
  <line x1="766.37" y1="386.909439206701" x2="766.37" y2="386.909439206701" stroke="#ff7f0e" stroke-width="1"/>
  <line x1="763.465" y1="386.909439206701" x2="769.275" y2="386.909439206701" stroke="#ff7f0e" stroke-width="1"/>
  <line x1="763.465" y1="386.909439206701" x2="769.275" y2="386.909439206701" stroke="#ff7f0e" stroke-width="1"/>
  <rect x="758.9" y="386.909439206701" width="14.940000000000055" height="0.0" fill="#ff7f0e" fill-opacity="0.35" stroke="#ff7f0e" stroke-width="1"/>
  <line x1="758.9" y1="386.909439206701" x2="773.84" y2="386.909439206701" stroke="#ff7f0e" stroke-width="2"/>
  <line x1="849.37" y1="384.5723622431732" x2="849.37" y2="386.90305375051645" stroke="#ff7f0e" stroke-width="1"/>
  <line x1="846.465" y1="384.5723622431732" x2="852.275" y2="384.5723622431732" stroke="#ff7f0e" stroke-width="1"/>
  <line x1="846.465" y1="386.90305375051645" x2="852.275" y2="386.90305375051645" stroke="#ff7f0e" stroke-width="1"/>
  <rect x="841.9" y="385.64032979003116" width="14.940000000000055" height="0.8412838523081518" fill="#ff7f0e" fill-opacity="0.35" stroke="#ff7f0e" stroke-width="1"/>
  <line x1="841.9" y1="386.31559178154225" x2="856.84" y2="386.31559178154225" stroke="#ff7f0e" stroke-width="2"/>
  <line x1="118.97" y1="334.8743567591932" x2="118.97" y2="334.8743567591932" stroke="#2ca02c" stroke-width="1"/>
  <line x1="116.065" y1="334.8743567591932" x2="121.875" y2="334.8743567591932" stroke="#2ca02c" stroke-width="1"/>
  <line x1="116.065" y1="334.8743567591932" x2="121.875" y2="334.8743567591932" stroke="#2ca02c" stroke-width="1"/>
  <rect x="111.5" y="334.8743567591932" width="14.939999999999998" height="0.0" fill="#2ca02c" fill-opacity="0.35" stroke="#2ca02c" stroke-width="1"/>
  <line x1="111.5" y1="334.8743567591932" x2="126.44" y2="334.8743567591932" stroke="#2ca02c" stroke-width="2"/>
  <line x1="201.97" y1="334.8743567591932" x2="201.97" y2="334.8743567591932" stroke="#2ca02c" stroke-width="1"/>
  <line x1="199.065" y1="334.8743567591932" x2="204.875" y2="334.8743567591932" stroke="#2ca02c" stroke-width="1"/>
  <line x1="199.065" y1="334.8743567591932" x2="204.875" y2="334.8743567591932" stroke="#2ca02c" stroke-width="1"/>
  <rect x="194.5" y="334.8743567591932" width="14.939999999999998" height="0.0" fill="#2ca02c" fill-opacity="0.35" stroke="#2ca02c" stroke-width="1"/>
  <line x1="194.5" y1="334.8743567591932" x2="209.44" y2="334.8743567591932" stroke="#2ca02c" stroke-width="2"/>
  <line x1="284.97" y1="334.8743567591932" x2="284.97" y2="334.8743567591932" stroke="#2ca02c" stroke-width="1"/>
  <line x1="282.06500000000005" y1="334.8743567591932" x2="287.875" y2="334.8743567591932" stroke="#2ca02c" stroke-width="1"/>
  <line x1="282.06500000000005" y1="334.8743567591932" x2="287.875" y2="334.8743567591932" stroke="#2ca02c" stroke-width="1"/>
  <rect x="277.5" y="334.8743567591932" width="14.939999999999998" height="0.0" fill="#2ca02c" fill-opacity="0.35" stroke="#2ca02c" stroke-width="1"/>
  <line x1="277.5" y1="334.8743567591932" x2="292.44" y2="334.8743567591932" stroke="#2ca02c" stroke-width="2"/>
  <line x1="367.97" y1="334.8743567591932" x2="367.97" y2="334.8743567591932" stroke="#2ca02c" stroke-width="1"/>
  <line x1="365.06500000000005" y1="334.8743567591932" x2="370.875" y2="334.8743567591932" stroke="#2ca02c" stroke-width="1"/>
  <line x1="365.06500000000005" y1="334.8743567591932" x2="370.875" y2="334.8743567591932" stroke="#2ca02c" stroke-width="1"/>
  <rect x="360.5" y="334.8743567591932" width="14.939999999999998" height="0.0" fill="#2ca02c" fill-opacity="0.35" stroke="#2ca02c" stroke-width="1"/>
  <line x1="360.5" y1="334.8743567591932" x2="375.44" y2="334.8743567591932" stroke="#2ca02c" stroke-width="2"/>
  <line x1="450.97" y1="334.8743567591932" x2="450.97" y2="334.8743567591932" stroke="#2ca02c" stroke-width="1"/>
  <line x1="448.06500000000005" y1="334.8743567591932" x2="453.875" y2="334.8743567591932" stroke="#2ca02c" stroke-width="1"/>
  <line x1="448.06500000000005" y1="334.8743567591932" x2="453.875" y2="334.8743567591932" stroke="#2ca02c" stroke-width="1"/>
  <rect x="443.5" y="334.8743567591932" width="14.939999999999998" height="0.0" fill="#2ca02c" fill-opacity="0.35" stroke="#2ca02c" stroke-width="1"/>
  <line x1="443.5" y1="334.8743567591932" x2="458.44" y2="334.8743567591932" stroke="#2ca02c" stroke-width="2"/>
  <line x1="533.97" y1="334.8743567591932" x2="533.97" y2="334.8743567591932" stroke="#2ca02c" stroke-width="1"/>
  <line x1="531.065" y1="334.8743567591932" x2="536.875" y2="334.8743567591932" stroke="#2ca02c" stroke-width="1"/>
  <line x1="531.065" y1="334.8743567591932" x2="536.875" y2="334.8743567591932" stroke="#2ca02c" stroke-width="1"/>
  <rect x="526.5" y="334.8743567591932" width="14.940000000000055" height="0.0" fill="#2ca02c" fill-opacity="0.35" stroke="#2ca02c" stroke-width="1"/>
  <line x1="526.5" y1="334.8743567591932" x2="541.44" y2="334.8743567591932" stroke="#2ca02c" stroke-width="2"/>
  <line x1="616.97" y1="334.8743567591932" x2="616.97" y2="334.8743567591932" stroke="#2ca02c" stroke-width="1"/>
  <line x1="614.065" y1="334.8743567591932" x2="619.875" y2="334.8743567591932" stroke="#2ca02c" stroke-width="1"/>
  <line x1="614.065" y1="334.8743567591932" x2="619.875" y2="334.8743567591932" stroke="#2ca02c" stroke-width="1"/>
  <rect x="609.5" y="334.8743567591932" width="14.940000000000055" height="0.0" fill="#2ca02c" fill-opacity="0.35" stroke="#2ca02c" stroke-width="1"/>
  <line x1="609.5" y1="334.8743567591932" x2="624.44" y2="334.8743567591932" stroke="#2ca02c" stroke-width="2"/>
  <line x1="699.97" y1="334.6700221612891" x2="699.97" y2="334.6700221612891" stroke="#2ca02c" stroke-width="1"/>
  <line x1="697.065" y1="334.6700221612891" x2="702.875" y2="334.6700221612891" stroke="#2ca02c" stroke-width="1"/>
  <line x1="697.065" y1="334.6700221612891" x2="702.875" y2="334.6700221612891" stroke="#2ca02c" stroke-width="1"/>
  <rect x="692.5" y="334.6700221612891" width="14.940000000000055" height="0.0" fill="#2ca02c" fill-opacity="0.35" stroke="#2ca02c" stroke-width="1"/>
  <line x1="692.5" y1="334.6700221612891" x2="707.44" y2="334.6700221612891" stroke="#2ca02c" stroke-width="2"/>
  <line x1="782.97" y1="327.55662397175377" x2="782.97" y2="328.48890057469106" stroke="#2ca02c" stroke-width="1"/>
  <line x1="780.065" y1="327.55662397175377" x2="785.875" y2="327.55662397175377" stroke="#2ca02c" stroke-width="1"/>
  <line x1="780.065" y1="328.48890057469106" x2="785.875" y2="328.48890057469106" stroke="#2ca02c" stroke-width="1"/>
  <rect x="775.5" y="327.60291852909137" width="14.940000000000055" height="0.4006873755775473" fill="#2ca02c" fill-opacity="0.35" stroke="#2ca02c" stroke-width="1"/>
  <line x1="775.5" y1="327.7609585696578" x2="790.44" y2="327.7609585696578" stroke="#2ca02c" stroke-width="2"/>
  <line x1="865.97" y1="258.4404462307028" x2="865.97" y2="258.7341772151899" stroke="#2ca02c" stroke-width="1"/>
  <line x1="863.065" y1="258.4404462307028" x2="868.875" y2="258.4404462307028" stroke="#2ca02c" stroke-width="1"/>
  <line x1="863.065" y1="258.7341772151899" x2="868.875" y2="258.7341772151899" stroke="#2ca02c" stroke-width="1"/>
  <rect x="858.5" y="258.50430079254784" width="14.940000000000055" height="0.153250948428024" fill="#2ca02c" fill-opacity="0.35" stroke="#2ca02c" stroke-width="1"/>
  <line x1="858.5" y1="258.5106862487323" x2="873.44" y2="258.5106862487323" stroke="#2ca02c" stroke-width="2"/>
  <line x1="135.57" y1="292.5770949930511" x2="135.57" y2="293.3369642790069" stroke="#d62728" stroke-width="1"/>
  <line x1="132.665" y1="292.5770949930511" x2="138.475" y2="292.5770949930511" stroke="#d62728" stroke-width="1"/>
  <line x1="132.665" y1="293.3369642790069" x2="138.475" y2="293.3369642790069" stroke="#d62728" stroke-width="1"/>
  <rect x="128.1" y="292.7143823010179" width="14.939999999999998" height="0.2522255192878333" fill="#d62728" fill-opacity="0.35" stroke="#d62728" stroke-width="1"/>
  <line x1="128.1" y1="292.905945986553" x2="143.04" y2="292.905945986553" stroke="#d62728" stroke-width="2"/>
  <line x1="218.57000000000002" y1="292.40468767606956" x2="218.57000000000002" y2="292.81335687187766" stroke="#d62728" stroke-width="1"/>
  <line x1="215.66500000000002" y1="292.40468767606956" x2="221.47500000000002" y2="292.40468767606956" stroke="#d62728" stroke-width="1"/>
  <line x1="215.66500000000002" y1="292.81335687187766" x2="221.47500000000002" y2="292.81335687187766" stroke="#d62728" stroke-width="1"/>
  <rect x="211.10000000000002" y="292.5467640761747" width="14.939999999999998" height="0.20912369004241782" fill="#d62728" fill-opacity="0.35" stroke="#d62728" stroke-width="1"/>
  <line x1="211.10000000000002" y1="292.71118957292566" x2="226.04000000000002" y2="292.71118957292566" stroke="#d62728" stroke-width="2"/>
  <line x1="301.57000000000005" y1="291.8683093565714" x2="301.57000000000005" y2="292.5770949930511" stroke="#d62728" stroke-width="1"/>
  <line x1="298.6650000000001" y1="291.8683093565714" x2="304.475" y2="291.8683093565714" stroke="#d62728" stroke-width="1"/>
  <line x1="298.6650000000001" y1="292.5770949930511" x2="304.475" y2="292.5770949930511" stroke="#d62728" stroke-width="1"/>
  <rect x="294.1" y="292.13011306013595" width="14.939999999999998" height="0.35120009014764264" fill="#d62728" fill-opacity="0.35" stroke="#d62728" stroke-width="1"/>
  <line x1="294.1" y1="292.26101491191827" x2="309.04" y2="292.26101491191827" stroke="#d62728" stroke-width="2"/>
  <line x1="384.57000000000005" y1="289.07147954775945" x2="384.57000000000005" y2="292.05987304210646" stroke="#d62728" stroke-width="1"/>
  <line x1="381.6650000000001" y1="289.07147954775945" x2="387.475" y2="289.07147954775945" stroke="#d62728" stroke-width="1"/>
  <line x1="381.6650000000001" y1="292.05987304210646" x2="387.475" y2="292.05987304210646" stroke="#d62728" stroke-width="1"/>
  <rect x="377.1" y="289.63339969199563" width="14.939999999999998" height="1.2196221312398734" fill="#d62728" fill-opacity="0.35" stroke="#d62728" stroke-width="1"/>
  <line x1="377.1" y1="290.24640348570784" x2="392.04" y2="290.24640348570784" stroke="#d62728" stroke-width="2"/>
  <line x1="467.57000000000005" y1="288.4073921045713" x2="467.57000000000005" y2="289.090635916313" stroke="#d62728" stroke-width="1"/>
  <line x1="464.6650000000001" y1="288.4073921045713" x2="470.475" y2="288.4073921045713" stroke="#d62728" stroke-width="1"/>
  <line x1="464.6650000000001" y1="289.090635916313" x2="470.475" y2="289.090635916313" stroke="#d62728" stroke-width="1"/>
  <rect x="460.1" y="288.4073921045713" width="14.939999999999998" height="0.5746910566051611" fill="#d62728" fill-opacity="0.35" stroke="#d62728" stroke-width="1"/>
  <line x1="460.1" y1="288.8160613003794" x2="475.04" y2="288.8160613003794" stroke="#d62728" stroke-width="2"/>
  <line x1="550.57" y1="284.78045299177404" x2="550.57" y2="288.20305750666716" stroke="#d62728" stroke-width="1"/>
  <line x1="547.6650000000001" y1="284.78045299177404" x2="553.475" y2="284.78045299177404" stroke="#d62728" stroke-width="1"/>
  <line x1="547.6650000000001" y1="288.20305750666716" x2="553.475" y2="288.20305750666716" stroke="#d62728" stroke-width="1"/>
  <rect x="543.1" y="285.797336889156" width="14.940000000000055" height="1.7224768057694746" fill="#d62728" fill-opacity="0.35" stroke="#d62728" stroke-width="1"/>
  <line x1="543.1" y1="286.97704991924275" x2="558.0400000000001" y2="286.97704991924275" stroke="#d62728" stroke-width="2"/>
  <line x1="633.5699999999999" y1="279.44221162153025" x2="633.5699999999999" y2="283.4458926492131" stroke="#d62728" stroke-width="1"/>
  <line x1="630.665" y1="279.44221162153025" x2="636.4749999999999" y2="279.44221162153025" stroke="#d62728" stroke-width="1"/>
  <line x1="630.665" y1="283.4458926492131" x2="636.4749999999999" y2="283.4458926492131" stroke="#d62728" stroke-width="1"/>
  <rect x="626.0999999999999" y="279.58109529354317" width="14.940000000000055" height="2.025785974533278" fill="#d62728" fill-opacity="0.35" stroke="#d62728" stroke-width="1"/>
  <line x1="626.0999999999999" y1="280.62671374375543" x2="641.04" y2="280.62671374375543" stroke="#d62728" stroke-width="2"/>
  <line x1="716.5699999999999" y1="267.2715321338692" x2="716.5699999999999" y2="278.8419787401871" stroke="#d62728" stroke-width="1"/>
  <line x1="713.665" y1="267.2715321338692" x2="719.4749999999999" y2="267.2715321338692" stroke="#d62728" stroke-width="1"/>
  <line x1="713.665" y1="278.8419787401871" x2="719.4749999999999" y2="278.8419787401871" stroke="#d62728" stroke-width="1"/>
  <rect x="709.0999999999999" y="267.95477594561095" width="14.940000000000055" height="9.302013296773453" fill="#d62728" fill-opacity="0.35" stroke="#d62728" stroke-width="1"/>
  <line x1="709.0999999999999" y1="272.7885662772791" x2="724.04" y2="272.7885662772791" stroke="#d62728" stroke-width="2"/>
  <line x1="799.5699999999999" y1="176.85985801750365" x2="799.5699999999999" y2="264.9408406265259" stroke="#d62728" stroke-width="1"/>
  <line x1="796.665" y1="176.85985801750365" x2="802.4749999999999" y2="176.85985801750365" stroke="#d62728" stroke-width="1"/>
  <line x1="796.665" y1="264.9408406265259" x2="802.4749999999999" y2="264.9408406265259" stroke="#d62728" stroke-width="1"/>
  <rect x="792.0999999999999" y="181.73515381437105" width="14.940000000000055" height="54.29553393682153" fill="#d62728" fill-opacity="0.35" stroke="#d62728" stroke-width="1"/>
  <line x1="792.0999999999999" y1="226.7590053712955" x2="807.04" y2="226.7590053712955" stroke="#d62728" stroke-width="2"/>
  <line x1="882.5699999999999" y1="50.0" x2="882.5699999999999" y2="58.933253202118465" stroke="#d62728" stroke-width="1"/>
  <line x1="879.665" y1="50.0" x2="885.4749999999999" y2="50.0" stroke="#d62728" stroke-width="1"/>
  <line x1="879.665" y1="58.933253202118465" x2="885.4749999999999" y2="58.933253202118465" stroke="#d62728" stroke-width="1"/>
  <rect x="875.0999999999999" y="50.483698305976034" width="14.940000000000055" height="4.444277504413478" fill="#d62728" fill-opacity="0.35" stroke="#d62728" stroke-width="1"/>
  <line x1="875.0999999999999" y1="54.55921571573452" x2="890.04" y2="54.55921571573452" stroke="#d62728" stroke-width="2"/>
  <text x="918" y="62" font-family="system-ui, -apple-system" font-size="12" font-weight="600">handlers</text>
  <line x1="918" y1="76" x2="936" y2="76" stroke="#1f77b4" stroke-width="6" stroke-linecap="round" opacity="0.6"/>
  <text x="944" y="80" font-family="system-ui, -apple-system" font-size="12">ruby</text>
  <line x1="918" y1="94" x2="936" y2="94" stroke="#ff7f0e" stroke-width="6" stroke-linecap="round" opacity="0.6"/>
  <text x="944" y="98" font-family="system-ui, -apple-system" font-size="12">go</text>
  <line x1="918" y1="112" x2="936" y2="112" stroke="#2ca02c" stroke-width="6" stroke-linecap="round" opacity="0.6"/>
  <text x="944" y="116" font-family="system-ui, -apple-system" font-size="12">python</text>
  <line x1="918" y1="130" x2="936" y2="130" stroke="#d62728" stroke-width="6" stroke-linecap="round" opacity="0.6"/>
  <text x="944" y="134" font-family="system-ui, -apple-system" font-size="12">node</text>
</svg>
