<?xml version="1.0" encoding="UTF-8"?>
<svg xmlns="http://www.w3.org/2000/svg" width="1120" height="450" viewBox="0 0 1120 450">
  <rect x="0" y="0" width="1120" height="450" fill="white"/>
  <text x="560" y="24" text-anchor="middle" font-family="system-ui, -apple-system" font-size="16">Duration by page size (raw runs)</text>
  <line x1="70" y1="390" x2="900" y2="390" stroke="#111" stroke-width="1"/>
  <line x1="70" y1="50" x2="70" y2="390" stroke="#111" stroke-width="1"/>
  <line x1="66" y1="50.0" x2="70" y2="50.0" stroke="#111" stroke-width="1"/>
  <text x="62" y="54.0" text-anchor="end" font-family="system-ui, -apple-system" font-size="11">0.088</text>
  <line x1="66" y1="135.0" x2="70" y2="135.0" stroke="#111" stroke-width="1"/>
  <text x="62" y="139.0" text-anchor="end" font-family="system-ui, -apple-system" font-size="11">0.066</text>
  <line x1="70" y1="135.0" x2="900" y2="135.0" stroke="#eee" stroke-width="1"/>
  <line x1="66" y1="220.0" x2="70" y2="220.0" stroke="#111" stroke-width="1"/>
  <text x="62" y="224.0" text-anchor="end" font-family="system-ui, -apple-system" font-size="11">0.044</text>
  <line x1="70" y1="220.0" x2="900" y2="220.0" stroke="#eee" stroke-width="1"/>
  <line x1="66" y1="305.0" x2="70" y2="305.0" stroke="#111" stroke-width="1"/>
  <text x="62" y="309.0" text-anchor="end" font-family="system-ui, -apple-system" font-size="11">0.022</text>
  <line x1="70" y1="305.0" x2="900" y2="305.0" stroke="#eee" stroke-width="1"/>
  <line x1="66" y1="390.0" x2="70" y2="390.0" stroke="#111" stroke-width="1"/>
  <text x="62" y="394.0" text-anchor="end" font-family="system-ui, -apple-system" font-size="11">0.0000</text>
  <text x="485" y="432" text-anchor="middle" font-family="system-ui, -apple-system" font-size="12">per_page</text>
  <text x="18" y="220" text-anchor="middle" font-family="system-ui, -apple-system" font-size="12" transform="rotate(-90 18 220)">Duration (seconds)</text>
  <text x="111.5" y="410" text-anchor="middle" font-family="system-ui, -apple-system" font-size="11">1</text>
  <text x="194.5" y="410" text-anchor="middle" font-family="system-ui, -apple-system" font-size="11">10</text>
  <text x="277.5" y="410" text-anchor="middle" font-family="system-ui, -apple-system" font-size="11">25</text>
  <text x="360.5" y="410" text-anchor="middle" font-family="system-ui, -apple-system" font-size="11">50</text>
  <text x="443.5" y="410" text-anchor="middle" font-family="system-ui, -apple-system" font-size="11">100</text>
  <text x="526.5" y="410" text-anchor="middle" font-family="system-ui, -apple-system" font-size="11">250</text>
  <text x="609.5" y="410" text-anchor="middle" font-family="system-ui, -apple-system" font-size="11">500</text>
  <text x="692.5" y="410" text-anchor="middle" font-family="system-ui, -apple-system" font-size="11">1000</text>
  <text x="775.5" y="410" text-anchor="middle" font-family="system-ui, -apple-system" font-size="11">10000</text>
  <text x="858.5" y="410" text-anchor="middle" font-family="system-ui, -apple-system" font-size="11">100000</text>
  <line x1="85.77" y1="389.93457171641705" x2="85.77" y2="389.97305894205414" stroke="#1f77b4" stroke-width="1"/>
  <line x1="82.865" y1="389.93457171641705" x2="88.675" y2="389.93457171641705" stroke="#1f77b4" stroke-width="1"/>
  <line x1="82.865" y1="389.97305894205414" x2="88.675" y2="389.97305894205414" stroke="#1f77b4" stroke-width="1"/>
  <rect x="78.3" y="389.94996660667186" width="14.939999999999998" height="0.019243612818570455" fill="#1f77b4" fill-opacity="0.35" stroke="#1f77b4" stroke-width="1"/>
  <line x1="78.3" y1="389.9653614969267" x2="93.24" y2="389.9653614969267" stroke="#1f77b4" stroke-width="2"/>
  <line x1="168.77" y1="389.9576640517993" x2="168.77" y2="389.9846051097452" stroke="#1f77b4" stroke-width="1"/>
  <line x1="165.865" y1="389.9576640517993" x2="171.675" y2="389.9576640517993" stroke="#1f77b4" stroke-width="1"/>
  <line x1="165.865" y1="389.9846051097452" x2="171.675" y2="389.9846051097452" stroke="#1f77b4" stroke-width="1"/>
  <rect x="161.3" y="389.96921021949044" width="14.939999999999998" height="0.007697445127348601" fill="#1f77b4" fill-opacity="0.35" stroke="#1f77b4" stroke-width="1"/>
  <line x1="161.3" y1="389.97498330333593" x2="176.24" y2="389.97498330333593" stroke="#1f77b4" stroke-width="2"/>
  <line x1="251.77" y1="389.95381532923557" x2="251.77" y2="389.9769076646178" stroke="#1f77b4" stroke-width="1"/>
  <line x1="248.865" y1="389.95381532923557" x2="254.675" y2="389.95381532923557" stroke="#1f77b4" stroke-width="1"/>
  <line x1="248.865" y1="389.9769076646178" x2="254.675" y2="389.9769076646178" stroke="#1f77b4" stroke-width="1"/>
  <rect x="244.3" y="389.9653614969267" width="14.939999999999998" height="0.007697445127462288" fill="#1f77b4" fill-opacity="0.35" stroke="#1f77b4" stroke-width="1"/>
  <line x1="244.3" y1="389.96921021949044" x2="259.24" y2="389.96921021949044" stroke="#1f77b4" stroke-width="2"/>
  <line x1="334.77" y1="389.8922357682163" x2="334.77" y2="389.961512774363" stroke="#1f77b4" stroke-width="1"/>
  <line x1="331.865" y1="389.8922357682163" x2="337.67499999999995" y2="389.8922357682163" stroke="#1f77b4" stroke-width="1"/>
  <line x1="331.865" y1="389.961512774363" x2="337.67499999999995" y2="389.961512774363" stroke="#1f77b4" stroke-width="1"/>
  <rect x="327.3" y="389.9153281035986" width="14.939999999999998" height="0.030789780509621778" fill="#1f77b4" fill-opacity="0.35" stroke="#1f77b4" stroke-width="1"/>
  <line x1="327.3" y1="389.9364960776989" x2="342.24" y2="389.9364960776989" stroke="#1f77b4" stroke-width="2"/>
  <line x1="417.77" y1="389.6613124143942" x2="417.77" y2="389.93457171641705" stroke="#1f77b4" stroke-width="1"/>
  <line x1="414.865" y1="389.6613124143942" x2="420.67499999999995" y2="389.6613124143942" stroke="#1f77b4" stroke-width="1"/>
  <line x1="414.865" y1="389.93457171641705" x2="420.67499999999995" y2="389.93457171641705" stroke="#1f77b4" stroke-width="1"/>
  <rect x="410.3" y="389.79024462027826" width="14.939999999999998" height="0.13278092844768707" fill="#1f77b4" fill-opacity="0.35" stroke="#1f77b4" stroke-width="1"/>
  <line x1="410.3" y1="389.89993321334373" x2="425.24" y2="389.89993321334373" stroke="#1f77b4" stroke-width="2"/>
  <line x1="500.77" y1="389.6536149692668" x2="500.77" y2="389.85374854257935" stroke="#1f77b4" stroke-width="1"/>
  <line x1="497.865" y1="389.6536149692668" x2="503.67499999999995" y2="389.6536149692668" stroke="#1f77b4" stroke-width="1"/>
  <line x1="497.865" y1="389.85374854257935" x2="503.67499999999995" y2="389.85374854257935" stroke="#1f77b4" stroke-width="1"/>
  <rect x="493.3" y="389.7450221301547" width="14.939999999999998" height="0.1039155092199735" fill="#1f77b4" fill-opacity="0.35" stroke="#1f77b4" stroke-width="1"/>
  <line x1="493.3" y1="389.8345049297608" x2="508.24" y2="389.8345049297608" stroke="#1f77b4" stroke-width="2"/>
  <line x1="583.77" y1="389.3033812159699" x2="583.77" y2="389.71134580772235" stroke="#1f77b4" stroke-width="1"/>
  <line x1="580.865" y1="389.3033812159699" x2="586.675" y2="389.3033812159699" stroke="#1f77b4" stroke-width="1"/>
  <line x1="580.865" y1="389.71134580772235" x2="586.675" y2="389.71134580772235" stroke="#1f77b4" stroke-width="1"/>
  <rect x="576.3" y="389.5035147892824" width="14.940000000000055" height="0.18473868305773067" fill="#1f77b4" fill-opacity="0.35" stroke="#1f77b4" stroke-width="1"/>
  <line x1="576.3" y1="389.6555393305486" x2="591.24" y2="389.6555393305486" stroke="#1f77b4" stroke-width="2"/>
  <line x1="666.77" y1="389.26104526776925" x2="666.77" y2="389.3957505574988" stroke="#1f77b4" stroke-width="1"/>
  <line x1="663.865" y1="389.26104526776925" x2="669.675" y2="389.26104526776925" stroke="#1f77b4" stroke-width="1"/>
  <line x1="663.865" y1="389.3957505574988" x2="669.675" y2="389.3957505574988" stroke="#1f77b4" stroke-width="1"/>
  <rect x="659.3" y="389.3081921191745" width="14.940000000000055" height="0.05195775460998675" fill="#1f77b4" fill-opacity="0.35" stroke="#1f77b4" stroke-width="1"/>
  <line x1="659.3" y1="389.33417099647954" x2="674.24" y2="389.33417099647954" stroke="#1f77b4" stroke-width="2"/>
  <line x1="749.77" y1="374.9899820015621" x2="749.77" y2="382.82982986382314" stroke="#1f77b4" stroke-width="1"/>
  <line x1="746.865" y1="374.9899820015621" x2="752.675" y2="374.9899820015621" stroke="#1f77b4" stroke-width="1"/>
  <line x1="746.865" y1="382.82982986382314" x2="752.675" y2="382.82982986382314" stroke="#1f77b4" stroke-width="1"/>
  <rect x="742.3" y="378.7482595850172" width="14.940000000000055" height="3.6966980224357258" fill="#1f77b4" fill-opacity="0.35" stroke="#1f77b4" stroke-width="1"/>
  <line x1="742.3" y1="381.60016300472034" x2="757.24" y2="381.60016300472034" stroke="#1f77b4" stroke-width="2"/>
  <line x1="832.77" y1="284.9221765658075" x2="832.77" y2="305.87847092516495" stroke="#1f77b4" stroke-width="1"/>
  <line x1="829.865" y1="284.9221765658075" x2="835.675" y2="284.9221765658075" stroke="#1f77b4" stroke-width="1"/>
  <line x1="829.865" y1="305.87847092516495" x2="835.675" y2="305.87847092516495" stroke="#1f77b4" stroke-width="1"/>
  <rect x="825.3" y="296.4644955343499" width="14.940000000000055" height="8.415231885534467" fill="#1f77b4" fill-opacity="0.35" stroke="#1f77b4" stroke-width="1"/>
  <line x1="825.3" y1="303.11316376314505" x2="840.24" y2="303.11316376314505" stroke="#1f77b4" stroke-width="2"/>
  <line x1="102.37" y1="390.0" x2="102.37" y2="390.0" stroke="#ff7f0e" stroke-width="1"/>
  <line x1="99.465" y1="390.0" x2="105.275" y2="390.0" stroke="#ff7f0e" stroke-width="1"/>
  <line x1="99.465" y1="390.0" x2="105.275" y2="390.0" stroke="#ff7f0e" stroke-width="1"/>
  <rect x="94.9" y="390.0" width="14.939999999999998" height="0.0" fill="#ff7f0e" fill-opacity="0.35" stroke="#ff7f0e" stroke-width="1"/>
  <line x1="94.9" y1="390.0" x2="109.84" y2="390.0" stroke="#ff7f0e" stroke-width="2"/>
  <line x1="185.37" y1="389.9961512774363" x2="185.37" y2="390.0" stroke="#ff7f0e" stroke-width="1"/>
  <line x1="182.465" y1="389.9961512774363" x2="188.275" y2="389.9961512774363" stroke="#ff7f0e" stroke-width="1"/>
  <line x1="182.465" y1="390.0" x2="188.275" y2="390.0" stroke="#ff7f0e" stroke-width="1"/>
  <rect x="177.9" y="389.9961512774363" width="14.939999999999998" height="0.0038487225637027223" fill="#ff7f0e" fill-opacity="0.35" stroke="#ff7f0e" stroke-width="1"/>
  <line x1="177.9" y1="390.0" x2="192.84" y2="390.0" stroke="#ff7f0e" stroke-width="2"/>
  <line x1="268.37" y1="389.9961512774363" x2="268.37" y2="389.9961512774363" stroke="#ff7f0e" stroke-width="1"/>
  <line x1="265.46500000000003" y1="389.9961512774363" x2="271.275" y2="389.9961512774363" stroke="#ff7f0e" stroke-width="1"/>
  <line x1="265.46500000000003" y1="389.9961512774363" x2="271.275" y2="389.9961512774363" stroke="#ff7f0e" stroke-width="1"/>
  <rect x="260.90000000000003" y="389.9961512774363" width="14.939999999999998" height="0.0" fill="#ff7f0e" fill-opacity="0.35" stroke="#ff7f0e" stroke-width="1"/>
  <line x1="260.90000000000003" y1="389.9961512774363" x2="275.84000000000003" y2="389.9961512774363" stroke="#ff7f0e" stroke-width="2"/>
  <line x1="351.37" y1="389.9923025548726" x2="351.37" y2="389.9923025548726" stroke="#ff7f0e" stroke-width="1"/>
  <line x1="348.46500000000003" y1="389.9923025548726" x2="354.275" y2="389.9923025548726" stroke="#ff7f0e" stroke-width="1"/>
  <line x1="348.46500000000003" y1="389.9923025548726" x2="354.275" y2="389.9923025548726" stroke="#ff7f0e" stroke-width="1"/>
  <rect x="343.90000000000003" y="389.9923025548726" width="14.939999999999998" height="0.0" fill="#ff7f0e" fill-opacity="0.35" stroke="#ff7f0e" stroke-width="1"/>
  <line x1="343.90000000000003" y1="389.9923025548726" x2="358.84000000000003" y2="389.9923025548726" stroke="#ff7f0e" stroke-width="2"/>
  <line x1="434.37" y1="389.9846051097452" x2="434.37" y2="389.9923025548726" stroke="#ff7f0e" stroke-width="1"/>
  <line x1="431.46500000000003" y1="389.9846051097452" x2="437.275" y2="389.9846051097452" stroke="#ff7f0e" stroke-width="1"/>
  <line x1="431.46500000000003" y1="389.9923025548726" x2="437.275" y2="389.9923025548726" stroke="#ff7f0e" stroke-width="1"/>
  <rect x="426.90000000000003" y="389.9846051097452" width="14.939999999999998" height="0.0038487225637027223" fill="#ff7f0e" fill-opacity="0.35" stroke="#ff7f0e" stroke-width="1"/>
  <line x1="426.90000000000003" y1="389.9846051097452" x2="441.84000000000003" y2="389.9846051097452" stroke="#ff7f0e" stroke-width="2"/>
  <line x1="517.37" y1="389.9576640517993" x2="517.37" y2="389.96921021949044" stroke="#ff7f0e" stroke-width="1"/>
  <line x1="514.465" y1="389.9576640517993" x2="520.275" y2="389.9576640517993" stroke="#ff7f0e" stroke-width="1"/>
  <line x1="514.465" y1="389.96921021949044" x2="520.275" y2="389.96921021949044" stroke="#ff7f0e" stroke-width="1"/>
  <rect x="509.90000000000003" y="389.961512774363" width="14.939999999999998" height="0.0038487225637027223" fill="#ff7f0e" fill-opacity="0.35" stroke="#ff7f0e" stroke-width="1"/>
  <line x1="509.90000000000003" y1="389.961512774363" x2="524.84" y2="389.961512774363" stroke="#ff7f0e" stroke-width="2"/>
  <line x1="600.37" y1="389.8691434328341" x2="600.37" y2="389.93072299385335" stroke="#ff7f0e" stroke-width="1"/>
  <line x1="597.465" y1="389.8691434328341" x2="603.275" y2="389.8691434328341" stroke="#ff7f0e" stroke-width="1"/>
  <line x1="597.465" y1="389.93072299385335" x2="603.275" y2="389.93072299385335" stroke="#ff7f0e" stroke-width="1"/>
  <rect x="592.9" y="389.8960844907801" width="14.940000000000055" height="0.02213015474126223" fill="#ff7f0e" fill-opacity="0.35" stroke="#ff7f0e" stroke-width="1"/>
  <line x1="592.9" y1="389.9134037423167" x2="607.84" y2="389.9134037423167" stroke="#ff7f0e" stroke-width="2"/>
  <line x1="683.37" y1="389.7652279236142" x2="683.37" y2="389.85759726514306" stroke="#ff7f0e" stroke-width="1"/>
  <line x1="680.465" y1="389.7652279236142" x2="686.275" y2="389.7652279236142" stroke="#ff7f0e" stroke-width="1"/>
  <line x1="680.465" y1="389.85759726514306" x2="686.275" y2="389.85759726514306" stroke="#ff7f0e" stroke-width="1"/>
  <rect x="675.9" y="389.8037151492512" width="14.940000000000055" height="0.026941057945919056" fill="#ff7f0e" fill-opacity="0.35" stroke="#ff7f0e" stroke-width="1"/>
  <line x1="675.9" y1="389.819110039506" x2="690.84" y2="389.819110039506" stroke="#ff7f0e" stroke-width="2"/>
  <line x1="766.37" y1="387.58300222999515" x2="766.37" y2="387.7484973002343" stroke="#ff7f0e" stroke-width="1"/>
  <line x1="763.465" y1="387.58300222999515" x2="769.275" y2="387.58300222999515" stroke="#ff7f0e" stroke-width="1"/>
  <line x1="763.465" y1="387.7484973002343" x2="769.275" y2="387.7484973002343" stroke="#ff7f0e" stroke-width="1"/>
  <rect x="758.9" y="387.6532414167827" width="14.940000000000055" height="0.04907121268718129" fill="#ff7f0e" fill-opacity="0.35" stroke="#ff7f0e" stroke-width="1"/>
  <line x1="758.9" y1="387.6715228489603" x2="773.84" y2="387.6715228489603" stroke="#ff7f0e" stroke-width="2"/>
  <line x1="849.37" y1="348.6262324402033" x2="849.37" y2="362.56630556593205" stroke="#ff7f0e" stroke-width="1"/>
  <line x1="846.465" y1="348.6262324402033" x2="852.275" y2="348.6262324402033" stroke="#ff7f0e" stroke-width="1"/>
  <line x1="846.465" y1="362.56630556593205" x2="852.275" y2="362.56630556593205" stroke="#ff7f0e" stroke-width="1"/>
  <rect x="841.9" y="354.85346554827316" width="14.940000000000055" height="6.055964953985153" fill="#ff7f0e" fill-opacity="0.35" stroke="#ff7f0e" stroke-width="1"/>
  <line x1="841.9" y1="359.70478033981954" x2="856.84" y2="359.70478033981954" stroke="#ff7f0e" stroke-width="2"/>
  <line x1="118.97" y1="389.9576640517993" x2="118.97" y2="389.96921021949044" stroke="#2ca02c" stroke-width="1"/>
  <line x1="116.065" y1="389.9576640517993" x2="121.875" y2="389.9576640517993" stroke="#2ca02c" stroke-width="1"/>
  <line x1="116.065" y1="389.96921021949044" x2="121.875" y2="389.96921021949044" stroke="#2ca02c" stroke-width="1"/>
  <rect x="111.5" y="389.961512774363" width="14.939999999999998" height="0.0038487225637027223" fill="#2ca02c" fill-opacity="0.35" stroke="#2ca02c" stroke-width="1"/>
  <line x1="111.5" y1="389.9653614969267" x2="126.44" y2="389.9653614969267" stroke="#2ca02c" stroke-width="2"/>
  <line x1="201.97" y1="389.93457171641705" x2="201.97" y2="389.9576640517993" stroke="#2ca02c" stroke-width="1"/>
  <line x1="199.065" y1="389.93457171641705" x2="204.875" y2="389.93457171641705" stroke="#2ca02c" stroke-width="1"/>
  <line x1="199.065" y1="389.9576640517993" x2="204.875" y2="389.9576640517993" stroke="#2ca02c" stroke-width="1"/>
  <rect x="194.5" y="389.9461178841082" width="14.939999999999998" height="0.007697445127348601" fill="#2ca02c" fill-opacity="0.35" stroke="#2ca02c" stroke-width="1"/>
  <line x1="194.5" y1="389.94996660667186" x2="209.44" y2="389.94996660667186" stroke="#2ca02c" stroke-width="2"/>
  <line x1="284.97" y1="389.93072299385335" x2="284.97" y2="389.9576640517993" stroke="#2ca02c" stroke-width="1"/>
  <line x1="282.06500000000005" y1="389.93072299385335" x2="287.875" y2="389.93072299385335" stroke="#2ca02c" stroke-width="1"/>
  <line x1="282.06500000000005" y1="389.9576640517993" x2="287.875" y2="389.9576640517993" stroke="#2ca02c" stroke-width="1"/>
  <rect x="277.5" y="389.93842043898076" width="14.939999999999998" height="0.007697445127462288" fill="#2ca02c" fill-opacity="0.35" stroke="#2ca02c" stroke-width="1"/>
  <line x1="277.5" y1="389.94226916154446" x2="292.44" y2="389.94226916154446" stroke="#2ca02c" stroke-width="2"/>
  <line x1="367.97" y1="389.94226916154446" x2="367.97" y2="389.95381532923557" stroke="#2ca02c" stroke-width="1"/>
  <line x1="365.06500000000005" y1="389.94226916154446" x2="370.875" y2="389.94226916154446" stroke="#2ca02c" stroke-width="1"/>
  <line x1="365.06500000000005" y1="389.95381532923557" x2="370.875" y2="389.95381532923557" stroke="#2ca02c" stroke-width="1"/>
  <rect x="360.5" y="389.9461178841082" width="14.939999999999998" height="0.003848722563645879" fill="#2ca02c" fill-opacity="0.35" stroke="#2ca02c" stroke-width="1"/>
  <line x1="360.5" y1="389.94996660667186" x2="375.44" y2="389.94996660667186" stroke="#2ca02c" stroke-width="2"/>
  <line x1="450.97" y1="389.8845383230889" x2="450.97" y2="389.9191768261623" stroke="#2ca02c" stroke-width="1"/>
  <line x1="448.06500000000005" y1="389.8845383230889" x2="453.875" y2="389.8845383230889" stroke="#2ca02c" stroke-width="1"/>
  <line x1="448.06500000000005" y1="389.9191768261623" x2="453.875" y2="389.9191768261623" stroke="#2ca02c" stroke-width="1"/>
  <rect x="443.5" y="389.89993321334373" width="14.939999999999998" height="0.015394890254867732" fill="#2ca02c" fill-opacity="0.35" stroke="#2ca02c" stroke-width="1"/>
  <line x1="443.5" y1="389.9076306584712" x2="458.44" y2="389.9076306584712" stroke="#2ca02c" stroke-width="2"/>
  <line x1="533.97" y1="389.81526131694227" x2="533.97" y2="389.85374854257935" stroke="#2ca02c" stroke-width="1"/>
  <line x1="531.065" y1="389.81526131694227" x2="536.875" y2="389.81526131694227" stroke="#2ca02c" stroke-width="1"/>
  <line x1="531.065" y1="389.85374854257935" x2="536.875" y2="389.85374854257935" stroke="#2ca02c" stroke-width="1"/>
  <rect x="526.5" y="389.83065620719714" width="14.940000000000055" height="0.010583987050154064" fill="#2ca02c" fill-opacity="0.35" stroke="#2ca02c" stroke-width="1"/>
  <line x1="526.5" y1="389.8345049297608" x2="541.44" y2="389.8345049297608" stroke="#2ca02c" stroke-width="2"/>
  <line x1="616.97" y1="389.638220079012" x2="616.97" y2="389.72674069797716" stroke="#2ca02c" stroke-width="1"/>
  <line x1="614.065" y1="389.638220079012" x2="619.875" y2="389.638220079012" stroke="#2ca02c" stroke-width="1"/>
  <line x1="614.065" y1="389.72674069797716" x2="619.875" y2="389.72674069797716" stroke="#2ca02c" stroke-width="1"/>
  <rect x="609.5" y="389.6584258724714" width="14.940000000000055" height="0.03656286435517586" fill="#2ca02c" fill-opacity="0.35" stroke="#2ca02c" stroke-width="1"/>
  <line x1="609.5" y1="389.6786316659309" x2="624.44" y2="389.6786316659309" stroke="#2ca02c" stroke-width="2"/>
  <line x1="699.97" y1="389.35726333186176" x2="699.97" y2="389.4342377831358" stroke="#2ca02c" stroke-width="1"/>
  <line x1="697.065" y1="389.35726333186176" x2="702.875" y2="389.35726333186176" stroke="#2ca02c" stroke-width="1"/>
  <line x1="697.065" y1="389.4342377831358" x2="702.875" y2="389.4342377831358" stroke="#2ca02c" stroke-width="1"/>
  <rect x="692.5" y="389.380355667244" width="14.940000000000055" height="0.030789780509621778" fill="#2ca02c" fill-opacity="0.35" stroke="#2ca02c" stroke-width="1"/>
  <line x1="692.5" y1="389.40152364134434" x2="707.44" y2="389.40152364134434" stroke="#2ca02c" stroke-width="2"/>
  <line x1="782.97" y1="383.22239956532076" x2="782.97" y2="383.63036415707313" stroke="#2ca02c" stroke-width="1"/>
  <line x1="780.065" y1="383.22239956532076" x2="785.875" y2="383.22239956532076" stroke="#2ca02c" stroke-width="1"/>
  <line x1="780.065" y1="383.63036415707313" x2="785.875" y2="383.63036415707313" stroke="#2ca02c" stroke-width="1"/>
  <rect x="775.5" y="383.3012983778766" width="14.940000000000055" height="0.20398229587624428" fill="#2ca02c" fill-opacity="0.35" stroke="#2ca02c" stroke-width="1"/>
  <line x1="775.5" y1="383.44370111273366" x2="790.44" y2="383.44370111273366" stroke="#2ca02c" stroke-width="2"/>
  <line x1="865.97" y1="254.51341958999788" x2="865.97" y2="314.72283537655227" stroke="#2ca02c" stroke-width="1"/>
  <line x1="863.065" y1="254.51341958999788" x2="868.875" y2="254.51341958999788" stroke="#2ca02c" stroke-width="1"/>
  <line x1="863.065" y1="314.72283537655227" x2="868.875" y2="314.72283537655227" stroke="#2ca02c" stroke-width="1"/>
  <rect x="858.5" y="289.0537802379416" width="14.940000000000055" height="23.914999830203442" fill="#2ca02c" fill-opacity="0.35" stroke="#2ca02c" stroke-width="1"/>
  <line x1="858.5" y1="298.32920161646354" x2="873.44" y2="298.32920161646354" stroke="#2ca02c" stroke-width="2"/>
  <line x1="135.57" y1="389.9191768261623" x2="135.57" y2="389.9884538323089" stroke="#d62728" stroke-width="1"/>
  <line x1="132.665" y1="389.9191768261623" x2="138.475" y2="389.9191768261623" stroke="#d62728" stroke-width="1"/>
  <line x1="132.665" y1="389.9884538323089" x2="138.475" y2="389.9884538323089" stroke="#d62728" stroke-width="1"/>
  <rect x="128.1" y="389.95092878731276" width="14.939999999999998" height="0.02886541922782726" fill="#d62728" fill-opacity="0.35" stroke="#d62728" stroke-width="1"/>
  <line x1="128.1" y1="389.9711345807723" x2="143.04" y2="389.9711345807723" stroke="#d62728" stroke-width="2"/>
  <line x1="218.57000000000002" y1="389.8345049297608" x2="218.57000000000002" y2="389.9846051097452" stroke="#d62728" stroke-width="1"/>
  <line x1="215.66500000000002" y1="389.8345049297608" x2="221.47500000000002" y2="389.8345049297608" stroke="#d62728" stroke-width="1"/>
  <line x1="215.66500000000002" y1="389.9846051097452" x2="221.47500000000002" y2="389.9846051097452" stroke="#d62728" stroke-width="1"/>
  <rect x="211.10000000000002" y="389.90859283911203" width="14.939999999999998" height="0.06446610294210586" fill="#d62728" fill-opacity="0.35" stroke="#d62728" stroke-width="1"/>
  <line x1="211.10000000000002" y1="389.961512774363" x2="226.04000000000002" y2="389.961512774363" stroke="#d62728" stroke-width="2"/>
  <line x1="301.57000000000005" y1="389.8845383230889" x2="301.57000000000005" y2="389.9769076646178" stroke="#d62728" stroke-width="1"/>
  <line x1="298.6650000000001" y1="389.8845383230889" x2="304.475" y2="389.8845383230889" stroke="#d62728" stroke-width="1"/>
  <line x1="298.6650000000001" y1="389.9769076646178" x2="304.475" y2="389.9769076646178" stroke="#d62728" stroke-width="1"/>
  <rect x="294.1" y="389.9278364519306" width="14.939999999999998" height="0.032714141791416296" fill="#d62728" fill-opacity="0.35" stroke="#d62728" stroke-width="1"/>
  <line x1="294.1" y1="389.9518909679537" x2="309.04" y2="389.9518909679537" stroke="#d62728" stroke-width="2"/>
  <line x1="384.57000000000005" y1="389.84220237488825" x2="384.57000000000005" y2="389.96921021949044" stroke="#d62728" stroke-width="1"/>
  <line x1="381.6650000000001" y1="389.84220237488825" x2="387.475" y2="389.84220237488825" stroke="#d62728" stroke-width="1"/>
  <line x1="381.6650000000001" y1="389.96921021949044" x2="387.475" y2="389.96921021949044" stroke="#d62728" stroke-width="1"/>
  <rect x="377.1" y="389.90570629718934" width="14.939999999999998" height="0.04426030948252446" fill="#d62728" fill-opacity="0.35" stroke="#d62728" stroke-width="1"/>
  <line x1="377.1" y1="389.93072299385335" x2="392.04" y2="389.93072299385335" stroke="#d62728" stroke-width="2"/>
  <line x1="467.57000000000005" y1="389.819110039506" x2="467.57000000000005" y2="389.93457171641705" stroke="#d62728" stroke-width="1"/>
  <line x1="464.6650000000001" y1="389.819110039506" x2="470.475" y2="389.819110039506" stroke="#d62728" stroke-width="1"/>
  <line x1="464.6650000000001" y1="389.93457171641705" x2="470.475" y2="389.93457171641705" stroke="#d62728" stroke-width="1"/>
  <rect x="460.1" y="389.8518241812975" width="14.939999999999998" height="0.05484429653273537" fill="#d62728" fill-opacity="0.35" stroke="#d62728" stroke-width="1"/>
  <line x1="460.1" y1="389.87491651667966" x2="475.04" y2="389.87491651667966" stroke="#d62728" stroke-width="2"/>
  <line x1="550.57" y1="388.8222908955072" x2="550.57" y2="389.81526131694227" stroke="#d62728" stroke-width="1"/>
  <line x1="547.6650000000001" y1="388.8222908955072" x2="553.475" y2="388.8222908955072" stroke="#d62728" stroke-width="1"/>
  <line x1="547.6650000000001" y1="389.81526131694227" x2="553.475" y2="389.81526131694227" stroke="#d62728" stroke-width="1"/>
  <rect x="543.1" y="389.06764695894316" width="14.940000000000055" height="0.5927032748101624" fill="#d62728" fill-opacity="0.35" stroke="#d62728" stroke-width="1"/>
  <line x1="543.1" y1="389.4226916154447" x2="558.0400000000001" y2="389.4226916154447" stroke="#d62728" stroke-width="2"/>
  <line x1="633.5699999999999" y1="386.2013108296261" x2="633.5699999999999" y2="389.48811989902765" stroke="#d62728" stroke-width="1"/>
  <line x1="630.665" y1="386.2013108296261" x2="636.4749999999999" y2="386.2013108296261" stroke="#d62728" stroke-width="1"/>
  <line x1="630.665" y1="389.48811989902765" x2="636.4749999999999" y2="389.48811989902765" stroke="#d62728" stroke-width="1"/>
  <rect x="626.0999999999999" y="387.9986642668749" width="14.940000000000055" height="1.2691162653807737" fill="#d62728" fill-opacity="0.35" stroke="#d62728" stroke-width="1"/>
  <line x1="626.0999999999999" y1="388.61445987706725" x2="641.04" y2="388.61445987706725" stroke="#d62728" stroke-width="2"/>
  <line x1="716.5699999999999" y1="386.6708549823977" x2="716.5699999999999" y2="389.2148605970048" stroke="#d62728" stroke-width="1"/>
  <line x1="713.665" y1="386.6708549823977" x2="719.4749999999999" y2="386.6708549823977" stroke="#d62728" stroke-width="1"/>
  <line x1="713.665" y1="389.2148605970048" x2="719.4749999999999" y2="389.2148605970048" stroke="#d62728" stroke-width="1"/>
  <rect x="709.0999999999999" y="388.0987310535312" width="14.940000000000055" height="1.042041634122313" fill="#d62728" fill-opacity="0.35" stroke="#d62728" stroke-width="1"/>
  <line x1="709.0999999999999" y1="388.7626356957698" x2="724.04" y2="388.7626356957698" stroke="#d62728" stroke-width="2"/>
  <line x1="799.5699999999999" y1="355.65399984152316" x2="799.5699999999999" y2="381.68675926240365" stroke="#d62728" stroke-width="1"/>
  <line x1="796.665" y1="355.65399984152316" x2="802.4749999999999" y2="355.65399984152316" stroke="#d62728" stroke-width="1"/>
  <line x1="796.665" y1="381.68675926240365" x2="802.4749999999999" y2="381.68675926240365" stroke="#d62728" stroke-width="1"/>
  <rect x="792.0999999999999" y="367.2992721386446" width="14.940000000000055" height="13.673549088192317" fill="#d62728" fill-opacity="0.35" stroke="#d62728" stroke-width="1"/>
  <line x1="792.0999999999999" y1="377.1702833338993" x2="807.04" y2="377.1702833338993" stroke="#d62728" stroke-width="2"/>
  <line x1="882.5699999999999" y1="50.0" x2="882.5699999999999" y2="225.7596133165801" stroke="#d62728" stroke-width="1"/>
  <line x1="879.665" y1="50.0" x2="885.4749999999999" y2="50.0" stroke="#d62728" stroke-width="1"/>
  <line x1="879.665" y1="225.7596133165801" x2="885.4749999999999" y2="225.7596133165801" stroke="#d62728" stroke-width="1"/>
  <rect x="875.0999999999999" y="123.85217509423711" width="14.940000000000055" height="75.53791557713859" fill="#d62728" fill-opacity="0.35" stroke="#d62728" stroke-width="1"/>
  <line x1="875.0999999999999" y1="166.18138803047282" x2="890.04" y2="166.18138803047282" stroke="#d62728" stroke-width="2"/>
  <text x="918" y="62" font-family="system-ui, -apple-system" font-size="12" font-weight="600">handlers</text>
  <line x1="918" y1="76" x2="936" y2="76" stroke="#1f77b4" stroke-width="6" stroke-linecap="round" opacity="0.6"/>
  <text x="944" y="80" font-family="system-ui, -apple-system" font-size="12">ruby</text>
  <line x1="918" y1="94" x2="936" y2="94" stroke="#ff7f0e" stroke-width="6" stroke-linecap="round" opacity="0.6"/>
  <text x="944" y="98" font-family="system-ui, -apple-system" font-size="12">go</text>
  <line x1="918" y1="112" x2="936" y2="112" stroke="#2ca02c" stroke-width="6" stroke-linecap="round" opacity="0.6"/>
  <text x="944" y="116" font-family="system-ui, -apple-system" font-size="12">python</text>
  <line x1="918" y1="130" x2="936" y2="130" stroke="#d62728" stroke-width="6" stroke-linecap="round" opacity="0.6"/>
  <text x="944" y="134" font-family="system-ui, -apple-system" font-size="12">node</text>
</svg>
