<?xml version="1.0" encoding="UTF-8"?>
<svg xmlns="http://www.w3.org/2000/svg" width="1120" height="450" viewBox="0 0 1120 450">
  <rect x="0" y="0" width="1120" height="450" fill="white"/>
  <text x="560" y="24" text-anchor="middle" font-family="system-ui, -apple-system" font-size="16">Memory by page size (raw runs)</text>
  <line x1="70" y1="390" x2="900" y2="390" stroke="#111" stroke-width="1"/>
  <line x1="70" y1="50" x2="70" y2="390" stroke="#111" stroke-width="1"/>
  <line x1="66" y1="50.0" x2="70" y2="50.0" stroke="#111" stroke-width="1"/>
  <text x="62" y="54.0" text-anchor="end" font-family="system-ui, -apple-system" font-size="11">2.31e+08</text>
  <line x1="66" y1="135.0" x2="70" y2="135.0" stroke="#111" stroke-width="1"/>
  <text x="62" y="139.0" text-anchor="end" font-family="system-ui, -apple-system" font-size="11">1.75e+08</text>
  <line x1="70" y1="135.0" x2="900" y2="135.0" stroke="#eee" stroke-width="1"/>
  <line x1="66" y1="220.0" x2="70" y2="220.0" stroke="#111" stroke-width="1"/>
  <text x="62" y="224.0" text-anchor="end" font-family="system-ui, -apple-system" font-size="11">1.19e+08</text>
  <line x1="70" y1="220.0" x2="900" y2="220.0" stroke="#eee" stroke-width="1"/>
  <line x1="66" y1="305.0" x2="70" y2="305.0" stroke="#111" stroke-width="1"/>
  <text x="62" y="309.0" text-anchor="end" font-family="system-ui, -apple-system" font-size="11">6.36e+07</text>
  <line x1="70" y1="305.0" x2="900" y2="305.0" stroke="#eee" stroke-width="1"/>
  <line x1="66" y1="390.0" x2="70" y2="390.0" stroke="#111" stroke-width="1"/>
  <text x="62" y="394.0" text-anchor="end" font-family="system-ui, -apple-system" font-size="11">7892992</text>
  <text x="485" y="432" text-anchor="middle" font-family="system-ui, -apple-system" font-size="12">per_page</text>
  <text x="18" y="220" text-anchor="middle" font-family="system-ui, -apple-system" font-size="12" transform="rotate(-90 18 220)">Memory (bytes)</text>
  <text x="111.5" y="410" text-anchor="middle" font-family="system-ui, -apple-system" font-size="11">1</text>
  <text x="194.5" y="410" text-anchor="middle" font-family="system-ui, -apple-system" font-size="11">10</text>
  <text x="277.5" y="410" text-anchor="middle" font-family="system-ui, -apple-system" font-size="11">25</text>
  <text x="360.5" y="410" text-anchor="middle" font-family="system-ui, -apple-system" font-size="11">50</text>
  <text x="443.5" y="410" text-anchor="middle" font-family="system-ui, -apple-system" font-size="11">100</text>
  <text x="526.5" y="410" text-anchor="middle" font-family="system-ui, -apple-system" font-size="11">250</text>
  <text x="609.5" y="410" text-anchor="middle" font-family="system-ui, -apple-system" font-size="11">500</text>
  <text x="692.5" y="410" text-anchor="middle" font-family="system-ui, -apple-system" font-size="11">1000</text>
  <text x="775.5" y="410" text-anchor="middle" font-family="system-ui, -apple-system" font-size="11">10000</text>
  <text x="858.5" y="410" text-anchor="middle" font-family="system-ui, -apple-system" font-size="11">100000</text>
  <line x1="85.77" y1="209.01794249577173" x2="85.77" y2="242.6204132656813" stroke="#1f77b4" stroke-width="1"/>
  <line x1="82.865" y1="209.01794249577173" x2="88.675" y2="209.01794249577173" stroke="#1f77b4" stroke-width="1"/>
  <line x1="82.865" y1="242.6204132656813" x2="88.675" y2="242.6204132656813" stroke="#1f77b4" stroke-width="1"/>
  <rect x="78.3" y="210.91808221192736" width="14.939999999999998" height="16.151187587322596" fill="#1f77b4" fill-opacity="0.35" stroke="#1f77b4" stroke-width="1"/>
  <line x1="78.3" y1="215.2183984116479" x2="93.24" y2="215.2183984116479" stroke="#1f77b4" stroke-width="2"/>
  <line x1="168.77" y1="182.6160011765571" x2="168.77" y2="207.01779542613428" stroke="#1f77b4" stroke-width="1"/>
  <line x1="165.865" y1="182.6160011765571" x2="171.675" y2="182.6160011765571" stroke="#1f77b4" stroke-width="1"/>
  <line x1="165.865" y1="207.01779542613428" x2="171.675" y2="207.01779542613428" stroke="#1f77b4" stroke-width="1"/>
  <rect x="161.3" y="184.31612618574894" width="14.939999999999998" height="16.05118023384074" fill="#1f77b4" fill-opacity="0.35" stroke="#1f77b4" stroke-width="1"/>
  <line x1="161.3" y1="191.7166703434076" x2="176.24" y2="191.7166703434076" stroke="#1f77b4" stroke-width="2"/>
  <line x1="251.77" y1="182.01595705566587" x2="251.77" y2="182.6160011765571" stroke="#1f77b4" stroke-width="1"/>
  <line x1="248.865" y1="182.01595705566587" x2="254.675" y2="182.01595705566587" stroke="#1f77b4" stroke-width="1"/>
  <line x1="248.865" y1="182.6160011765571" x2="254.675" y2="182.6160011765571" stroke="#1f77b4" stroke-width="1"/>
  <rect x="244.3" y="182.2159717626296" width="14.939999999999998" height="0.40002941392748426" fill="#1f77b4" fill-opacity="0.35" stroke="#1f77b4" stroke-width="1"/>
  <line x1="244.3" y1="182.41598646959335" x2="259.24" y2="182.41598646959335" stroke="#1f77b4" stroke-width="2"/>
  <line x1="334.77" y1="181.61592764173835" x2="334.77" y2="182.01595705566587" stroke="#1f77b4" stroke-width="1"/>
  <line x1="331.865" y1="181.61592764173835" x2="337.67499999999995" y2="181.61592764173835" stroke="#1f77b4" stroke-width="1"/>
  <line x1="331.865" y1="182.01595705566587" x2="337.67499999999995" y2="182.01595705566587" stroke="#1f77b4" stroke-width="1"/>
  <rect x="327.3" y="181.6659313184793" width="14.939999999999998" height="0.35002573718657004" fill="#1f77b4" fill-opacity="0.35" stroke="#1f77b4" stroke-width="1"/>
  <line x1="327.3" y1="181.91594970218398" x2="342.24" y2="181.91594970218398" stroke="#1f77b4" stroke-width="2"/>
  <line x1="417.77" y1="181.01588352084713" x2="417.77" y2="181.61592764173835" stroke="#1f77b4" stroke-width="1"/>
  <line x1="414.865" y1="181.01588352084713" x2="420.67499999999995" y2="181.01588352084713" stroke="#1f77b4" stroke-width="1"/>
  <line x1="414.865" y1="181.61592764173835" x2="420.67499999999995" y2="181.61592764173835" stroke="#1f77b4" stroke-width="1"/>
  <rect x="410.3" y="181.01588352084713" width="14.939999999999998" height="0.6000441208912264" fill="#1f77b4" fill-opacity="0.35" stroke="#1f77b4" stroke-width="1"/>
  <line x1="410.3" y1="181.4159129347746" x2="425.24" y2="181.4159129347746" stroke="#1f77b4" stroke-width="2"/>
  <line x1="500.77" y1="180.21582469299213" x2="500.77" y2="181.01588352084713" stroke="#1f77b4" stroke-width="1"/>
  <line x1="497.865" y1="180.21582469299213" x2="503.67499999999995" y2="180.21582469299213" stroke="#1f77b4" stroke-width="1"/>
  <line x1="497.865" y1="181.01588352084713" x2="503.67499999999995" y2="181.01588352084713" stroke="#1f77b4" stroke-width="1"/>
  <rect x="493.3" y="180.41583939995587" width="14.939999999999998" height="0.35002573718657004" fill="#1f77b4" fill-opacity="0.35" stroke="#1f77b4" stroke-width="1"/>
  <line x1="493.3" y1="180.41583939995587" x2="508.24" y2="180.41583939995587" stroke="#1f77b4" stroke-width="2"/>
  <line x1="583.77" y1="179.41576586513713" x2="583.77" y2="180.21582469299213" stroke="#1f77b4" stroke-width="1"/>
  <line x1="580.865" y1="179.41576586513713" x2="586.675" y2="179.41576586513713" stroke="#1f77b4" stroke-width="1"/>
  <line x1="580.865" y1="180.21582469299213" x2="586.675" y2="180.21582469299213" stroke="#1f77b4" stroke-width="1"/>
  <rect x="576.3" y="179.6157805721009" width="14.940000000000055" height="0.40002941392748426" fill="#1f77b4" fill-opacity="0.35" stroke="#1f77b4" stroke-width="1"/>
  <line x1="576.3" y1="179.71578792558276" x2="591.24" y2="179.71578792558276" stroke="#1f77b4" stroke-width="2"/>
  <line x1="666.77" y1="178.61570703728216" x2="666.77" y2="179.41576586513713" stroke="#1f77b4" stroke-width="1"/>
  <line x1="663.865" y1="178.61570703728216" x2="669.675" y2="178.61570703728216" stroke="#1f77b4" stroke-width="1"/>
  <line x1="663.865" y1="179.41576586513713" x2="669.675" y2="179.41576586513713" stroke="#1f77b4" stroke-width="1"/>
  <rect x="659.3" y="178.66571071402308" width="14.940000000000055" height="0.35002573718657004" fill="#1f77b4" fill-opacity="0.35" stroke="#1f77b4" stroke-width="1"/>
  <line x1="659.3" y1="178.90947863813517" x2="674.24" y2="178.90947863813517" stroke="#1f77b4" stroke-width="2"/>
  <line x1="749.77" y1="176.12802411942056" x2="749.77" y2="177.30936098242518" stroke="#1f77b4" stroke-width="1"/>
  <line x1="746.865" y1="176.12802411942056" x2="752.675" y2="176.12802411942056" stroke="#1f77b4" stroke-width="1"/>
  <line x1="746.865" y1="177.30936098242518" x2="752.675" y2="177.30936098242518" stroke="#1f77b4" stroke-width="1"/>
  <rect x="742.3" y="176.32803882638427" width="14.940000000000055" height="0.6000441208912548" fill="#1f77b4" fill-opacity="0.35" stroke="#1f77b4" stroke-width="1"/>
  <line x1="742.3" y1="176.32803882638427" x2="757.24" y2="176.32803882638427" stroke="#1f77b4" stroke-width="2"/>
  <line x1="832.77" y1="143.13809838958747" x2="832.77" y2="150.61364806235753" stroke="#1f77b4" stroke-width="1"/>
  <line x1="829.865" y1="143.13809838958747" x2="835.675" y2="143.13809838958747" stroke="#1f77b4" stroke-width="1"/>
  <line x1="829.865" y1="150.61364806235753" x2="835.675" y2="150.61364806235753" stroke="#1f77b4" stroke-width="1"/>
  <rect x="825.3" y="144.76946834326054" width="14.940000000000055" height="3.9940436796823064" fill="#1f77b4" fill-opacity="0.35" stroke="#1f77b4" stroke-width="1"/>
  <line x1="825.3" y1="148.0134568718288" x2="840.24" y2="148.0134568718288" stroke="#1f77b4" stroke-width="2"/>
  <line x1="102.37" y1="390.0" x2="102.37" y2="390.0" stroke="#ff7f0e" stroke-width="1"/>
  <line x1="99.465" y1="390.0" x2="105.275" y2="390.0" stroke="#ff7f0e" stroke-width="1"/>
  <line x1="99.465" y1="390.0" x2="105.275" y2="390.0" stroke="#ff7f0e" stroke-width="1"/>
  <rect x="94.9" y="390.0" width="14.939999999999998" height="0.0" fill="#ff7f0e" fill-opacity="0.35" stroke="#ff7f0e" stroke-width="1"/>
  <line x1="94.9" y1="390.0" x2="109.84" y2="390.0" stroke="#ff7f0e" stroke-width="2"/>
  <line x1="185.37" y1="390.0" x2="185.37" y2="390.0" stroke="#ff7f0e" stroke-width="1"/>
  <line x1="182.465" y1="390.0" x2="188.275" y2="390.0" stroke="#ff7f0e" stroke-width="1"/>
  <line x1="182.465" y1="390.0" x2="188.275" y2="390.0" stroke="#ff7f0e" stroke-width="1"/>
  <rect x="177.9" y="390.0" width="14.939999999999998" height="0.0" fill="#ff7f0e" fill-opacity="0.35" stroke="#ff7f0e" stroke-width="1"/>
  <line x1="177.9" y1="390.0" x2="192.84" y2="390.0" stroke="#ff7f0e" stroke-width="2"/>
  <line x1="268.37" y1="390.0" x2="268.37" y2="390.0" stroke="#ff7f0e" stroke-width="1"/>
  <line x1="265.46500000000003" y1="390.0" x2="271.275" y2="390.0" stroke="#ff7f0e" stroke-width="1"/>
  <line x1="265.46500000000003" y1="390.0" x2="271.275" y2="390.0" stroke="#ff7f0e" stroke-width="1"/>
  <rect x="260.90000000000003" y="390.0" width="14.939999999999998" height="0.0" fill="#ff7f0e" fill-opacity="0.35" stroke="#ff7f0e" stroke-width="1"/>
  <line x1="260.90000000000003" y1="390.0" x2="275.84000000000003" y2="390.0" stroke="#ff7f0e" stroke-width="2"/>
  <line x1="351.37" y1="390.0" x2="351.37" y2="390.0" stroke="#ff7f0e" stroke-width="1"/>
  <line x1="348.46500000000003" y1="390.0" x2="354.275" y2="390.0" stroke="#ff7f0e" stroke-width="1"/>
  <line x1="348.46500000000003" y1="390.0" x2="354.275" y2="390.0" stroke="#ff7f0e" stroke-width="1"/>
  <rect x="343.90000000000003" y="390.0" width="14.939999999999998" height="0.0" fill="#ff7f0e" fill-opacity="0.35" stroke="#ff7f0e" stroke-width="1"/>
  <line x1="343.90000000000003" y1="390.0" x2="358.84000000000003" y2="390.0" stroke="#ff7f0e" stroke-width="2"/>
  <line x1="434.37" y1="390.0" x2="434.37" y2="390.0" stroke="#ff7f0e" stroke-width="1"/>
  <line x1="431.46500000000003" y1="390.0" x2="437.275" y2="390.0" stroke="#ff7f0e" stroke-width="1"/>
  <line x1="431.46500000000003" y1="390.0" x2="437.275" y2="390.0" stroke="#ff7f0e" stroke-width="1"/>
  <rect x="426.90000000000003" y="390.0" width="14.939999999999998" height="0.0" fill="#ff7f0e" fill-opacity="0.35" stroke="#ff7f0e" stroke-width="1"/>
  <line x1="426.90000000000003" y1="390.0" x2="441.84000000000003" y2="390.0" stroke="#ff7f0e" stroke-width="2"/>
  <line x1="517.37" y1="389.79998529303623" x2="517.37" y2="389.79998529303623" stroke="#ff7f0e" stroke-width="1"/>
  <line x1="514.465" y1="389.79998529303623" x2="520.275" y2="389.79998529303623" stroke="#ff7f0e" stroke-width="1"/>
  <line x1="514.465" y1="389.79998529303623" x2="520.275" y2="389.79998529303623" stroke="#ff7f0e" stroke-width="1"/>
  <rect x="509.90000000000003" y="389.79998529303623" width="14.939999999999998" height="0.0" fill="#ff7f0e" fill-opacity="0.35" stroke="#ff7f0e" stroke-width="1"/>
  <line x1="509.90000000000003" y1="389.79998529303623" x2="524.84" y2="389.79998529303623" stroke="#ff7f0e" stroke-width="2"/>
  <line x1="600.37" y1="386.58724906243106" x2="600.37" y2="389.79998529303623" stroke="#ff7f0e" stroke-width="1"/>
  <line x1="597.465" y1="386.58724906243106" x2="603.275" y2="386.58724906243106" stroke="#ff7f0e" stroke-width="1"/>
  <line x1="597.465" y1="389.79998529303623" x2="603.275" y2="389.79998529303623" stroke="#ff7f0e" stroke-width="1"/>
  <rect x="592.9" y="386.58724906243106" width="14.940000000000055" height="3.2127362306051737" fill="#ff7f0e" fill-opacity="0.35" stroke="#ff7f0e" stroke-width="1"/>
  <line x1="592.9" y1="388.19361717773364" x2="607.84" y2="388.19361717773364" stroke="#ff7f0e" stroke-width="2"/>
  <line x1="683.37" y1="386.18721964850357" x2="683.37" y2="386.58724906243106" stroke="#ff7f0e" stroke-width="1"/>
  <line x1="680.465" y1="386.18721964850357" x2="686.275" y2="386.18721964850357" stroke="#ff7f0e" stroke-width="1"/>
  <line x1="680.465" y1="386.58724906243106" x2="686.275" y2="386.58724906243106" stroke="#ff7f0e" stroke-width="1"/>
  <rect x="675.9" y="386.18721964850357" width="14.940000000000055" height="0.40002941392748426" fill="#ff7f0e" fill-opacity="0.35" stroke="#ff7f0e" stroke-width="1"/>
  <line x1="675.9" y1="386.18721964850357" x2="690.84" y2="386.18721964850357" stroke="#ff7f0e" stroke-width="2"/>
  <line x1="766.37" y1="385.5871755276123" x2="766.37" y2="386.18721964850357" stroke="#ff7f0e" stroke-width="1"/>
  <line x1="763.465" y1="385.5871755276123" x2="769.275" y2="385.5871755276123" stroke="#ff7f0e" stroke-width="1"/>
  <line x1="763.465" y1="386.18721964850357" x2="769.275" y2="386.18721964850357" stroke="#ff7f0e" stroke-width="1"/>
  <rect x="758.9" y="385.5871755276123" width="14.940000000000055" height="0.293771600853006" fill="#ff7f0e" fill-opacity="0.35" stroke="#ff7f0e" stroke-width="1"/>
  <line x1="758.9" y1="385.7871902345761" x2="773.84" y2="385.7871902345761" stroke="#ff7f0e" stroke-width="2"/>
  <line x1="849.37" y1="383.3995146701963" x2="849.37" y2="385.3496580630929" stroke="#ff7f0e" stroke-width="1"/>
  <line x1="846.465" y1="383.3995146701963" x2="852.275" y2="383.3995146701963" stroke="#ff7f0e" stroke-width="1"/>
  <line x1="846.465" y1="385.3496580630929" x2="852.275" y2="385.3496580630929" stroke="#ff7f0e" stroke-width="1"/>
  <rect x="841.9" y="384.24957717479225" width="14.940000000000055" height="0.6734870211045063" fill="#ff7f0e" fill-opacity="0.35" stroke="#ff7f0e" stroke-width="1"/>
  <line x1="841.9" y1="384.4527171115523" x2="856.84" y2="384.4527171115523" stroke="#ff7f0e" stroke-width="2"/>
  <line x1="118.97" y1="331.76446797558646" x2="118.97" y2="331.76446797558646" stroke="#2ca02c" stroke-width="1"/>
  <line x1="116.065" y1="331.76446797558646" x2="121.875" y2="331.76446797558646" stroke="#2ca02c" stroke-width="1"/>
  <line x1="116.065" y1="331.76446797558646" x2="121.875" y2="331.76446797558646" stroke="#2ca02c" stroke-width="1"/>
  <rect x="111.5" y="331.76446797558646" width="14.939999999999998" height="0.0" fill="#2ca02c" fill-opacity="0.35" stroke="#2ca02c" stroke-width="1"/>
  <line x1="111.5" y1="331.76446797558646" x2="126.44" y2="331.76446797558646" stroke="#2ca02c" stroke-width="2"/>
  <line x1="201.97" y1="331.76446797558646" x2="201.97" y2="331.76446797558646" stroke="#2ca02c" stroke-width="1"/>
  <line x1="199.065" y1="331.76446797558646" x2="204.875" y2="331.76446797558646" stroke="#2ca02c" stroke-width="1"/>
  <line x1="199.065" y1="331.76446797558646" x2="204.875" y2="331.76446797558646" stroke="#2ca02c" stroke-width="1"/>
  <rect x="194.5" y="331.76446797558646" width="14.939999999999998" height="0.0" fill="#2ca02c" fill-opacity="0.35" stroke="#2ca02c" stroke-width="1"/>
  <line x1="194.5" y1="331.76446797558646" x2="209.44" y2="331.76446797558646" stroke="#2ca02c" stroke-width="2"/>
  <line x1="284.97" y1="331.76446797558646" x2="284.97" y2="331.76446797558646" stroke="#2ca02c" stroke-width="1"/>
  <line x1="282.06500000000005" y1="331.76446797558646" x2="287.875" y2="331.76446797558646" stroke="#2ca02c" stroke-width="1"/>
  <line x1="282.06500000000005" y1="331.76446797558646" x2="287.875" y2="331.76446797558646" stroke="#2ca02c" stroke-width="1"/>
  <rect x="277.5" y="331.76446797558646" width="14.939999999999998" height="0.0" fill="#2ca02c" fill-opacity="0.35" stroke="#2ca02c" stroke-width="1"/>
  <line x1="277.5" y1="331.76446797558646" x2="292.44" y2="331.76446797558646" stroke="#2ca02c" stroke-width="2"/>
  <line x1="367.97" y1="331.76446797558646" x2="367.97" y2="331.76446797558646" stroke="#2ca02c" stroke-width="1"/>
  <line x1="365.06500000000005" y1="331.76446797558646" x2="370.875" y2="331.76446797558646" stroke="#2ca02c" stroke-width="1"/>
  <line x1="365.06500000000005" y1="331.76446797558646" x2="370.875" y2="331.76446797558646" stroke="#2ca02c" stroke-width="1"/>
  <rect x="360.5" y="331.76446797558646" width="14.939999999999998" height="0.0" fill="#2ca02c" fill-opacity="0.35" stroke="#2ca02c" stroke-width="1"/>
  <line x1="360.5" y1="331.76446797558646" x2="375.44" y2="331.76446797558646" stroke="#2ca02c" stroke-width="2"/>
  <line x1="450.97" y1="331.76446797558646" x2="450.97" y2="331.76446797558646" stroke="#2ca02c" stroke-width="1"/>
  <line x1="448.06500000000005" y1="331.76446797558646" x2="453.875" y2="331.76446797558646" stroke="#2ca02c" stroke-width="1"/>
  <line x1="448.06500000000005" y1="331.76446797558646" x2="453.875" y2="331.76446797558646" stroke="#2ca02c" stroke-width="1"/>
  <rect x="443.5" y="331.76446797558646" width="14.939999999999998" height="0.0" fill="#2ca02c" fill-opacity="0.35" stroke="#2ca02c" stroke-width="1"/>
  <line x1="443.5" y1="331.76446797558646" x2="458.44" y2="331.76446797558646" stroke="#2ca02c" stroke-width="2"/>
  <line x1="533.97" y1="331.76446797558646" x2="533.97" y2="331.76446797558646" stroke="#2ca02c" stroke-width="1"/>
  <line x1="531.065" y1="331.76446797558646" x2="536.875" y2="331.76446797558646" stroke="#2ca02c" stroke-width="1"/>
  <line x1="531.065" y1="331.76446797558646" x2="536.875" y2="331.76446797558646" stroke="#2ca02c" stroke-width="1"/>
  <rect x="526.5" y="331.76446797558646" width="14.940000000000055" height="0.0" fill="#2ca02c" fill-opacity="0.35" stroke="#2ca02c" stroke-width="1"/>
  <line x1="526.5" y1="331.76446797558646" x2="541.44" y2="331.76446797558646" stroke="#2ca02c" stroke-width="2"/>
  <line x1="616.97" y1="331.76446797558646" x2="616.97" y2="331.76446797558646" stroke="#2ca02c" stroke-width="1"/>
  <line x1="614.065" y1="331.76446797558646" x2="619.875" y2="331.76446797558646" stroke="#2ca02c" stroke-width="1"/>
  <line x1="614.065" y1="331.76446797558646" x2="619.875" y2="331.76446797558646" stroke="#2ca02c" stroke-width="1"/>
  <rect x="609.5" y="331.76446797558646" width="14.940000000000055" height="0.0" fill="#2ca02c" fill-opacity="0.35" stroke="#2ca02c" stroke-width="1"/>
  <line x1="609.5" y1="331.76446797558646" x2="624.44" y2="331.76446797558646" stroke="#2ca02c" stroke-width="2"/>
  <line x1="699.97" y1="331.5644532686227" x2="699.97" y2="333.08331494962863" stroke="#2ca02c" stroke-width="1"/>
  <line x1="697.065" y1="331.5644532686227" x2="702.875" y2="331.5644532686227" stroke="#2ca02c" stroke-width="1"/>
  <line x1="697.065" y1="333.08331494962863" x2="702.875" y2="333.08331494962863" stroke="#2ca02c" stroke-width="1"/>
  <rect x="692.5" y="331.5644532686227" width="14.940000000000055" height="1.1391462607545009" fill="#2ca02c" fill-opacity="0.35" stroke="#2ca02c" stroke-width="1"/>
  <line x1="692.5" y1="331.5644532686227" x2="707.44" y2="331.5644532686227" stroke="#2ca02c" stroke-width="2"/>
  <line x1="782.97" y1="325.1327303478197" x2="782.97" y2="325.48900654459885" stroke="#2ca02c" stroke-width="1"/>
  <line x1="780.065" y1="325.1327303478197" x2="785.875" y2="325.1327303478197" stroke="#2ca02c" stroke-width="1"/>
  <line x1="780.065" y1="325.48900654459885" x2="785.875" y2="325.48900654459885" stroke="#2ca02c" stroke-width="1"/>
  <rect x="775.5" y="325.1499191116994" width="14.940000000000055" height="0.31252297963084175" fill="#2ca02c" fill-opacity="0.35" stroke="#2ca02c" stroke-width="1"/>
  <line x1="775.5" y1="325.3014927568204" x2="790.44" y2="325.3014927568204" stroke="#2ca02c" stroke-width="2"/>
  <line x1="865.97" y1="257.627766747555" x2="865.97" y2="257.8965365100375" stroke="#2ca02c" stroke-width="1"/>
  <line x1="863.065" y1="257.627766747555" x2="868.875" y2="257.627766747555" stroke="#2ca02c" stroke-width="1"/>
  <line x1="863.065" y1="257.8965365100375" x2="868.875" y2="257.8965365100375" stroke="#2ca02c" stroke-width="1"/>
  <rect x="858.5" y="257.6293293624531" width="14.940000000000055" height="0.19063901757482427" fill="#2ca02c" fill-opacity="0.35" stroke="#2ca02c" stroke-width="1"/>
  <line x1="858.5" y1="257.6402676667402" x2="873.44" y2="257.6402676667402" stroke="#2ca02c" stroke-width="2"/>
  <line x1="135.57" y1="240.95154055445252" x2="135.57" y2="244.77057136554157" stroke="#d62728" stroke-width="1"/>
  <line x1="132.665" y1="240.95154055445252" x2="138.475" y2="240.95154055445252" stroke="#d62728" stroke-width="1"/>
  <line x1="132.665" y1="244.77057136554157" x2="138.475" y2="244.77057136554157" stroke="#d62728" stroke-width="1"/>
  <rect x="128.1" y="242.20632031767042" width="14.939999999999998" height="1.71575115817339" fill="#d62728" fill-opacity="0.35" stroke="#d62728" stroke-width="1"/>
  <line x1="128.1" y1="242.8016765938672" x2="143.04" y2="242.8016765938672" stroke="#d62728" stroke-width="2"/>
  <line x1="218.57000000000002" y1="233.73225972497977" x2="218.57000000000002" y2="234.52606809324215" stroke="#d62728" stroke-width="1"/>
  <line x1="215.66500000000002" y1="233.73225972497977" x2="221.47500000000002" y2="233.73225972497977" stroke="#d62728" stroke-width="1"/>
  <line x1="215.66500000000002" y1="234.52606809324215" x2="221.47500000000002" y2="234.52606809324215" stroke="#d62728" stroke-width="1"/>
  <rect x="211.10000000000002" y="234.18854327524082" width="14.939999999999998" height="0.3250238988160845" fill="#d62728" fill-opacity="0.35" stroke="#d62728" stroke-width="1"/>
  <line x1="211.10000000000002" y1="234.30105154790795" x2="226.04000000000002" y2="234.30105154790795" stroke="#d62728" stroke-width="2"/>
  <line x1="301.57000000000005" y1="233.71350834620193" x2="301.57000000000005" y2="234.31355246709316" stroke="#d62728" stroke-width="1"/>
  <line x1="298.6650000000001" y1="233.71350834620193" x2="304.475" y2="233.71350834620193" stroke="#d62728" stroke-width="1"/>
  <line x1="298.6650000000001" y1="234.31355246709316" x2="304.475" y2="234.31355246709316" stroke="#d62728" stroke-width="1"/>
  <rect x="294.1" y="233.80726524009117" width="14.939999999999998" height="0.2828332965659399" fill="#d62728" fill-opacity="0.35" stroke="#d62728" stroke-width="1"/>
  <line x1="294.1" y1="234.01978086624015" x2="309.04" y2="234.01978086624015" stroke="#d62728" stroke-width="2"/>
  <line x1="384.57000000000005" y1="233.29472755349659" x2="384.57000000000005" y2="233.96352672990662" stroke="#d62728" stroke-width="1"/>
  <line x1="381.6650000000001" y1="233.29472755349659" x2="387.475" y2="233.29472755349659" stroke="#d62728" stroke-width="1"/>
  <line x1="381.6650000000001" y1="233.96352672990662" x2="387.475" y2="233.96352672990662" stroke="#d62728" stroke-width="1"/>
  <rect x="377.1" y="233.50099272005295" width="14.939999999999998" height="0.26251930288992753" fill="#d62728" fill-opacity="0.35" stroke="#d62728" stroke-width="1"/>
  <line x1="377.1" y1="233.61350099272005" x2="392.04" y2="233.61350099272005" stroke="#d62728" stroke-width="2"/>
  <line x1="467.57000000000005" y1="232.66343113464225" x2="467.57000000000005" y2="233.73225972497977" stroke="#d62728" stroke-width="1"/>
  <line x1="464.6650000000001" y1="232.66343113464225" x2="470.475" y2="232.66343113464225" stroke="#d62728" stroke-width="1"/>
  <line x1="464.6650000000001" y1="233.73225972497977" x2="470.475" y2="233.73225972497977" stroke="#d62728" stroke-width="1"/>
  <rect x="460.1" y="232.66343113464225" width="14.939999999999998" height="0.6000441208912548" fill="#d62728" fill-opacity="0.35" stroke="#d62728" stroke-width="1"/>
  <line x1="460.1" y1="232.90719905875432" x2="475.04" y2="232.90719905875432" stroke="#d62728" stroke-width="2"/>
  <line x1="550.57" y1="231.82586954923156" x2="550.57" y2="233.09471284653284" stroke="#d62728" stroke-width="1"/>
  <line x1="547.6650000000001" y1="231.82586954923156" x2="553.475" y2="231.82586954923156" stroke="#d62728" stroke-width="1"/>
  <line x1="547.6650000000001" y1="233.09471284653284" x2="553.475" y2="233.09471284653284" stroke="#d62728" stroke-width="1"/>
  <rect x="543.1" y="232.3196558570483" width="14.940000000000055" height="0.5781675123170942" fill="#d62728" fill-opacity="0.35" stroke="#d62728" stroke-width="1"/>
  <line x1="543.1" y1="232.81344216486505" x2="558.0400000000001" y2="232.81344216486505" stroke="#d62728" stroke-width="2"/>
  <line x1="633.5699999999999" y1="232.21339804397383" x2="633.5699999999999" y2="232.88219722038386" stroke="#d62728" stroke-width="1"/>
  <line x1="630.665" y1="232.21339804397383" x2="636.4749999999999" y2="232.21339804397383" stroke="#d62728" stroke-width="1"/>
  <line x1="630.665" y1="232.88219722038386" x2="636.4749999999999" y2="232.88219722038386" stroke="#d62728" stroke-width="1"/>
  <rect x="626.0999999999999" y="232.5352967129936" width="14.940000000000055" height="0.3453378924920969" fill="#d62728" fill-opacity="0.35" stroke="#d62728" stroke-width="1"/>
  <line x1="626.0999999999999" y1="232.6759320538275" x2="641.04" y2="232.6759320538275" stroke="#d62728" stroke-width="2"/>
  <line x1="716.5699999999999" y1="232.25715126112215" x2="716.5699999999999" y2="233.14471652327376" stroke="#d62728" stroke-width="1"/>
  <line x1="713.665" y1="232.25715126112215" x2="719.4749999999999" y2="232.25715126112215" stroke="#d62728" stroke-width="1"/>
  <line x1="713.665" y1="233.14471652327376" x2="719.4749999999999" y2="233.14471652327376" stroke="#d62728" stroke-width="1"/>
  <rect x="709.0999999999999" y="232.38372306787264" width="14.940000000000055" height="0.42346863739982155" fill="#d62728" fill-opacity="0.35" stroke="#d62728" stroke-width="1"/>
  <line x1="709.0999999999999" y1="232.4571659680859" x2="724.04" y2="232.4571659680859" stroke="#d62728" stroke-width="2"/>
  <line x1="799.5699999999999" y1="167.8211633208324" x2="799.5699999999999" y2="232.54467240238253" stroke="#d62728" stroke-width="1"/>
  <line x1="796.665" y1="167.8211633208324" x2="802.4749999999999" y2="167.8211633208324" stroke="#d62728" stroke-width="1"/>
  <line x1="796.665" y1="232.54467240238253" x2="802.4749999999999" y2="232.54467240238253" stroke="#d62728" stroke-width="1"/>
  <rect x="792.0999999999999" y="170.95108096183543" width="14.940000000000055" height="36.7214501066255" fill="#d62728" fill-opacity="0.35" stroke="#d62728" stroke-width="1"/>
  <line x1="792.0999999999999" y1="175.5967350540481" x2="807.04" y2="175.5967350540481" stroke="#d62728" stroke-width="2"/>
  <line x1="882.5699999999999" y1="50.0" x2="882.5699999999999" y2="57.98183689977204" stroke="#d62728" stroke-width="1"/>
  <line x1="879.665" y1="50.0" x2="885.4749999999999" y2="50.0" stroke="#d62728" stroke-width="1"/>
  <line x1="879.665" y1="57.98183689977204" x2="885.4749999999999" y2="57.98183689977204" stroke="#d62728" stroke-width="1"/>
  <rect x="875.0999999999999" y="50.73599161703066" width="14.940000000000055" height="4.295628355026103" fill="#d62728" fill-opacity="0.35" stroke="#d62728" stroke-width="1"/>
  <line x1="875.0999999999999" y1="54.61596440914773" x2="890.04" y2="54.61596440914773" stroke="#d62728" stroke-width="2"/>
  <text x="918" y="62" font-family="system-ui, -apple-system" font-size="12" font-weight="600">handlers</text>
  <line x1="918" y1="76" x2="936" y2="76" stroke="#1f77b4" stroke-width="6" stroke-linecap="round" opacity="0.6"/>
  <text x="944" y="80" font-family="system-ui, -apple-system" font-size="12">ruby</text>
  <line x1="918" y1="94" x2="936" y2="94" stroke="#ff7f0e" stroke-width="6" stroke-linecap="round" opacity="0.6"/>
  <text x="944" y="98" font-family="system-ui, -apple-system" font-size="12">go</text>
  <line x1="918" y1="112" x2="936" y2="112" stroke="#2ca02c" stroke-width="6" stroke-linecap="round" opacity="0.6"/>
  <text x="944" y="116" font-family="system-ui, -apple-system" font-size="12">python</text>
  <line x1="918" y1="130" x2="936" y2="130" stroke="#d62728" stroke-width="6" stroke-linecap="round" opacity="0.6"/>
  <text x="944" y="134" font-family="system-ui, -apple-system" font-size="12">node</text>
</svg>
